Mayek Rounded-Bold.ufo
<glyph name="uni0981" format="1">
  <advance width="0"/>
  <unicode hex="0981"/>
  <note>
	uni0981
  </note>
  <outline>
    <contour>
      <point x="-65" y="620"/>
      <point x="-21" y="656"/>
      <point x="-2" y="692" type="curve" smooth="yes"/>
      <point x="14" y="722"/>
      <point x="5" y="745"/>
      <point x="-11" y="745" type="curve" smooth="yes"/>
      <point x="-38" y="745"/>
      <point x="-50" y="675"/>
      <point x="-119" y="675" type="curve" smooth="yes"/>
      <point x="-190" y="675"/>
      <point x="-210" y="749"/>
      <point x="-236" y="749" type="curve" smooth="yes"/>
      <point x="-250" y="749"/>
      <point x="-261" y="727"/>
      <point x="-242" y="694" type="curve" smooth="yes"/>
      <point x="-217" y="651"/>
      <point x="-166" y="620"/>
      <point x="-117" y="620" type="curve" smooth="yes"/>
    </contour>
    <contour>
      <point x="-92" y="711"/>
      <point x="-60" y="728"/>
      <point x="-60" y="766" type="curve" smooth="yes"/>
      <point x="-60" y="801"/>
      <point x="-89" y="828"/>
      <point x="-123" y="828" type="curve" smooth="yes"/>
      <point x="-155" y="828"/>
      <point x="-182" y="805"/>
      <point x="-182" y="773" type="curve" smooth="yes"/>
      <point x="-182" y="742"/>
      <point x="-155" y="711"/>
      <point x="-119" y="711" type="curve" smooth="yes"/>
    </contour>
    <contour>
      <point x="-134" y="748"/>
      <point x="-142" y="761"/>
      <point x="-142" y="772" type="curve" smooth="yes"/>
      <point x="-142" y="782"/>
      <point x="-135" y="792"/>
      <point x="-121" y="792" type="curve" smooth="yes"/>
      <point x="-106" y="792"/>
      <point x="-100" y="779"/>
      <point x="-100" y="768" type="curve" smooth="yes"/>
      <point x="-100" y="756"/>
      <point x="-107" y="748"/>
      <point x="-119" y="748" type="curve" smooth="yes"/>
    </contour>
  </outline>
</glyph>
<glyph name="uni0982" format="1">
  <advance width="342"/>
  <unicode hex="0982"/>
  <note>
	uni0982
  </note>
  <outline>
    <contour>
      <point x="347" y="-13"/>
      <point x="364" y="0"/>
      <point x="364" y="21" type="curve" smooth="yes"/>
      <point x="364" y="60"/>
      <point x="328" y="38"/>
      <point x="257" y="211" type="curve" smooth="yes"/>
      <point x="238" y="258"/>
      <point x="201" y="318"/>
      <point x="101" y="318" type="curve" smooth="yes"/>
      <point x="44" y="318"/>
      <point x="37" y="298"/>
      <point x="37" y="280" type="curve" smooth="yes"/>
      <point x="37" y="251"/>
      <point x="54" y="242"/>
      <point x="83" y="239" type="curve" smooth="yes"/>
      <point x="136" y="233"/>
      <point x="171" y="227"/>
      <point x="208" y="135" type="curve" smooth="yes"/>
      <point x="245" y="42"/>
      <point x="284" y="-13"/>
      <point x="325" y="-13" type="curve" smooth="yes"/>
    </contour>
    <contour>
      <point x="219" y="356"/>
      <point x="273" y="394"/>
      <point x="273" y="464" type="curve" smooth="yes"/>
      <point x="273" y="535"/>
      <point x="221" y="581"/>
      <point x="149" y="581" type="curve" smooth="yes"/>
      <point x="72" y="581"/>
      <point x="36" y="523"/>
      <point x="36" y="475" type="curve" smooth="yes"/>
      <point x="36" y="411"/>
      <point x="91" y="356"/>
      <point x="161" y="356" type="curve" smooth="yes"/>
    </contour>
    <contour>
      <point x="135" y="420"/>
      <point x="104" y="436"/>
      <point x="104" y="469" type="curve" smooth="yes"/>
      <point x="104" y="492"/>
      <point x="119" y="517"/>
      <point x="152" y="517" type="curve" smooth="yes"/>
      <point x="182" y="517"/>
      <point x="207" y="500"/>
      <point x="207" y="470" type="curve" smooth="yes"/>
      <point x="207" y="443"/>
      <point x="184" y="420"/>
      <point x="158" y="420" type="curve" smooth="yes"/>
    </contour>
  </outline>
</glyph>
<glyph name="uni0983" format="1">
  <advance width="407"/>
  <unicode hex="0983"/>
  <note>
	uni0983
  </note>
  <outline>
    <contour>
      <point x="269" y="362"/>
      <point x="323" y="400"/>
      <point x="323" y="470" type="curve" smooth="yes"/>
      <point x="323" y="541"/>
      <point x="271" y="587"/>
      <point x="199" y="587" type="curve" smooth="yes"/>
      <point x="122" y="587"/>
      <point x="86" y="529"/>
      <point x="86" y="481" type="curve" smooth="yes"/>
      <point x="86" y="417"/>
      <point x="141" y="362"/>
      <point x="211" y="362" type="curve" smooth="yes"/>
    </contour>
    <contour>
      <point x="185" y="426"/>
      <point x="154" y="442"/>
      <point x="154" y="475" type="curve" smooth="yes"/>
      <point x="154" y="498"/>
      <point x="169" y="523"/>
      <point x="202" y="523" type="curve" smooth="yes"/>
      <point x="232" y="523"/>
      <point x="257" y="506"/>
      <point x="257" y="476" type="curve" smooth="yes"/>
      <point x="257" y="449"/>
      <point x="234" y="426"/>
      <point x="208" y="426" type="curve" smooth="yes"/>
    </contour>
    <contour>
      <point x="269" y="62"/>
      <point x="323" y="100"/>
      <point x="323" y="170" type="curve" smooth="yes"/>
      <point x="323" y="241"/>
      <point x="271" y="287"/>
      <point x="199" y="287" type="curve" smooth="yes"/>
      <point x="122" y="287"/>
      <point x="86" y="229"/>
      <point x="86" y="181" type="curve" smooth="yes"/>
      <point x="86" y="117"/>
      <point x="141" y="62"/>
      <point x="211" y="62" type="curve" smooth="yes"/>
    </contour>
    <contour>
      <point x="185" y="126"/>
      <point x="154" y="142"/>
      <point x="154" y="175" type="curve" smooth="yes"/>
      <point x="154" y="198"/>
      <point x="169" y="223"/>
      <point x="202" y="223" type="curve" smooth="yes"/>
      <point x="232" y="223"/>
      <point x="257" y="206"/>
      <point x="257" y="176" type="curve" smooth="yes"/>
      <point x="257" y="149"/>
      <point x="234" y="126"/>
      <point x="208" y="126" type="curve" smooth="yes"/>
    </contour>
  </outline>
</glyph>
<glyph name="uni0986" format="1">
  <advance width="965"/>
  <unicode hex="0986"/>
  <note>
	uni0986
  </note>
  <outline>
    <contour>
      <point x="639" y="-12"/>
      <point x="645" y="17"/>
      <point x="645" y="64" type="curve" smooth="yes"/>
      <point x="645" y="414"/>
      <point x="647" y="492"/>
      <point x="655" y="583" type="curve" smooth="yes"/>
      <point x="656" y="597"/>
      <point x="651" y="609"/>
      <point x="635" y="609" type="curve" smooth="yes"/>
      <point x="569" y="609"/>
      <point x="567" y="414"/>
      <point x="567" y="64" type="curve" smooth="yes"/>
      <point x="567" y="12"/>
      <point x="586" y="-12"/>
      <point x="611" y="-12" type="curve" smooth="yes"/>
    </contour>
    <contour>
      <point x="602" y="504" type="line"/>
      <point x="590" y="550"/>
      <point x="559" y="587"/>
      <point x="487" y="587" type="curve" smooth="yes"/>
      <point x="0" y="587" type="line" smooth="yes"/>
      <point x="-18" y="587"/>
      <point x="-35" y="582"/>
      <point x="-35" y="554" type="curve" smooth="yes"/>
      <point x="-35" y="532"/>
      <point x="-18" y="522"/>
      <point x="0" y="522" type="curve" smooth="yes"/>
      <point x="493" y="522" type="line" smooth="yes"/>
      <point x="557" y="522"/>
      <point x="578" y="479"/>
      <point x="574" y="438" type="curve"/>
    </contour>
    <contour>
      <point x="629" y="-12"/>
      <point x="641" y="4"/>
      <point x="641" y="46" type="curve" smooth="yes"/>
      <point x="641" y="112"/>
      <point x="549" y="222"/>
      <point x="478" y="291" type="curve"/>
      <point x="456" y="204" type="line"/>
      <point x="508" y="152"/>
      <point x="567" y="104"/>
      <point x="567" y="64" type="curve" smooth="yes"/>
      <point x="567" y="8"/>
      <point x="599" y="-12"/>
      <point x="613" y="-12" type="curve" smooth="yes"/>
    </contour>
    <contour>
      <point x="771" y="577"/>
      <point x="762" y="587"/>
      <point x="732" y="587" type="curve" smooth="yes"/>
      <point x="706" y="587" type="line" smooth="yes"/>
      <point x="670" y="587"/>
      <point x="657" y="585"/>
      <point x="654" y="595" type="curve"/>
      <point x="645" y="592" type="line"/>
      <point x="645" y="576"/>
      <point x="649" y="522"/>
      <point x="706" y="522" type="curve" smooth="yes"/>
      <point x="732" y="522" type="line" smooth="yes"/>
      <point x="762" y="522"/>
      <point x="771" y="539"/>
      <point x="771" y="554" type="curve" smooth="yes"/>
    </contour>
    <contour>
      <point x="239" y="480"/>
      <point x="184" y="433"/>
      <point x="184" y="368" type="curve" smooth="yes"/>
      <point x="184" y="305"/>
      <point x="239" y="265"/>
      <point x="291" y="265" type="curve" smooth="yes"/>
      <point x="351" y="265"/>
      <point x="392" y="310"/>
      <point x="392" y="361" type="curve" smooth="yes"/>
      <point x="392" y="383"/>
      <point x="382" y="405"/>
      <point x="362" y="421" type="curve"/>
      <point x="362" y="407" type="line"/>
      <point x="401" y="392"/>
      <point x="433" y="356"/>
      <point x="433" y="281" type="curve" smooth="yes"/>
      <point x="433" y="197"/>
      <point x="388" y="145"/>
      <point x="304" y="145" type="curve" smooth="yes"/>
      <point x="182" y="145"/>
      <point x="106" y="311"/>
      <point x="82" y="415" type="curve" smooth="yes"/>
      <point x="76" y="441"/>
      <point x="57" y="449"/>
      <point x="41" y="449" type="curve" smooth="yes"/>
      <point x="12" y="449"/>
      <point x="10" y="415"/>
      <point x="12" y="404" type="curve" smooth="yes"/>
      <point x="30" y="288"/>
      <point x="119" y="69"/>
      <point x="313" y="69" type="curve" smooth="yes"/>
      <point x="426" y="69"/>
      <point x="509" y="154"/>
      <point x="509" y="268" type="curve" smooth="yes"/>
      <point x="509" y="396"/>
      <point x="431" y="480"/>
      <point x="318" y="480" type="curve" smooth="yes"/>
    </contour>
    <contour>
      <point x="262" y="328"/>
      <point x="246" y="348"/>
      <point x="246" y="370" type="curve" smooth="yes"/>
      <point x="246" y="392"/>
      <point x="264" y="411"/>
      <point x="286" y="411" type="curve" smooth="yes"/>
      <point x="308" y="411"/>
      <point x="329" y="393"/>
      <point x="329" y="369" type="curve" smooth="yes"/>
      <point x="329" y="349"/>
      <point x="316" y="328"/>
      <point x="289" y="328" type="curve" smooth="yes"/>
    </contour>
    <contour>
      <point x="871" y="-12"/>
      <point x="877" y="17"/>
      <point x="877" y="64" type="curve" smooth="yes"/>
      <point x="877" y="414"/>
      <point x="879" y="492"/>
      <point x="887" y="583" type="curve" smooth="yes"/>
      <point x="888" y="597"/>
      <point x="883" y="609"/>
      <point x="867" y="609" type="curve" smooth="yes"/>
      <point x="801" y="609"/>
      <point x="799" y="414"/>
      <point x="799" y="64" type="curve" smooth="yes"/>
      <point x="799" y="12"/>
      <point x="818" y="-12"/>
      <point x="843" y="-12" type="curve" smooth="yes"/>
    </contour>
    <contour>
      <point x="834" y="504" type="line"/>
      <point x="822" y="550"/>
      <point x="813" y="587"/>
      <point x="741" y="587" type="curve" smooth="yes"/>
      <point x="724" y="587" type="line" smooth="yes"/>
      <point x="706" y="587"/>
      <point x="689" y="582"/>
      <point x="689" y="554" type="curve" smooth="yes"/>
      <point x="689" y="532"/>
      <point x="706" y="522"/>
      <point x="724" y="522" type="curve" smooth="yes"/>
      <point x="747" y="522" type="line" smooth="yes"/>
      <point x="811" y="522"/>
      <point x="810" y="479"/>
      <point x="806" y="438" type="curve"/>
    </contour>
    <contour>
      <point x="1004" y="577"/>
      <point x="995" y="587"/>
      <point x="965" y="587" type="curve" smooth="yes"/>
      <point x="930" y="587" type="line" smooth="yes"/>
      <point x="902" y="587"/>
      <point x="889" y="585"/>
      <point x="886" y="595" type="curve"/>
      <point x="877" y="592" type="line"/>
      <point x="877" y="576"/>
      <point x="881" y="522"/>
      <point x="930" y="522" type="curve" smooth="yes"/>
      <point x="965" y="522" type="line" smooth="yes"/>
      <point x="995" y="522"/>
      <point x="1004" y="539"/>
      <point x="1004" y="554" type="curve" smooth="yes"/>
    </contour>
  </outline>
</glyph>
<glyph name="uni0987" format="1">
  <advance width="488"/>
  <unicode hex="0987"/>
  <note>
	uni0987
  </note>
  <outline>
    <contour>
      <point x="447" y="-30"/>
      <point x="463" y="-13"/>
      <point x="463" y="4" type="curve" smooth="yes"/>
      <point x="463" y="18"/>
      <point x="451" y="41"/>
      <point x="424" y="41" type="curve" smooth="yes"/>
      <point x="315" y="41"/>
      <point x="281" y="244"/>
      <point x="151" y="244" type="curve" smooth="yes"/>
      <point x="112" y="244"/>
      <point x="76" y="215"/>
      <point x="76" y="179" type="curve" smooth="yes"/>
      <point x="76" y="143"/>
      <point x="113" y="100"/>
      <point x="181" y="100" type="curve" smooth="yes"/>
      <point x="306" y="100"/>
      <point x="416" y="199"/>
      <point x="416" y="316" type="curve" smooth="yes"/>
      <point x="416" y="418"/>
      <point x="346" y="500"/>
      <point x="232" y="500" type="curve" smooth="yes"/>
      <point x="150" y="500"/>
      <point x="72" y="458"/>
      <point x="72" y="386" type="curve" smooth="yes"/>
      <point x="72" y="336"/>
      <point x="110" y="295"/>
      <point x="165" y="295" type="curve" smooth="yes"/>
      <point x="216" y="295"/>
      <point x="247" y="330"/>
      <point x="247" y="376" type="curve" smooth="yes"/>
      <point x="247" y="417"/>
      <point x="217" y="449"/>
      <point x="177" y="449" type="curve"/>
      <point x="215" y="434" type="line"/>
      <point x="274" y="434"/>
      <point x="341" y="403"/>
      <point x="341" y="316" type="curve" smooth="yes"/>
      <point x="341" y="226"/>
      <point x="260" y="164"/>
      <point x="168" y="164" type="curve" smooth="yes"/>
      <point x="150" y="164"/>
      <point x="134" y="169"/>
      <point x="134" y="179" type="curve" smooth="yes"/>
      <point x="134" y="185"/>
      <point x="140" y="189"/>
      <point x="150" y="189" type="curve" smooth="yes"/>
      <point x="207" y="189"/>
      <point x="276" y="-30"/>
      <point x="417" y="-30" type="curve" smooth="yes"/>
    </contour>
    <contour>
      <point x="143" y="347"/>
      <point x="127" y="362"/>
      <point x="127" y="381" type="curve" smooth="yes"/>
      <point x="128" y="402"/>
      <point x="146" y="411"/>
      <point x="161" y="411" type="curve" smooth="yes"/>
      <point x="181" y="411"/>
      <point x="193" y="396"/>
      <point x="193" y="379" type="curve" smooth="yes"/>
      <point x="193" y="357"/>
      <point x="174" y="347"/>
      <point x="161" y="347" type="curve" smooth="yes"/>
    </contour>
    <contour>
      <point x="488" y="522" type="line" smooth="yes"/>
      <point x="499" y="522"/>
      <point x="519" y="529"/>
      <point x="519" y="554" type="curve" smooth="yes"/>
      <point x="519" y="578"/>
      <point x="501" y="587"/>
      <point x="488" y="587" type="curve" smooth="yes"/>
      <point x="0" y="587" type="line" smooth="yes"/>
      <point x="-18" y="587"/>
      <point x="-35" y="578"/>
      <point x="-35" y="554" type="curve" smooth="yes"/>
      <point x="-35" y="529"/>
      <point x="-18" y="522"/>
      <point x="0" y="522" type="curve" smooth="yes"/>
    </contour>
    <contour>
      <point x="412" y="544" type="line"/>
      <point x="412" y="693"/>
      <point x="362" y="739"/>
      <point x="271" y="739" type="curve" smooth="yes"/>
      <point x="215" y="739"/>
      <point x="169" y="715"/>
      <point x="123" y="715" type="curve" smooth="yes"/>
      <point x="56" y="715"/>
      <point x="46" y="757"/>
      <point x="43" y="784" type="curve" smooth="yes"/>
      <point x="41" y="807"/>
      <point x="37" y="826"/>
      <point x="13" y="826" type="curve" smooth="yes"/>
      <point x="-2" y="826"/>
      <point x="-17" y="818"/>
      <point x="-17" y="782" type="curve" smooth="yes"/>
      <point x="-17" y="705"/>
      <point x="43" y="649"/>
      <point x="128" y="649" type="curve" smooth="yes"/>
      <point x="196" y="649"/>
      <point x="233" y="673"/>
      <point x="278" y="673" type="curve" smooth="yes"/>
      <point x="336" y="673"/>
      <point x="336" y="626"/>
      <point x="336" y="544" type="curve"/>
    </contour>
  </outline>
</glyph>
<glyph name="uni0988" format="1">
  <advance width="538"/>
  <unicode hex="0988"/>
  <note>
	uni0988
  </note>
  <outline>
    <contour>
      <point x="100" y="348"/>
      <point x="85" y="363"/>
      <point x="85" y="382" type="curve" smooth="yes"/>
      <point x="86" y="403"/>
      <point x="102" y="412"/>
      <point x="117" y="412" type="curve" smooth="yes"/>
      <point x="137" y="412"/>
      <point x="149" y="397"/>
      <point x="149" y="380" type="curve" smooth="yes"/>
      <point x="149" y="358"/>
      <point x="130" y="348"/>
      <point x="117" y="348" type="curve" smooth="yes"/>
    </contour>
    <contour>
      <point x="317" y="235" type="line"/>
      <point x="324" y="244"/>
      <point x="357" y="283"/>
      <point x="357" y="339" type="curve" smooth="yes"/>
      <point x="357" y="412"/>
      <point x="300" y="493"/>
      <point x="185" y="493" type="curve" smooth="yes"/>
      <point x="104" y="493"/>
      <point x="32" y="453"/>
      <point x="32" y="385" type="curve" smooth="yes"/>
      <point x="32" y="341"/>
      <point x="63" y="294"/>
      <point x="119" y="294" type="curve" smooth="yes"/>
      <point x="166" y="294"/>
      <point x="202" y="327"/>
      <point x="202" y="372" type="curve" smooth="yes"/>
      <point x="202" y="416"/>
      <point x="169" y="449"/>
      <point x="127" y="449" type="curve"/>
      <point x="116" y="422" type="line"/>
      <point x="139" y="429"/>
      <point x="160" y="435"/>
      <point x="185" y="435" type="curve" smooth="yes"/>
      <point x="246" y="435"/>
      <point x="297" y="399"/>
      <point x="297" y="321" type="curve" smooth="yes"/>
      <point x="297" y="294"/>
      <point x="291" y="269"/>
      <point x="269" y="242" type="curve"/>
    </contour>
    <contour>
      <point x="322" y="216" type="move"/>
    </contour>
    <contour>
      <point x="480" y="18"/>
      <point x="491" y="27"/>
      <point x="491" y="43" type="curve" smooth="yes"/>
      <point x="491" y="82"/>
      <point x="421" y="144"/>
      <point x="421" y="259" type="curve" smooth="yes"/>
      <point x="421" y="388"/>
      <point x="508" y="395"/>
      <point x="508" y="433" type="curve" smooth="yes"/>
      <point x="508" y="444"/>
      <point x="501" y="461"/>
      <point x="477" y="461" type="curve" smooth="yes"/>
      <point x="380" y="461"/>
      <point x="289" y="185"/>
      <point x="172" y="185" type="curve" smooth="yes"/>
      <point x="127" y="185"/>
      <point x="108" y="225"/>
      <point x="79" y="225" type="curve" smooth="yes"/>
      <point x="63" y="225"/>
      <point x="54" y="212"/>
      <point x="54" y="196" type="curve" smooth="yes"/>
      <point x="54" y="154"/>
      <point x="115" y="121"/>
      <point x="173" y="121" type="curve" smooth="yes"/>
      <point x="287" y="121"/>
      <point x="349" y="246"/>
      <point x="396" y="318" type="curve"/>
      <point x="351" y="299" type="line"/>
      <point x="351" y="266"/>
      <point x="363" y="119"/>
      <point x="416" y="48" type="curve" smooth="yes"/>
      <point x="430" y="29"/>
      <point x="447" y="18"/>
      <point x="464" y="18" type="curve" smooth="yes"/>
    </contour>
    <contour>
      <point x="462" y="544" type="line"/>
      <point x="462" y="693"/>
      <point x="412" y="739"/>
      <point x="321" y="739" type="curve" smooth="yes"/>
      <point x="265" y="739"/>
      <point x="209" y="715"/>
      <point x="163" y="715" type="curve" smooth="yes"/>
      <point x="96" y="715"/>
      <point x="86" y="757"/>
      <point x="83" y="784" type="curve" smooth="yes"/>
      <point x="81" y="807"/>
      <point x="77" y="826"/>
      <point x="53" y="826" type="curve" smooth="yes"/>
      <point x="38" y="826"/>
      <point x="23" y="818"/>
      <point x="23" y="782" type="curve" smooth="yes"/>
      <point x="23" y="705"/>
      <point x="83" y="649"/>
      <point x="168" y="649" type="curve" smooth="yes"/>
      <point x="236" y="649"/>
      <point x="283" y="673"/>
      <point x="328" y="673" type="curve" smooth="yes"/>
      <point x="386" y="673"/>
      <point x="386" y="626"/>
      <point x="386" y="544" type="curve"/>
    </contour>
    <contour>
      <point x="538" y="522" type="line" smooth="yes"/>
      <point x="549" y="522"/>
      <point x="569" y="529"/>
      <point x="569" y="554" type="curve" smooth="yes"/>
      <point x="569" y="578"/>
      <point x="551" y="587"/>
      <point x="538" y="587" type="curve" smooth="yes"/>
      <point x="0" y="587" type="line" smooth="yes"/>
      <point x="-18" y="587"/>
      <point x="-35" y="578"/>
      <point x="-35" y="554" type="curve" smooth="yes"/>
      <point x="-35" y="529"/>
      <point x="-18" y="522"/>
      <point x="0" y="522" type="curve" smooth="yes"/>
    </contour>
  </outline>
</glyph>
<glyph name="uni098A" format="1">
  <advance width="643"/>
  <unicode hex="098A"/>
  <note>
	uni098A
  </note>
  <outline>
    <contour>
      <point x="523" y="22"/>
      <point x="612" y="102"/>
      <point x="612" y="224" type="curve" smooth="yes"/>
      <point x="612" y="320"/>
      <point x="557" y="405"/>
      <point x="516" y="405" type="curve" smooth="yes"/>
      <point x="465" y="405"/>
      <point x="488" y="277"/>
      <point x="411" y="277" type="curve" smooth="yes"/>
      <point x="366" y="277"/>
      <point x="347" y="322"/>
      <point x="347" y="392" type="curve" smooth="yes"/>
      <point x="347" y="479"/>
      <point x="374" y="522"/>
      <point x="423" y="522" type="curve" smooth="yes"/>
      <point x="643" y="522" type="line" smooth="yes"/>
      <point x="653" y="522"/>
      <point x="670" y="528"/>
      <point x="670" y="554" type="curve" smooth="yes"/>
      <point x="670" y="581"/>
      <point x="650" y="587"/>
      <point x="643" y="587" type="curve" smooth="yes"/>
      <point x="407" y="587" type="line" smooth="yes"/>
      <point x="386" y="587"/>
      <point x="345" y="587"/>
      <point x="324" y="557" type="curve" smooth="yes"/>
      <point x="293" y="513"/>
      <point x="271" y="450"/>
      <point x="271" y="386" type="curve" smooth="yes"/>
      <point x="271" y="285"/>
      <point x="336" y="205"/>
      <point x="416" y="205" type="curve" smooth="yes"/>
      <point x="511" y="205"/>
      <point x="544" y="313"/>
      <point x="544" y="339" type="curve"/>
      <point x="516" y="336" type="line"/>
      <point x="526" y="320"/>
      <point x="546" y="276"/>
      <point x="546" y="231" type="curve" smooth="yes"/>
      <point x="546" y="156"/>
      <point x="488" y="88"/>
      <point x="403" y="88" type="curve" smooth="yes"/>
      <point x="230" y="88"/>
      <point x="117" y="227"/>
      <point x="94" y="422" type="curve" smooth="yes"/>
      <point x="91" y="444"/>
      <point x="86" y="468"/>
      <point x="58" y="468" type="curve" smooth="yes"/>
      <point x="32" y="468"/>
      <point x="28" y="447"/>
      <point x="28" y="424" type="curve" smooth="yes"/>
      <point x="28" y="300"/>
      <point x="143" y="22"/>
      <point x="407" y="22" type="curve" smooth="yes"/>
    </contour>
    <contour>
      <point x="328" y="515" type="line"/>
      <point x="328" y="557"/>
      <point x="300" y="587"/>
      <point x="239" y="587" type="curve" smooth="yes"/>
      <point x="-2" y="587" type="line" smooth="yes"/>
      <point x="-9" y="587"/>
      <point x="-30" y="582"/>
      <point x="-30" y="553" type="curve" smooth="yes"/>
      <point x="-30" y="531"/>
      <point x="-11" y="522"/>
      <point x="-2" y="522" type="curve" smooth="yes"/>
      <point x="245" y="522" type="line" smooth="yes"/>
      <point x="273" y="522"/>
      <point x="286" y="514"/>
      <point x="286" y="492" type="curve" smooth="yes"/>
      <point x="286" y="483"/>
      <point x="284" y="473"/>
      <point x="281" y="461" type="curve"/>
    </contour>
    <contour>
      <point x="403" y="88" type="line"/>
      <point x="240" y="88"/>
      <point x="198" y="297"/>
      <point x="198" y="445" type="curve" smooth="yes"/>
      <point x="198" y="464"/>
      <point x="192" y="485"/>
      <point x="167" y="485" type="curve" smooth="yes"/>
      <point x="149" y="485"/>
      <point x="140" y="473"/>
      <point x="139" y="451" type="curve" smooth="yes"/>
      <point x="136" y="318"/>
      <point x="163" y="130"/>
      <point x="326" y="52" type="curve"/>
    </contour>
    <contour>
      <point x="583" y="564" type="line"/>
      <point x="583" y="704"/>
      <point x="522" y="762"/>
      <point x="417" y="762" type="curve" smooth="yes"/>
      <point x="317" y="762"/>
      <point x="264" y="710"/>
      <point x="183" y="710" type="curve" smooth="yes"/>
      <point x="125" y="710"/>
      <point x="86" y="728"/>
      <point x="85" y="781" type="curve" smooth="yes"/>
      <point x="85" y="801"/>
      <point x="83" y="827"/>
      <point x="55" y="827" type="curve" smooth="yes"/>
      <point x="35" y="827"/>
      <point x="25" y="813"/>
      <point x="25" y="779" type="curve" smooth="yes"/>
      <point x="25" y="682"/>
      <point x="107" y="647"/>
      <point x="191" y="647" type="curve" smooth="yes"/>
      <point x="293" y="647"/>
      <point x="352" y="695"/>
      <point x="422" y="695" type="curve" smooth="yes"/>
      <point x="503" y="695"/>
      <point x="513" y="629"/>
      <point x="513" y="564" type="curve"/>
    </contour>
  </outline>
</glyph>
<glyph name="uni098B" format="1">
  <advance width="665"/>
  <unicode hex="098B"/>
  <note>
	uni098B
  </note>
  <outline>
    <contour>
      <point x="416" y="234" type="line"/>
      <point x="416" y="196"/>
      <point x="520" y="159"/>
      <point x="520" y="109" type="curve"/>
      <point x="584" y="109" type="line"/>
      <point x="584" y="203"/>
      <point x="442" y="250"/>
      <point x="442" y="312" type="curve"/>
    </contour>
    <contour>
      <point x="115" y="545"/>
      <point x="125" y="532"/>
      <point x="125" y="513" type="curve" smooth="yes"/>
      <point x="125" y="496"/>
      <point x="110" y="486"/>
      <point x="96" y="486" type="curve" smooth="yes"/>
      <point x="81" y="486"/>
      <point x="66" y="496"/>
      <point x="66" y="515" type="curve" smooth="yes"/>
      <point x="66" y="533"/>
      <point x="81" y="545"/>
      <point x="96" y="545" type="curve" smooth="yes"/>
    </contour>
    <contour>
      <point x="435" y="-12"/>
      <point x="441" y="17"/>
      <point x="441" y="64" type="curve" smooth="yes"/>
      <point x="441" y="414"/>
      <point x="443" y="492"/>
      <point x="451" y="583" type="curve" smooth="yes"/>
      <point x="452" y="597"/>
      <point x="447" y="609"/>
      <point x="431" y="609" type="curve" smooth="yes"/>
      <point x="365" y="609"/>
      <point x="363" y="414"/>
      <point x="363" y="64" type="curve" smooth="yes"/>
      <point x="363" y="12"/>
      <point x="382" y="-12"/>
      <point x="407" y="-12" type="curve" smooth="yes"/>
    </contour>
    <contour>
      <point x="322" y="522"/>
      <point x="337" y="509"/>
      <point x="337" y="488" type="curve" smooth="yes"/>
      <point x="337" y="444"/>
      <point x="292" y="410"/>
      <point x="89" y="324" type="curve" smooth="yes"/>
      <point x="63" y="313"/>
      <point x="51" y="293"/>
      <point x="51" y="274" type="curve" smooth="yes"/>
      <point x="51" y="238"/>
      <point x="77" y="216"/>
      <point x="116" y="205" type="curve" smooth="yes"/>
      <point x="162" y="192"/>
      <point x="363" y="164"/>
      <point x="363" y="64" type="curve" smooth="yes"/>
      <point x="363" y="22"/>
      <point x="376" y="-12"/>
      <point x="407" y="-12" type="curve" smooth="yes"/>
      <point x="431" y="-12"/>
      <point x="439" y="24"/>
      <point x="439" y="46" type="curve" smooth="yes"/>
      <point x="439" y="183"/>
      <point x="241" y="273"/>
      <point x="110" y="273" type="curve"/>
      <point x="118" y="256" type="line"/>
      <point x="322" y="338"/>
      <point x="399" y="397"/>
      <point x="399" y="486" type="curve" smooth="yes"/>
      <point x="399" y="543"/>
      <point x="345" y="587"/>
      <point x="285" y="587" type="curve" smooth="yes"/>
      <point x="204" y="587"/>
      <point x="235" y="462"/>
      <point x="136" y="462" type="curve" smooth="yes"/>
      <point x="123" y="462"/>
      <point x="107" y="465"/>
      <point x="88" y="470" type="curve"/>
      <point x="128" y="449" type="line"/>
      <point x="143" y="453"/>
      <point x="177" y="476"/>
      <point x="177" y="522" type="curve" smooth="yes"/>
      <point x="177" y="558"/>
      <point x="149" y="597"/>
      <point x="96" y="597" type="curve" smooth="yes"/>
      <point x="42" y="597"/>
      <point x="14" y="555"/>
      <point x="14" y="511" type="curve" smooth="yes"/>
      <point x="14" y="446"/>
      <point x="71" y="399"/>
      <point x="133" y="399" type="curve" smooth="yes"/>
      <point x="271" y="399"/>
      <point x="265" y="522"/>
      <point x="307" y="522" type="curve" smooth="yes"/>
    </contour>
    <contour>
      <point x="592" y="33"/>
      <point x="598" y="62"/>
      <point x="598" y="109" type="curve" smooth="yes"/>
      <point x="598" y="414"/>
      <point x="600" y="492"/>
      <point x="608" y="583" type="curve" smooth="yes"/>
      <point x="609" y="597"/>
      <point x="604" y="609"/>
      <point x="588" y="609" type="curve" smooth="yes"/>
      <point x="522" y="609"/>
      <point x="520" y="414"/>
      <point x="520" y="109" type="curve" smooth="yes"/>
      <point x="520" y="57"/>
      <point x="539" y="33"/>
      <point x="564" y="33" type="curve" smooth="yes"/>
    </contour>
    <contour>
      <point x="704" y="577"/>
      <point x="695" y="587"/>
      <point x="665" y="587" type="curve" smooth="yes"/>
      <point x="651" y="587" type="line" smooth="yes"/>
      <point x="623" y="587"/>
      <point x="610" y="585"/>
      <point x="607" y="595" type="curve"/>
      <point x="598" y="592" type="line"/>
      <point x="598" y="576"/>
      <point x="602" y="522"/>
      <point x="651" y="522" type="curve" smooth="yes"/>
      <point x="665" y="522" type="line" smooth="yes"/>
      <point x="695" y="522"/>
      <point x="704" y="539"/>
      <point x="704" y="554" type="curve" smooth="yes"/>
    </contour>
  </outline>
</glyph>
<glyph name="uni098C" format="1">
  <advance width="562"/>
  <unicode hex="098C"/>
  <note>
	uni098C
  </note>
  <outline>
    <contour>
      <point x="415" y="-12"/>
      <point x="531" y="83"/>
      <point x="531" y="250" type="curve" smooth="yes"/>
      <point x="531" y="563"/>
      <point x="104" y="481"/>
      <point x="104" y="645" type="curve" smooth="yes"/>
      <point x="104" y="669"/>
      <point x="99" y="693"/>
      <point x="69" y="693" type="curve" smooth="yes"/>
      <point x="49" y="693"/>
      <point x="32" y="683"/>
      <point x="32" y="636" type="curve" smooth="yes"/>
      <point x="32" y="399"/>
      <point x="455" y="501"/>
      <point x="455" y="243" type="curve" smooth="yes"/>
      <point x="455" y="138"/>
      <point x="385" y="52"/>
      <point x="320" y="52" type="curve"/>
      <point x="319" y="21" type="line"/>
      <point x="343" y="21"/>
      <point x="395" y="86"/>
      <point x="395" y="169" type="curve" smooth="yes"/>
      <point x="395" y="270"/>
      <point x="319" y="354"/>
      <point x="209" y="354" type="curve" smooth="yes"/>
      <point x="90" y="354"/>
      <point x="24" y="257"/>
      <point x="24" y="165" type="curve" smooth="yes"/>
      <point x="24" y="69"/>
      <point x="95" y="-3"/>
      <point x="172" y="-3" type="curve" smooth="yes"/>
      <point x="230" y="-3"/>
      <point x="262" y="37"/>
      <point x="262" y="83" type="curve" smooth="yes"/>
      <point x="262" y="129"/>
      <point x="231" y="168"/>
      <point x="178" y="168" type="curve" smooth="yes"/>
      <point x="124" y="168"/>
      <point x="94" y="126"/>
      <point x="94" y="75" type="curve"/>
      <point x="148" y="50" type="line"/>
      <point x="102" y="79"/>
      <point x="95" y="116"/>
      <point x="95" y="146" type="curve" smooth="yes"/>
      <point x="95" y="230"/>
      <point x="148" y="278"/>
      <point x="211" y="278" type="curve" smooth="yes"/>
      <point x="266" y="278"/>
      <point x="320" y="242"/>
      <point x="320" y="155" type="curve" smooth="yes"/>
      <point x="320" y="71"/>
      <point x="269" y="39"/>
      <point x="269" y="11" type="curve" smooth="yes"/>
      <point x="269" y="-6"/>
      <point x="289" y="-12"/>
      <point x="314" y="-12" type="curve" smooth="yes"/>
    </contour>
    <contour>
      <point x="155" y="51"/>
      <point x="142" y="66"/>
      <point x="142" y="82" type="curve" smooth="yes"/>
      <point x="142" y="97"/>
      <point x="153" y="114"/>
      <point x="173" y="114" type="curve" smooth="yes"/>
      <point x="192" y="114"/>
      <point x="205" y="100"/>
      <point x="205" y="82" type="curve" smooth="yes"/>
      <point x="205" y="67"/>
      <point x="195" y="51"/>
      <point x="173" y="51" type="curve"/>
    </contour>
  </outline>
</glyph>
<glyph name="uni098F" format="1">
  <advance width="598"/>
  <unicode hex="098F"/>
  <note>
	uni098F
  </note>
  <outline>
    <contour>
      <point x="513" y="-12"/>
      <point x="522" y="6"/>
      <point x="522" y="42" type="curve" smooth="yes"/>
      <point x="527" y="468" type="line" smooth="yes"/>
      <point x="528" y="546"/>
      <point x="513" y="595"/>
      <point x="430" y="595" type="curve" smooth="yes"/>
      <point x="310" y="595"/>
      <point x="162" y="447"/>
      <point x="162" y="322" type="curve" smooth="yes"/>
      <point x="162" y="262"/>
      <point x="198" y="213"/>
      <point x="262" y="213" type="curve" smooth="yes"/>
      <point x="325" y="213"/>
      <point x="358" y="262"/>
      <point x="358" y="306" type="curve" smooth="yes"/>
      <point x="358" y="345"/>
      <point x="334" y="396"/>
      <point x="265" y="396" type="curve" smooth="yes"/>
      <point x="246" y="396"/>
      <point x="225" y="386"/>
      <point x="210" y="369" type="curve"/>
      <point x="241" y="365" type="line"/>
      <point x="270" y="455"/>
      <point x="362" y="521"/>
      <point x="414" y="521" type="curve" smooth="yes"/>
      <point x="446" y="521"/>
      <point x="447" y="500"/>
      <point x="448" y="433" type="curve" smooth="yes"/>
      <point x="448" y="421"/>
      <point x="447" y="114"/>
      <point x="447" y="97" type="curve"/>
      <point x="469" y="110" type="line"/>
      <point x="443" y="138"/>
      <point x="404" y="160"/>
      <point x="364" y="160" type="curve" smooth="yes"/>
      <point x="300" y="160"/>
      <point x="268" y="122"/>
      <point x="206" y="122" type="curve" smooth="yes"/>
      <point x="141" y="122"/>
      <point x="85" y="152"/>
      <point x="85" y="232" type="curve" smooth="yes"/>
      <point x="85" y="293"/>
      <point x="110" y="312"/>
      <point x="110" y="345" type="curve" smooth="yes"/>
      <point x="110" y="375"/>
      <point x="92" y="380"/>
      <point x="79" y="380" type="curve" smooth="yes"/>
      <point x="41" y="380"/>
      <point x="13" y="300"/>
      <point x="13" y="243" type="curve" smooth="yes"/>
      <point x="13" y="139"/>
      <point x="73" y="50"/>
      <point x="196" y="50" type="curve" smooth="yes"/>
      <point x="262" y="50"/>
      <point x="302" y="87"/>
      <point x="364" y="87" type="curve" smooth="yes"/>
      <point x="404" y="87"/>
      <point x="447" y="78"/>
      <point x="447" y="38" type="curve" smooth="yes"/>
      <point x="447" y="6"/>
      <point x="467" y="-12"/>
      <point x="486" y="-12" type="curve" smooth="yes"/>
    </contour>
    <contour>
      <point x="246" y="271"/>
      <point x="227" y="284"/>
      <point x="227" y="308" type="curve" smooth="yes"/>
      <point x="227" y="329"/>
      <point x="244" y="345"/>
      <point x="265" y="345" type="curve" smooth="yes"/>
      <point x="288" y="345"/>
      <point x="302" y="329"/>
      <point x="302" y="308" type="curve" smooth="yes"/>
      <point x="302" y="284"/>
      <point x="285" y="271"/>
      <point x="266" y="271" type="curve" smooth="yes"/>
    </contour>
  </outline>
</glyph>
<glyph name="uni0993" format="1">
  <advance width="577"/>
  <unicode hex="0993"/>
  <note>
	uni0993
  </note>
  <outline>
    <contour>
      <point x="440" y="39"/>
      <point x="534" y="107"/>
      <point x="534" y="224" type="curve" smooth="yes"/>
      <point x="534" y="323"/>
      <point x="460" y="392"/>
      <point x="376" y="392" type="curve" smooth="yes"/>
      <point x="312" y="392"/>
      <point x="273" y="352"/>
      <point x="273" y="307" type="curve" smooth="yes"/>
      <point x="273" y="260"/>
      <point x="317" y="227"/>
      <point x="363" y="227" type="curve" smooth="yes"/>
      <point x="451" y="227"/>
      <point x="507" y="350"/>
      <point x="507" y="434" type="curve" smooth="yes"/>
      <point x="507" y="533"/>
      <point x="430" y="597"/>
      <point x="326" y="597" type="curve" smooth="yes"/>
      <point x="203" y="597"/>
      <point x="113" y="506"/>
      <point x="113" y="422" type="curve" smooth="yes"/>
      <point x="113" y="362"/>
      <point x="158" y="325"/>
      <point x="206" y="325" type="curve" smooth="yes"/>
      <point x="258" y="325"/>
      <point x="293" y="370"/>
      <point x="293" y="416" type="curve" smooth="yes"/>
      <point x="293" y="466"/>
      <point x="250" y="495"/>
      <point x="202" y="495" type="curve"/>
      <point x="195" y="467" type="line"/>
      <point x="225" y="515"/>
      <point x="278" y="532"/>
      <point x="324" y="532" type="curve" smooth="yes"/>
      <point x="371" y="532"/>
      <point x="435" y="507"/>
      <point x="435" y="433" type="curve" smooth="yes"/>
      <point x="435" y="372"/>
      <point x="397" y="289"/>
      <point x="353" y="289" type="curve" smooth="yes"/>
      <point x="345" y="289"/>
      <point x="331" y="292"/>
      <point x="331" y="305" type="curve" smooth="yes"/>
      <point x="331" y="315"/>
      <point x="340" y="329"/>
      <point x="365" y="329" type="curve" smooth="yes"/>
      <point x="406" y="329"/>
      <point x="461" y="291"/>
      <point x="461" y="223" type="curve" smooth="yes"/>
      <point x="461" y="145"/>
      <point x="381" y="115"/>
      <point x="322" y="115" type="curve" smooth="yes"/>
      <point x="158" y="115"/>
      <point x="78" y="336"/>
      <point x="67" y="440" type="curve" smooth="yes"/>
      <point x="64" y="466"/>
      <point x="53" y="485"/>
      <point x="30" y="485" type="curve" smooth="yes"/>
      <point x="19" y="485"/>
      <point x="-1" y="482"/>
      <point x="-1" y="443" type="curve" smooth="yes"/>
      <point x="-1" y="355"/>
      <point x="97" y="39"/>
      <point x="325" y="39" type="curve" smooth="yes"/>
    </contour>
    <contour>
      <point x="190" y="383"/>
      <point x="169" y="393"/>
      <point x="169" y="417" type="curve" smooth="yes"/>
      <point x="169" y="441"/>
      <point x="189" y="450"/>
      <point x="202" y="450" type="curve" smooth="yes"/>
      <point x="216" y="450"/>
      <point x="236" y="441"/>
      <point x="236" y="416" type="curve" smooth="yes"/>
      <point x="236" y="392"/>
      <point x="217" y="383"/>
      <point x="204" y="383" type="curve" smooth="yes"/>
    </contour>
  </outline>
</glyph>
<glyph name="uni0994" format="1">
  <advance width="660"/>
  <unicode hex="0994"/>
  <note>
	uni0994
  </note>
  <outline>
    <contour>
      <point x="581" y="292"/>
      <point x="650" y="390"/>
      <point x="650" y="505" type="curve" smooth="yes"/>
      <point x="650" y="633"/>
      <point x="557" y="698"/>
      <point x="436" y="734" type="curve" smooth="yes"/>
      <point x="367" y="754"/>
      <point x="278" y="772"/>
      <point x="277" y="844" type="curve" smooth="yes"/>
      <point x="277" y="873"/>
      <point x="275" y="902"/>
      <point x="243" y="902" type="curve" smooth="yes"/>
      <point x="225" y="902"/>
      <point x="205" y="893"/>
      <point x="205" y="844" type="curve" smooth="yes"/>
      <point x="205" y="714"/>
      <point x="348" y="686"/>
      <point x="414" y="667" type="curve" smooth="yes"/>
      <point x="517" y="638"/>
      <point x="578" y="564"/>
      <point x="578" y="500" type="curve" smooth="yes"/>
      <point x="578" y="444"/>
      <point x="551" y="353"/>
      <point x="469" y="353" type="curve"/>
      <point x="456" y="292" type="line"/>
    </contour>
    <contour>
      <point x="450" y="39"/>
      <point x="544" y="107"/>
      <point x="544" y="224" type="curve" smooth="yes"/>
      <point x="544" y="323"/>
      <point x="470" y="392"/>
      <point x="386" y="392" type="curve" smooth="yes"/>
      <point x="322" y="392"/>
      <point x="283" y="352"/>
      <point x="283" y="307" type="curve" smooth="yes"/>
      <point x="283" y="260"/>
      <point x="327" y="227"/>
      <point x="373" y="227" type="curve" smooth="yes"/>
      <point x="461" y="227"/>
      <point x="517" y="350"/>
      <point x="517" y="434" type="curve" smooth="yes"/>
      <point x="517" y="533"/>
      <point x="440" y="597"/>
      <point x="336" y="597" type="curve" smooth="yes"/>
      <point x="213" y="597"/>
      <point x="123" y="506"/>
      <point x="123" y="422" type="curve" smooth="yes"/>
      <point x="123" y="362"/>
      <point x="168" y="325"/>
      <point x="216" y="325" type="curve" smooth="yes"/>
      <point x="268" y="325"/>
      <point x="303" y="370"/>
      <point x="303" y="416" type="curve" smooth="yes"/>
      <point x="303" y="466"/>
      <point x="260" y="495"/>
      <point x="212" y="495" type="curve"/>
      <point x="205" y="467" type="line"/>
      <point x="235" y="515"/>
      <point x="288" y="532"/>
      <point x="334" y="532" type="curve" smooth="yes"/>
      <point x="381" y="532"/>
      <point x="445" y="507"/>
      <point x="445" y="433" type="curve" smooth="yes"/>
      <point x="445" y="372"/>
      <point x="407" y="289"/>
      <point x="363" y="289" type="curve" smooth="yes"/>
      <point x="355" y="289"/>
      <point x="341" y="292"/>
      <point x="341" y="305" type="curve" smooth="yes"/>
      <point x="341" y="315"/>
      <point x="350" y="329"/>
      <point x="375" y="329" type="curve" smooth="yes"/>
      <point x="416" y="329"/>
      <point x="471" y="291"/>
      <point x="471" y="223" type="curve" smooth="yes"/>
      <point x="471" y="145"/>
      <point x="391" y="115"/>
      <point x="332" y="115" type="curve" smooth="yes"/>
      <point x="168" y="115"/>
      <point x="88" y="336"/>
      <point x="77" y="440" type="curve" smooth="yes"/>
      <point x="74" y="466"/>
      <point x="63" y="485"/>
      <point x="40" y="485" type="curve" smooth="yes"/>
      <point x="29" y="485"/>
      <point x="9" y="482"/>
      <point x="9" y="443" type="curve" smooth="yes"/>
      <point x="9" y="355"/>
      <point x="107" y="39"/>
      <point x="335" y="39" type="curve" smooth="yes"/>
    </contour>
    <contour>
      <point x="200" y="383"/>
      <point x="179" y="393"/>
      <point x="179" y="417" type="curve" smooth="yes"/>
      <point x="179" y="441"/>
      <point x="199" y="450"/>
      <point x="212" y="450" type="curve" smooth="yes"/>
      <point x="226" y="450"/>
      <point x="246" y="441"/>
      <point x="246" y="416" type="curve" smooth="yes"/>
      <point x="246" y="392"/>
      <point x="227" y="383"/>
      <point x="214" y="383" type="curve" smooth="yes"/>
    </contour>
  </outline>
</glyph>
<glyph name="uni0995" format="1">
  <advance width="660"/>
  <unicode hex="0995"/>
  <note>
	uni0995
  </note>
  <outline>
    <contour>
      <point x="372" y="-12"/>
      <point x="378" y="17"/>
      <point x="378" y="64" type="curve" smooth="yes"/>
      <point x="378" y="414"/>
      <point x="380" y="492"/>
      <point x="388" y="583" type="curve" smooth="yes"/>
      <point x="389" y="597"/>
      <point x="384" y="609"/>
      <point x="368" y="609" type="curve" smooth="yes"/>
      <point x="302" y="609"/>
      <point x="300" y="414"/>
      <point x="300" y="64" type="curve" smooth="yes"/>
      <point x="300" y="12"/>
      <point x="319" y="-12"/>
      <point x="344" y="-12" type="curve" smooth="yes"/>
    </contour>
    <contour>
      <point x="698" y="577"/>
      <point x="689" y="587"/>
      <point x="659" y="587" type="curve" smooth="yes"/>
      <point x="439" y="587" type="line" smooth="yes"/>
      <point x="403" y="587"/>
      <point x="390" y="585"/>
      <point x="387" y="595" type="curve"/>
      <point x="378" y="592" type="line"/>
      <point x="378" y="576"/>
      <point x="382" y="522"/>
      <point x="439" y="522" type="curve" smooth="yes"/>
      <point x="659" y="522" type="line" smooth="yes"/>
      <point x="689" y="522"/>
      <point x="698" y="539"/>
      <point x="698" y="554" type="curve" smooth="yes"/>
    </contour>
    <contour>
      <point x="368" y="-12"/>
      <point x="376" y="24"/>
      <point x="376" y="46" type="curve" smooth="yes"/>
      <point x="376" y="174"/>
      <point x="188" y="312"/>
      <point x="57" y="312" type="curve"/>
      <point x="65" y="295" type="line"/>
      <point x="222" y="370"/>
      <point x="336" y="436"/>
      <point x="336" y="515" type="curve" smooth="yes"/>
      <point x="336" y="560"/>
      <point x="307" y="587"/>
      <point x="230" y="587" type="curve" smooth="yes"/>
      <point x="0" y="587" type="line" smooth="yes"/>
      <point x="-17" y="587"/>
      <point x="-30" y="575"/>
      <point x="-30" y="554" type="curve" smooth="yes"/>
      <point x="-30" y="537"/>
      <point x="-19" y="522"/>
      <point x="0" y="522" type="curve" smooth="yes"/>
      <point x="226" y="522" type="line" smooth="yes"/>
      <point x="348" y="522"/>
      <point x="212" y="451"/>
      <point x="46" y="364" type="curve" smooth="yes"/>
      <point x="-19" y="330"/>
      <point x="0" y="265"/>
      <point x="55" y="249" type="curve" smooth="yes"/>
      <point x="104" y="235"/>
      <point x="300" y="164"/>
      <point x="300" y="64" type="curve" smooth="yes"/>
      <point x="300" y="22"/>
      <point x="313" y="-12"/>
      <point x="344" y="-12" type="curve" smooth="yes"/>
    </contour>
    <contour>
      <point x="472" y="453"/>
      <point x="385" y="458"/>
      <point x="385" y="544" type="curve"/>
      <point x="336" y="515" type="line"/>
      <point x="336" y="421"/>
      <point x="426" y="389"/>
      <point x="486" y="370" type="curve" smooth="yes"/>
      <point x="569" y="344"/>
      <point x="566" y="301"/>
      <point x="566" y="252" type="curve"/>
      <point x="584" y="252" type="line"/>
      <point x="584" y="298"/>
      <point x="541" y="318"/>
      <point x="506" y="318" type="curve" smooth="yes"/>
      <point x="453" y="318"/>
      <point x="419" y="280"/>
      <point x="419" y="233" type="curve" smooth="yes"/>
      <point x="419" y="184"/>
      <point x="469" y="149"/>
      <point x="515" y="149" type="curve" smooth="yes"/>
      <point x="632" y="149"/>
      <point x="698" y="363"/>
      <point x="532" y="429" type="curve" smooth="yes"/>
    </contour>
    <contour>
      <point x="474" y="252"/>
      <point x="487" y="269"/>
      <point x="508" y="269" type="curve" smooth="yes"/>
      <point x="525" y="269"/>
      <point x="541" y="257"/>
      <point x="541" y="236" type="curve" smooth="yes"/>
      <point x="541" y="222"/>
      <point x="534" y="202"/>
      <point x="509" y="202" type="curve" smooth="yes"/>
      <point x="484" y="202"/>
      <point x="474" y="221"/>
      <point x="474" y="235" type="curve" smooth="yes"/>
    </contour>
  </outline>
</glyph>
<glyph name="uni0996" format="1">
  <advance width="542"/>
  <unicode hex="0996"/>
  <note>
	uni0996
  </note>
  <outline>
    <contour>
      <point x="435" y="-12"/>
      <point x="454" y="0"/>
      <point x="454" y="62" type="curve" smooth="yes"/>
      <point x="454" y="182"/>
      <point x="239" y="258"/>
      <point x="163" y="259" type="curve"/>
      <point x="144" y="234" type="line"/>
      <point x="261" y="234"/>
      <point x="341" y="335"/>
      <point x="341" y="422" type="curve" smooth="yes"/>
      <point x="341" y="539"/>
      <point x="278" y="586"/>
      <point x="255" y="586" type="curve" smooth="yes"/>
      <point x="240" y="586"/>
      <point x="225" y="577"/>
      <point x="231" y="548" type="curve" smooth="yes"/>
      <point x="244" y="486"/>
      <point x="221" y="412"/>
      <point x="119" y="412" type="curve"/>
      <point x="137" y="396" type="line"/>
      <point x="172" y="419"/>
      <point x="182" y="444"/>
      <point x="182" y="470" type="curve" smooth="yes"/>
      <point x="182" y="511"/>
      <point x="149" y="553"/>
      <point x="91" y="553" type="curve" smooth="yes"/>
      <point x="36" y="553"/>
      <point x="2" y="509"/>
      <point x="2" y="464" type="curve" smooth="yes"/>
      <point x="2" y="393"/>
      <point x="57" y="347"/>
      <point x="127" y="347" type="curve" smooth="yes"/>
      <point x="191" y="347"/>
      <point x="289" y="391"/>
      <point x="289" y="489" type="curve"/>
      <point x="260" y="498" type="line"/>
      <point x="304" y="387"/>
      <point x="218" y="290"/>
      <point x="96" y="290" type="curve" smooth="yes"/>
      <point x="77" y="290"/>
      <point x="60" y="272"/>
      <point x="60" y="255" type="curve" smooth="yes"/>
      <point x="60" y="225"/>
      <point x="78" y="212"/>
      <point x="98" y="209" type="curve" smooth="yes"/>
      <point x="158" y="199"/>
      <point x="377" y="148"/>
      <point x="377" y="64" type="curve" smooth="yes"/>
      <point x="377" y="3"/>
      <point x="405" y="-12"/>
      <point x="424" y="-12" type="curve" smooth="yes"/>
    </contour>
    <contour>
      <point x="70" y="425"/>
      <point x="56" y="440"/>
      <point x="56" y="460" type="curve" smooth="yes"/>
      <point x="56" y="481"/>
      <point x="71" y="495"/>
      <point x="93" y="495" type="curve" smooth="yes"/>
      <point x="116" y="495"/>
      <point x="127" y="479"/>
      <point x="127" y="461" type="curve" smooth="yes"/>
      <point x="127" y="440"/>
      <point x="113" y="425"/>
      <point x="92" y="425" type="curve" smooth="yes"/>
    </contour>
    <contour>
      <point x="449" y="-12"/>
      <point x="455" y="17"/>
      <point x="455" y="64" type="curve" smooth="yes"/>
      <point x="455" y="414"/>
      <point x="457" y="492"/>
      <point x="465" y="583" type="curve" smooth="yes"/>
      <point x="466" y="597"/>
      <point x="461" y="609"/>
      <point x="445" y="609" type="curve" smooth="yes"/>
      <point x="379" y="609"/>
      <point x="377" y="414"/>
      <point x="377" y="64" type="curve" smooth="yes"/>
      <point x="377" y="12"/>
      <point x="396" y="-12"/>
      <point x="421" y="-12" type="curve" smooth="yes"/>
    </contour>
    <contour>
      <point x="542" y="522" type="line" smooth="yes"/>
      <point x="572" y="522"/>
      <point x="581" y="539"/>
      <point x="581" y="554" type="curve" smooth="yes"/>
      <point x="581" y="577"/>
      <point x="572" y="587"/>
      <point x="542" y="587" type="curve" smooth="yes"/>
      <point x="516" y="587" type="line" smooth="yes"/>
      <point x="480" y="587"/>
      <point x="467" y="585"/>
      <point x="464" y="595" type="curve"/>
      <point x="455" y="592" type="line"/>
      <point x="455" y="576"/>
      <point x="459" y="522"/>
      <point x="516" y="522" type="curve" smooth="yes"/>
    </contour>
  </outline>
</glyph>
<glyph name="uni0997" format="1">
  <advance width="548"/>
  <unicode hex="0997"/>
  <note>
	uni0997
  </note>
  <outline>
    <contour>
      <point x="196" y="107"/>
      <point x="318" y="186"/>
      <point x="318" y="301" type="curve" smooth="yes"/>
      <point x="318" y="354"/>
      <point x="292" y="412"/>
      <point x="229" y="412" type="curve" smooth="yes"/>
      <point x="187" y="412"/>
      <point x="166" y="387"/>
      <point x="133" y="387" type="curve" smooth="yes"/>
      <point x="102" y="387"/>
      <point x="89" y="411"/>
      <point x="89" y="432" type="curve" smooth="yes"/>
      <point x="89" y="465"/>
      <point x="122" y="515"/>
      <point x="214" y="515" type="curve" smooth="yes"/>
      <point x="335" y="515"/>
      <point x="384" y="427"/>
      <point x="384" y="260" type="curve"/>
      <point x="438" y="362" type="line"/>
      <point x="438" y="512"/>
      <point x="331" y="593"/>
      <point x="206" y="593" type="curve" smooth="yes"/>
      <point x="80" y="593"/>
      <point x="12" y="510"/>
      <point x="12" y="431" type="curve" smooth="yes"/>
      <point x="12" y="375"/>
      <point x="46" y="315"/>
      <point x="116" y="315" type="curve" smooth="yes"/>
      <point x="161" y="315"/>
      <point x="184" y="340"/>
      <point x="213" y="340" type="curve" smooth="yes"/>
      <point x="243" y="340"/>
      <point x="251" y="313"/>
      <point x="251" y="297" type="curve" smooth="yes"/>
      <point x="251" y="244"/>
      <point x="170" y="190"/>
      <point x="132" y="165" type="curve" smooth="yes"/>
      <point x="99" y="143"/>
      <point x="95" y="122"/>
      <point x="104" y="105" type="curve" smooth="yes"/>
      <point x="114" y="87"/>
      <point x="132" y="85"/>
      <point x="152" y="92" type="curve" smooth="yes"/>
    </contour>
    <contour>
      <point x="455" y="-12"/>
      <point x="461" y="17"/>
      <point x="461" y="64" type="curve" smooth="yes"/>
      <point x="461" y="414"/>
      <point x="463" y="492"/>
      <point x="471" y="583" type="curve" smooth="yes"/>
      <point x="472" y="597"/>
      <point x="467" y="609"/>
      <point x="451" y="609" type="curve" smooth="yes"/>
      <point x="385" y="609"/>
      <point x="383" y="414"/>
      <point x="383" y="64" type="curve" smooth="yes"/>
      <point x="383" y="12"/>
      <point x="402" y="-12"/>
      <point x="427" y="-12" type="curve" smooth="yes"/>
    </contour>
    <contour>
      <point x="587" y="577"/>
      <point x="578" y="587"/>
      <point x="548" y="587" type="curve" smooth="yes"/>
      <point x="522" y="587" type="line" smooth="yes"/>
      <point x="486" y="587"/>
      <point x="473" y="585"/>
      <point x="470" y="595" type="curve"/>
      <point x="461" y="592" type="line"/>
      <point x="461" y="576"/>
      <point x="465" y="522"/>
      <point x="522" y="522" type="curve" smooth="yes"/>
      <point x="548" y="522" type="line" smooth="yes"/>
      <point x="578" y="522"/>
      <point x="587" y="539"/>
      <point x="587" y="554" type="curve" smooth="yes"/>
    </contour>
  </outline>
</glyph>
<glyph name="uni0998" format="1">
  <advance width="524"/>
  <unicode hex="0998"/>
  <note>
	uni0998
  </note>
  <outline>
    <contour>
      <point x="417" y="-12"/>
      <point x="436" y="-3"/>
      <point x="436" y="56" type="curve" smooth="yes"/>
      <point x="436" y="181"/>
      <point x="211" y="255"/>
      <point x="125" y="261" type="curve"/>
      <point x="135" y="229" type="line"/>
      <point x="262" y="313" type="line" smooth="yes"/>
      <point x="291" y="333"/>
      <point x="305" y="349"/>
      <point x="305" y="370" type="curve" smooth="yes"/>
      <point x="305" y="396"/>
      <point x="293" y="406"/>
      <point x="276" y="406" type="curve" smooth="yes"/>
      <point x="262" y="406"/>
      <point x="242" y="397"/>
      <point x="207" y="397" type="curve" smooth="yes"/>
      <point x="187" y="397"/>
      <point x="122" y="406"/>
      <point x="122" y="456" type="curve" smooth="yes"/>
      <point x="122" y="492"/>
      <point x="150" y="523"/>
      <point x="189" y="523" type="curve"/>
      <point x="150" y="572" type="line"/>
      <point x="99" y="572"/>
      <point x="45" y="522"/>
      <point x="45" y="450" type="curve" smooth="yes"/>
      <point x="45" y="366"/>
      <point x="146" y="336"/>
      <point x="199" y="336" type="curve"/>
      <point x="211" y="365" type="line"/>
      <point x="65" y="271" type="line" smooth="yes"/>
      <point x="55" y="264"/>
      <point x="46" y="251"/>
      <point x="46" y="237" type="curve" smooth="yes"/>
      <point x="46" y="220"/>
      <point x="58" y="202"/>
      <point x="77" y="200" type="curve" smooth="yes"/>
      <point x="164" y="191"/>
      <point x="359" y="129"/>
      <point x="359" y="59" type="curve" smooth="yes"/>
      <point x="359" y="0"/>
      <point x="393" y="-12"/>
      <point x="405" y="-12" type="curve" smooth="yes"/>
    </contour>
    <contour>
      <point x="431" y="-12"/>
      <point x="437" y="17"/>
      <point x="437" y="64" type="curve" smooth="yes"/>
      <point x="437" y="414"/>
      <point x="439" y="492"/>
      <point x="447" y="583" type="curve" smooth="yes"/>
      <point x="448" y="597"/>
      <point x="443" y="609"/>
      <point x="427" y="609" type="curve" smooth="yes"/>
      <point x="361" y="609"/>
      <point x="359" y="414"/>
      <point x="359" y="64" type="curve" smooth="yes"/>
      <point x="359" y="12"/>
      <point x="378" y="-12"/>
      <point x="403" y="-12" type="curve" smooth="yes"/>
    </contour>
    <contour>
      <point x="563" y="577"/>
      <point x="554" y="587"/>
      <point x="524" y="587" type="curve" smooth="yes"/>
      <point x="498" y="587" type="line" smooth="yes"/>
      <point x="462" y="587"/>
      <point x="449" y="585"/>
      <point x="446" y="595" type="curve"/>
      <point x="437" y="592" type="line"/>
      <point x="437" y="576"/>
      <point x="441" y="522"/>
      <point x="498" y="522" type="curve" smooth="yes"/>
      <point x="524" y="522" type="line" smooth="yes"/>
      <point x="554" y="522"/>
      <point x="563" y="539"/>
      <point x="563" y="554" type="curve" smooth="yes"/>
    </contour>
    <contour>
      <point x="394" y="504" type="line"/>
      <point x="382" y="550"/>
      <point x="351" y="587"/>
      <point x="279" y="587" type="curve" smooth="yes"/>
      <point x="0" y="587" type="line" smooth="yes"/>
      <point x="-18" y="587"/>
      <point x="-35" y="582"/>
      <point x="-35" y="554" type="curve" smooth="yes"/>
      <point x="-35" y="532"/>
      <point x="-18" y="522"/>
      <point x="0" y="522" type="curve" smooth="yes"/>
      <point x="285" y="522" type="line" smooth="yes"/>
      <point x="349" y="522"/>
      <point x="370" y="479"/>
      <point x="366" y="438" type="curve"/>
    </contour>
  </outline>
</glyph>
<glyph name="uni0999" format="1">
  <advance width="555"/>
  <unicode hex="0999"/>
  <note>
	uni0999
  </note>
  <outline>
    <contour>
      <point x="431" y="22"/>
      <point x="530" y="93"/>
      <point x="530" y="219" type="curve" smooth="yes"/>
      <point x="530" y="310"/>
      <point x="483" y="380"/>
      <point x="446" y="380" type="curve" smooth="yes"/>
      <point x="395" y="380"/>
      <point x="416" y="266"/>
      <point x="345" y="266" type="curve" smooth="yes"/>
      <point x="302" y="266"/>
      <point x="272" y="308"/>
      <point x="272" y="370" type="curve" smooth="yes"/>
      <point x="272" y="462"/>
      <point x="325" y="538"/>
      <point x="365" y="538" type="curve" smooth="yes"/>
      <point x="374" y="538"/>
      <point x="399" y="534"/>
      <point x="399" y="511" type="curve" smooth="yes"/>
      <point x="399" y="481"/>
      <point x="359" y="465"/>
      <point x="321" y="465" type="curve" smooth="yes"/>
      <point x="216" y="465"/>
      <point x="208" y="587"/>
      <point x="62" y="587" type="curve" smooth="yes"/>
      <point x="0" y="587" type="line" smooth="yes"/>
      <point x="-8" y="587"/>
      <point x="-28" y="580"/>
      <point x="-28" y="554" type="curve" smooth="yes"/>
      <point x="-28" y="529"/>
      <point x="-8" y="522"/>
      <point x="0" y="522" type="curve" smooth="yes"/>
      <point x="62" y="522" type="line" smooth="yes"/>
      <point x="137" y="522"/>
      <point x="193" y="400"/>
      <point x="318" y="400" type="curve" smooth="yes"/>
      <point x="410" y="400"/>
      <point x="463" y="445"/>
      <point x="463" y="514" type="curve" smooth="yes"/>
      <point x="463" y="574"/>
      <point x="409" y="595"/>
      <point x="369" y="595" type="curve" smooth="yes"/>
      <point x="264" y="595"/>
      <point x="202" y="467"/>
      <point x="202" y="373" type="curve" smooth="yes"/>
      <point x="202" y="291"/>
      <point x="249" y="196"/>
      <point x="332" y="196" type="curve" smooth="yes"/>
      <point x="435" y="196"/>
      <point x="467" y="299"/>
      <point x="467" y="321" type="curve"/>
      <point x="430" y="332" type="line"/>
      <point x="439" y="321"/>
      <point x="464" y="273"/>
      <point x="464" y="224" type="curve" smooth="yes"/>
      <point x="464" y="139"/>
      <point x="389" y="98"/>
      <point x="314" y="98" type="curve" smooth="yes"/>
      <point x="138" y="98"/>
      <point x="101" y="321"/>
      <point x="89" y="407" type="curve" smooth="yes"/>
      <point x="87" y="423"/>
      <point x="83" y="451"/>
      <point x="55" y="451" type="curve" smooth="yes"/>
      <point x="27" y="451"/>
      <point x="23" y="421"/>
      <point x="23" y="394" type="curve" smooth="yes"/>
      <point x="23" y="273"/>
      <point x="105" y="22"/>
      <point x="318" y="22" type="curve" smooth="yes"/>
    </contour>
  </outline>
</glyph>
<glyph name="uni099A" format="1">
  <advance width="488"/>
  <unicode hex="099A"/>
  <note>
	uni099A
  </note>
  <outline>
    <contour>
      <point x="318" y="-12"/>
      <point x="449" y="211"/>
      <point x="449" y="293" type="curve" smooth="yes"/>
      <point x="449" y="339"/>
      <point x="422" y="365"/>
      <point x="365" y="370" type="curve" smooth="yes"/>
      <point x="251" y="380"/>
      <point x="169" y="420"/>
      <point x="169" y="476" type="curve" smooth="yes"/>
      <point x="169" y="515"/>
      <point x="196" y="522"/>
      <point x="220" y="522" type="curve" smooth="yes"/>
      <point x="488" y="522" type="line" smooth="yes"/>
      <point x="497" y="522"/>
      <point x="513" y="529"/>
      <point x="513" y="554" type="curve" smooth="yes"/>
      <point x="513" y="580"/>
      <point x="496" y="587"/>
      <point x="488" y="587" type="curve" smooth="yes"/>
      <point x="189" y="587" type="line" smooth="yes"/>
      <point x="141" y="587"/>
      <point x="109" y="554"/>
      <point x="109" y="525" type="curve"/>
      <point x="127" y="525" type="line"/>
      <point x="127" y="554"/>
      <point x="90" y="587"/>
      <point x="38" y="587" type="curve" smooth="yes"/>
      <point x="0" y="587" type="line" smooth="yes"/>
      <point x="-14" y="587"/>
      <point x="-33" y="582"/>
      <point x="-33" y="555" type="curve" smooth="yes"/>
      <point x="-33" y="527"/>
      <point x="-14" y="522"/>
      <point x="0" y="522" type="curve" smooth="yes"/>
      <point x="36" y="522" type="line" smooth="yes"/>
      <point x="91" y="522"/>
      <point x="97" y="474"/>
      <point x="93" y="297" type="curve" smooth="yes"/>
      <point x="88" y="103"/>
      <point x="76" y="-12"/>
      <point x="189" y="-12" type="curve" smooth="yes"/>
    </contour>
    <contour>
      <point x="159" y="63"/>
      <point x="168" y="126"/>
      <point x="168" y="248" type="curve" smooth="yes"/>
      <point x="168" y="288"/>
      <point x="167" y="315"/>
      <point x="166" y="386" type="curve"/>
      <point x="143" y="368" type="line"/>
      <point x="199" y="307"/>
      <point x="310" y="307"/>
      <point x="342" y="296" type="curve" smooth="yes"/>
      <point x="372" y="286"/>
      <point x="372" y="248"/>
      <point x="322" y="177" type="curve" smooth="yes"/>
      <point x="284" y="123"/>
      <point x="235" y="63"/>
      <point x="198" y="63" type="curve" smooth="yes"/>
    </contour>
  </outline>
</glyph>
<glyph name="uni099B" format="1">
  <advance width="528"/>
  <unicode hex="099B"/>
  <note>
	uni099B
  </note>
  <outline>
    <contour>
      <point x="515" y="-87"/>
      <point x="533" y="-77"/>
      <point x="533" y="-54" type="curve" smooth="yes"/>
      <point x="533" y="-22"/>
      <point x="508" y="-12"/>
      <point x="482" y="-12" type="curve" smooth="yes"/>
      <point x="407" y="-12"/>
      <point x="321" y="160"/>
      <point x="213" y="160" type="curve" smooth="yes"/>
      <point x="172" y="160"/>
      <point x="124" y="137"/>
      <point x="124" y="91" type="curve" smooth="yes"/>
      <point x="124" y="41"/>
      <point x="179" y="16"/>
      <point x="229" y="16" type="curve" smooth="yes"/>
      <point x="327" y="16"/>
      <point x="480" y="108"/>
      <point x="480" y="262" type="curve" smooth="yes"/>
      <point x="480" y="352"/>
      <point x="425" y="451"/>
      <point x="292" y="451" type="curve" smooth="yes"/>
      <point x="257" y="451"/>
      <point x="181" y="453"/>
      <point x="181" y="491" type="curve" smooth="yes"/>
      <point x="181" y="516"/>
      <point x="198" y="522"/>
      <point x="228" y="522" type="curve" smooth="yes"/>
      <point x="528" y="522" type="line" smooth="yes"/>
      <point x="537" y="522"/>
      <point x="554" y="529"/>
      <point x="554" y="554" type="curve" smooth="yes"/>
      <point x="554" y="580"/>
      <point x="536" y="587"/>
      <point x="528" y="587" type="curve" smooth="yes"/>
      <point x="206" y="587" type="line" smooth="yes"/>
      <point x="157" y="587"/>
      <point x="132" y="569"/>
      <point x="132" y="532" type="curve"/>
      <point x="139" y="532" type="line"/>
      <point x="139" y="569"/>
      <point x="107" y="587"/>
      <point x="54" y="587" type="curve" smooth="yes"/>
      <point x="0" y="587" type="line" smooth="yes"/>
      <point x="-12" y="587"/>
      <point x="-28" y="579"/>
      <point x="-28" y="554" type="curve" smooth="yes"/>
      <point x="-28" y="529"/>
      <point x="-12" y="522"/>
      <point x="0" y="522" type="curve" smooth="yes"/>
      <point x="36" y="522" type="line" smooth="yes"/>
      <point x="98" y="522"/>
      <point x="102" y="510"/>
      <point x="102" y="453" type="curve" smooth="yes"/>
      <point x="102" y="412"/>
      <point x="100" y="350"/>
      <point x="100" y="323" type="curve" smooth="yes"/>
      <point x="100" y="230"/>
      <point x="119" y="184"/>
      <point x="198" y="184" type="curve" smooth="yes"/>
      <point x="304" y="184"/>
      <point x="379" y="287"/>
      <point x="379" y="362" type="curve" smooth="yes"/>
      <point x="379" y="374"/>
      <point x="377" y="384"/>
      <point x="373" y="394" type="curve"/>
      <point x="302" y="382" type="line"/>
      <point x="344" y="382"/>
      <point x="405" y="333"/>
      <point x="405" y="251" type="curve" smooth="yes"/>
      <point x="405" y="160"/>
      <point x="282" y="76"/>
      <point x="226" y="76" type="curve" smooth="yes"/>
      <point x="204" y="76"/>
      <point x="195" y="84"/>
      <point x="195" y="90" type="curve" smooth="yes"/>
      <point x="195" y="95"/>
      <point x="200" y="98"/>
      <point x="208" y="98" type="curve" smooth="yes"/>
      <point x="271" y="98"/>
      <point x="378" y="-87"/>
      <point x="486" y="-87" type="curve" smooth="yes"/>
    </contour>
    <contour>
      <point x="173" y="248"/>
      <point x="177" y="283"/>
      <point x="177" y="356" type="curve" smooth="yes"/>
      <point x="177" y="377"/>
      <point x="177" y="403"/>
      <point x="177" y="432" type="curve"/>
      <point x="146" y="440" type="line"/>
      <point x="146" y="418"/>
      <point x="188" y="392"/>
      <point x="235" y="392" type="curve" smooth="yes"/>
      <point x="279" y="392"/>
      <point x="302" y="371"/>
      <point x="302" y="344" type="curve" smooth="yes"/>
      <point x="302" y="297"/>
      <point x="247" y="248"/>
      <point x="206" y="248" type="curve" smooth="yes"/>
    </contour>
  </outline>
</glyph>
<glyph name="uni099C" format="1">
  <advance width="645"/>
  <unicode hex="099C"/>
  <note>
	uni099C
  </note>
  <outline>
    <contour>
      <point x="591" y="20"/>
      <point x="603" y="44"/>
      <point x="603" y="81" type="curve" smooth="yes"/>
      <point x="603" y="157"/>
      <point x="581" y="216"/>
      <point x="581" y="279" type="curve" smooth="yes"/>
      <point x="581" y="365"/>
      <point x="628" y="408"/>
      <point x="628" y="439" type="curve" smooth="yes"/>
      <point x="628" y="454"/>
      <point x="620" y="474"/>
      <point x="587" y="474" type="curve" smooth="yes"/>
      <point x="544" y="474"/>
      <point x="529" y="432"/>
      <point x="454" y="432" type="curve" smooth="yes"/>
      <point x="396" y="432"/>
      <point x="343" y="463"/>
      <point x="342" y="535" type="curve"/>
      <point x="324" y="522" type="line"/>
      <point x="392" y="522"/>
      <point x="602" y="522"/>
      <point x="645" y="522" type="curve" smooth="yes"/>
      <point x="654" y="522"/>
      <point x="669" y="529"/>
      <point x="669" y="556" type="curve" smooth="yes"/>
      <point x="669" y="580"/>
      <point x="653" y="587"/>
      <point x="645" y="587" type="curve" smooth="yes"/>
      <point x="348" y="587" type="line" smooth="yes"/>
      <point x="289" y="587"/>
      <point x="246" y="547"/>
      <point x="235" y="520" type="curve"/>
      <point x="260" y="532" type="line"/>
      <point x="260" y="559"/>
      <point x="212" y="587"/>
      <point x="154" y="587" type="curve" smooth="yes"/>
      <point x="0" y="587" type="line" smooth="yes"/>
      <point x="-8" y="587"/>
      <point x="-25" y="581"/>
      <point x="-25" y="555" type="curve" smooth="yes"/>
      <point x="-25" y="529"/>
      <point x="-8" y="522"/>
      <point x="0" y="522" type="curve" smooth="yes"/>
      <point x="139" y="523" type="line" smooth="yes"/>
      <point x="174" y="523"/>
      <point x="202" y="526"/>
      <point x="202" y="501" type="curve" smooth="yes"/>
      <point x="202" y="476"/>
      <point x="158" y="447"/>
      <point x="158" y="371" type="curve" smooth="yes"/>
      <point x="158" y="307"/>
      <point x="194" y="199"/>
      <point x="307" y="199" type="curve" smooth="yes"/>
      <point x="365" y="199"/>
      <point x="407" y="242"/>
      <point x="420" y="285" type="curve"/>
      <point x="379" y="285" type="line"/>
      <point x="389" y="271"/>
      <point x="417" y="242"/>
      <point x="417" y="196" type="curve" smooth="yes"/>
      <point x="417" y="140"/>
      <point x="363" y="100"/>
      <point x="300" y="100" type="curve" smooth="yes"/>
      <point x="171" y="100"/>
      <point x="86" y="244"/>
      <point x="77" y="426" type="curve" smooth="yes"/>
      <point x="75" y="458"/>
      <point x="59" y="466"/>
      <point x="44" y="466" type="curve" smooth="yes"/>
      <point x="25" y="466"/>
      <point x="13" y="450"/>
      <point x="13" y="422" type="curve" smooth="yes"/>
      <point x="13" y="262"/>
      <point x="109" y="34"/>
      <point x="298" y="34" type="curve" smooth="yes"/>
      <point x="420" y="34"/>
      <point x="487" y="128"/>
      <point x="487" y="196" type="curve" smooth="yes"/>
      <point x="487" y="290"/>
      <point x="435" y="338"/>
      <point x="396" y="338" type="curve" smooth="yes"/>
      <point x="362" y="338"/>
      <point x="370" y="268"/>
      <point x="307" y="268" type="curve" smooth="yes"/>
      <point x="263" y="268"/>
      <point x="232" y="305"/>
      <point x="232" y="365" type="curve" smooth="yes"/>
      <point x="232" y="445"/>
      <point x="292" y="510"/>
      <point x="340" y="535" type="curve"/>
      <point x="271" y="529" type="line"/>
      <point x="271" y="432"/>
      <point x="353" y="366"/>
      <point x="451" y="366" type="curve" smooth="yes"/>
      <point x="519" y="366"/>
      <point x="562" y="386"/>
      <point x="583" y="404" type="curve"/>
      <point x="556" y="419" type="line"/>
      <point x="487" y="325"/>
      <point x="525" y="187"/>
      <point x="525" y="96" type="curve" smooth="yes"/>
      <point x="525" y="44"/>
      <point x="550" y="20"/>
      <point x="566" y="20" type="curve" smooth="yes"/>
    </contour>
    <contour>
      <point x="222" y="365" type="move"/>
    </contour>
  </outline>
</glyph>
<glyph name="uni099D" format="1">
  <advance width="655"/>
  <unicode hex="099D"/>
  <note>
	uni099D
  </note>
  <outline>
    <contour>
      <point x="425" y="-12"/>
      <point x="431" y="17"/>
      <point x="431" y="64" type="curve" smooth="yes"/>
      <point x="431" y="414"/>
      <point x="433" y="492"/>
      <point x="441" y="583" type="curve" smooth="yes"/>
      <point x="442" y="597"/>
      <point x="437" y="609"/>
      <point x="421" y="609" type="curve" smooth="yes"/>
      <point x="355" y="609"/>
      <point x="353" y="414"/>
      <point x="353" y="64" type="curve" smooth="yes"/>
      <point x="353" y="12"/>
      <point x="372" y="-12"/>
      <point x="397" y="-12" type="curve" smooth="yes"/>
    </contour>
    <contour>
      <point x="421" y="-12"/>
      <point x="429" y="24"/>
      <point x="429" y="46" type="curve" smooth="yes"/>
      <point x="429" y="183"/>
      <point x="222" y="307"/>
      <point x="91" y="307" type="curve"/>
      <point x="99" y="290" type="line"/>
      <point x="244" y="370"/>
      <point x="389" y="428"/>
      <point x="389" y="515" type="curve" smooth="yes"/>
      <point x="389" y="560"/>
      <point x="360" y="587"/>
      <point x="283" y="587" type="curve" smooth="yes"/>
      <point x="0" y="587" type="line" smooth="yes"/>
      <point x="-17" y="587"/>
      <point x="-30" y="575"/>
      <point x="-30" y="554" type="curve" smooth="yes"/>
      <point x="-30" y="537"/>
      <point x="-19" y="522"/>
      <point x="0" y="522" type="curve" smooth="yes"/>
      <point x="279" y="522" type="line" smooth="yes"/>
      <point x="401" y="522"/>
      <point x="234" y="451"/>
      <point x="70" y="358" type="curve" smooth="yes"/>
      <point x="7" y="323"/>
      <point x="31" y="258"/>
      <point x="97" y="239" type="curve" smooth="yes"/>
      <point x="143" y="226"/>
      <point x="353" y="164"/>
      <point x="353" y="64" type="curve" smooth="yes"/>
      <point x="353" y="22"/>
      <point x="366" y="-12"/>
      <point x="397" y="-12" type="curve" smooth="yes"/>
    </contour>
    <contour>
      <point x="406" y="234" type="line"/>
      <point x="406" y="196"/>
      <point x="510" y="159"/>
      <point x="510" y="109" type="curve"/>
      <point x="574" y="109" type="line"/>
      <point x="574" y="203"/>
      <point x="432" y="250"/>
      <point x="432" y="312" type="curve"/>
    </contour>
    <contour>
      <point x="582" y="33"/>
      <point x="588" y="62"/>
      <point x="588" y="109" type="curve" smooth="yes"/>
      <point x="588" y="414"/>
      <point x="590" y="492"/>
      <point x="598" y="583" type="curve" smooth="yes"/>
      <point x="599" y="597"/>
      <point x="594" y="609"/>
      <point x="578" y="609" type="curve" smooth="yes"/>
      <point x="512" y="609"/>
      <point x="510" y="414"/>
      <point x="510" y="109" type="curve" smooth="yes"/>
      <point x="510" y="57"/>
      <point x="529" y="33"/>
      <point x="554" y="33" type="curve" smooth="yes"/>
    </contour>
    <contour>
      <point x="694" y="577"/>
      <point x="685" y="587"/>
      <point x="655" y="587" type="curve" smooth="yes"/>
      <point x="641" y="587" type="line" smooth="yes"/>
      <point x="613" y="587"/>
      <point x="600" y="585"/>
      <point x="597" y="595" type="curve"/>
      <point x="588" y="592" type="line"/>
      <point x="588" y="576"/>
      <point x="592" y="522"/>
      <point x="641" y="522" type="curve" smooth="yes"/>
      <point x="655" y="522" type="line" smooth="yes"/>
      <point x="685" y="522"/>
      <point x="694" y="539"/>
      <point x="694" y="554" type="curve" smooth="yes"/>
    </contour>
  </outline>
</glyph>
<glyph name="uni099E" format="1">
  <advance width="784"/>
  <unicode hex="099E"/>
  <note>
	uni099E
  </note>
  <outline>
    <contour>
      <point x="714" y="104"/>
      <point x="777" y="151"/>
      <point x="777" y="228" type="curve" smooth="yes"/>
      <point x="777" y="307"/>
      <point x="704" y="371"/>
      <point x="651" y="371" type="curve" smooth="yes"/>
      <point x="621" y="371"/>
      <point x="581" y="349"/>
      <point x="581" y="305" type="curve" smooth="yes"/>
      <point x="581" y="261"/>
      <point x="620" y="243"/>
      <point x="648" y="243" type="curve" smooth="yes"/>
      <point x="704" y="243"/>
      <point x="774" y="323"/>
      <point x="774" y="397" type="curve" smooth="yes"/>
      <point x="774" y="456"/>
      <point x="735" y="525"/>
      <point x="642" y="525" type="curve" smooth="yes"/>
      <point x="523" y="525"/>
      <point x="454" y="394"/>
      <point x="454" y="335" type="curve"/>
      <point x="505" y="312" type="line"/>
      <point x="505" y="377"/>
      <point x="581" y="456"/>
      <point x="639" y="456" type="curve" smooth="yes"/>
      <point x="680" y="456"/>
      <point x="705" y="433"/>
      <point x="705" y="393" type="curve" smooth="yes"/>
      <point x="705" y="338"/>
      <point x="663" y="296"/>
      <point x="645" y="296" type="curve" smooth="yes"/>
      <point x="633" y="296"/>
      <point x="627" y="303"/>
      <point x="627" y="309" type="curve" smooth="yes"/>
      <point x="627" y="316"/>
      <point x="634" y="322"/>
      <point x="646" y="322" type="curve" smooth="yes"/>
      <point x="662" y="322"/>
      <point x="710" y="291"/>
      <point x="710" y="236" type="curve" smooth="yes"/>
      <point x="710" y="202"/>
      <point x="680" y="169"/>
      <point x="635" y="169" type="curve" smooth="yes"/>
      <point x="581" y="169"/>
      <point x="505" y="210"/>
      <point x="505" y="300" type="curve"/>
      <point x="455" y="284" type="line"/>
      <point x="455" y="169"/>
      <point x="567" y="104"/>
      <point x="642" y="104" type="curve" smooth="yes"/>
    </contour>
    <contour>
      <point x="493" y="-12"/>
      <point x="502" y="6"/>
      <point x="502" y="42" type="curve" smooth="yes"/>
      <point x="507" y="468" type="line" smooth="yes"/>
      <point x="508" y="546"/>
      <point x="493" y="595"/>
      <point x="410" y="595" type="curve" smooth="yes"/>
      <point x="290" y="595"/>
      <point x="142" y="447"/>
      <point x="142" y="322" type="curve" smooth="yes"/>
      <point x="142" y="262"/>
      <point x="178" y="213"/>
      <point x="242" y="213" type="curve" smooth="yes"/>
      <point x="305" y="213"/>
      <point x="338" y="262"/>
      <point x="338" y="306" type="curve" smooth="yes"/>
      <point x="338" y="345"/>
      <point x="314" y="396"/>
      <point x="245" y="396" type="curve" smooth="yes"/>
      <point x="226" y="396"/>
      <point x="205" y="386"/>
      <point x="190" y="369" type="curve"/>
      <point x="221" y="365" type="line"/>
      <point x="250" y="455"/>
      <point x="342" y="521"/>
      <point x="394" y="521" type="curve" smooth="yes"/>
      <point x="426" y="521"/>
      <point x="427" y="500"/>
      <point x="428" y="433" type="curve" smooth="yes"/>
      <point x="428" y="421"/>
      <point x="427" y="114"/>
      <point x="427" y="97" type="curve"/>
      <point x="449" y="110" type="line"/>
      <point x="423" y="138"/>
      <point x="384" y="160"/>
      <point x="344" y="160" type="curve" smooth="yes"/>
      <point x="280" y="160"/>
      <point x="248" y="122"/>
      <point x="186" y="122" type="curve" smooth="yes"/>
      <point x="121" y="122"/>
      <point x="65" y="152"/>
      <point x="65" y="232" type="curve" smooth="yes"/>
      <point x="65" y="293"/>
      <point x="90" y="312"/>
      <point x="90" y="345" type="curve" smooth="yes"/>
      <point x="90" y="375"/>
      <point x="72" y="380"/>
      <point x="59" y="380" type="curve" smooth="yes"/>
      <point x="21" y="380"/>
      <point x="-7" y="300"/>
      <point x="-7" y="243" type="curve" smooth="yes"/>
      <point x="-7" y="139"/>
      <point x="53" y="50"/>
      <point x="176" y="50" type="curve" smooth="yes"/>
      <point x="242" y="50"/>
      <point x="282" y="87"/>
      <point x="344" y="87" type="curve" smooth="yes"/>
      <point x="384" y="87"/>
      <point x="427" y="78"/>
      <point x="427" y="38" type="curve" smooth="yes"/>
      <point x="427" y="6"/>
      <point x="447" y="-12"/>
      <point x="466" y="-12" type="curve" smooth="yes"/>
    </contour>
    <contour>
      <point x="226" y="271"/>
      <point x="207" y="284"/>
      <point x="207" y="308" type="curve" smooth="yes"/>
      <point x="207" y="329"/>
      <point x="224" y="345"/>
      <point x="245" y="345" type="curve" smooth="yes"/>
      <point x="268" y="345"/>
      <point x="282" y="329"/>
      <point x="282" y="308" type="curve" smooth="yes"/>
      <point x="282" y="284"/>
      <point x="265" y="271"/>
      <point x="246" y="271" type="curve" smooth="yes"/>
    </contour>
  </outline>
</glyph>
<glyph name="uni099F" format="1">
  <advance width="488"/>
  <unicode hex="099F"/>
  <note>
	uni099F
  </note>
  <outline>
    <contour>
      <point x="445" y="544" type="line"/>
      <point x="445" y="700"/>
      <point x="383" y="740"/>
      <point x="297" y="740" type="curve" smooth="yes"/>
      <point x="239" y="740"/>
      <point x="175" y="705"/>
      <point x="122" y="705" type="curve" smooth="yes"/>
      <point x="43" y="705"/>
      <point x="38" y="756"/>
      <point x="38" y="790" type="curve" smooth="yes"/>
      <point x="38" y="840"/>
      <point x="-22" y="833"/>
      <point x="-22" y="795" type="curve" smooth="yes"/>
      <point x="-22" y="700"/>
      <point x="44" y="645"/>
      <point x="130" y="645" type="curve" smooth="yes"/>
      <point x="192" y="645"/>
      <point x="250" y="679"/>
      <point x="307" y="679" type="curve" smooth="yes"/>
      <point x="377" y="679"/>
      <point x="369" y="609"/>
      <point x="369" y="544" type="curve"/>
    </contour>
    <contour>
      <point x="312" y="-12"/>
      <point x="440" y="181"/>
      <point x="440" y="318" type="curve" smooth="yes"/>
      <point x="440" y="374"/>
      <point x="412" y="432"/>
      <point x="339" y="432" type="curve" smooth="yes"/>
      <point x="276" y="432"/>
      <point x="237" y="390"/>
      <point x="237" y="338" type="curve" smooth="yes"/>
      <point x="237" y="286"/>
      <point x="278" y="243"/>
      <point x="331" y="243" type="curve" smooth="yes"/>
      <point x="367" y="243"/>
      <point x="395" y="262"/>
      <point x="403" y="282" type="curve"/>
      <point x="373" y="308" type="line"/>
      <point x="375" y="213"/>
      <point x="251" y="58"/>
      <point x="199" y="58" type="curve" smooth="yes"/>
      <point x="135" y="58"/>
      <point x="153" y="137"/>
      <point x="153" y="286" type="curve" smooth="yes"/>
      <point x="153" y="364"/>
      <point x="152" y="403"/>
      <point x="152" y="465" type="curve" smooth="yes"/>
      <point x="152" y="521"/>
      <point x="176" y="522"/>
      <point x="201" y="522" type="curve" smooth="yes"/>
      <point x="488" y="522" type="line" smooth="yes"/>
      <point x="498" y="522"/>
      <point x="518" y="528"/>
      <point x="518" y="554" type="curve" smooth="yes"/>
      <point x="518" y="581"/>
      <point x="498" y="587"/>
      <point x="488" y="587" type="curve" smooth="yes"/>
      <point x="165" y="587" type="line" smooth="yes"/>
      <point x="131" y="587"/>
      <point x="90" y="567"/>
      <point x="90" y="539" type="curve"/>
      <point x="97" y="539" type="line"/>
      <point x="97" y="567"/>
      <point x="61" y="587"/>
      <point x="25" y="587" type="curve" smooth="yes"/>
      <point x="0" y="587" type="line" smooth="yes"/>
      <point x="-12" y="587"/>
      <point x="-36" y="582"/>
      <point x="-36" y="554" type="curve" smooth="yes"/>
      <point x="-36" y="528"/>
      <point x="-12" y="522"/>
      <point x="0" y="522" type="curve" smooth="yes"/>
      <point x="25" y="522" type="line" smooth="yes"/>
      <point x="71" y="522"/>
      <point x="74" y="501"/>
      <point x="74" y="454" type="curve" smooth="yes"/>
      <point x="74" y="375"/>
      <point x="77" y="307"/>
      <point x="77" y="214" type="curve" smooth="yes"/>
      <point x="77" y="83"/>
      <point x="74" y="-12"/>
      <point x="185" y="-12" type="curve" smooth="yes"/>
    </contour>
    <contour>
      <point x="314" y="302"/>
      <point x="297" y="318"/>
      <point x="297" y="338" type="curve" smooth="yes"/>
      <point x="297" y="360"/>
      <point x="312" y="376"/>
      <point x="333" y="376" type="curve" smooth="yes"/>
      <point x="359" y="376"/>
      <point x="373" y="356"/>
      <point x="373" y="337" type="curve" smooth="yes"/>
      <point x="373" y="319"/>
      <point x="361" y="302"/>
      <point x="336" y="302" type="curve" smooth="yes"/>
    </contour>
  </outline>
</glyph>
<glyph name="uni09A0" format="1">
  <advance width="420"/>
  <unicode hex="09A0"/>
  <note>
	uni09A0
  </note>
  <outline>
    <contour>
      <point x="341" y="-12"/>
      <point x="394" y="108"/>
      <point x="394" y="210" type="curve" smooth="yes"/>
      <point x="394" y="359"/>
      <point x="281" y="478"/>
      <point x="217" y="551" type="curve"/>
      <point x="187" y="539" type="line"/>
      <point x="203" y="528"/>
      <point x="222" y="522"/>
      <point x="248" y="522" type="curve" smooth="yes"/>
      <point x="420" y="522" type="line" smooth="yes"/>
      <point x="434" y="522"/>
      <point x="453" y="528"/>
      <point x="453" y="556" type="curve" smooth="yes"/>
      <point x="453" y="584"/>
      <point x="433" y="587"/>
      <point x="420" y="587" type="curve" smooth="yes"/>
      <point x="222" y="587" type="line" smooth="yes"/>
      <point x="173" y="587"/>
      <point x="148" y="644"/>
      <point x="148" y="692" type="curve" smooth="yes"/>
      <point x="148" y="795"/>
      <point x="262" y="824"/>
      <point x="262" y="864" type="curve" smooth="yes"/>
      <point x="262" y="869"/>
      <point x="260" y="884"/>
      <point x="243" y="884" type="curve" smooth="yes"/>
      <point x="208" y="884"/>
      <point x="81" y="819"/>
      <point x="81" y="698" type="curve" smooth="yes"/>
      <point x="81" y="638"/>
      <point x="112" y="559"/>
      <point x="153" y="537" type="curve"/>
      <point x="150" y="555" type="line"/>
      <point x="129" y="568"/>
      <point x="91" y="587"/>
      <point x="54" y="587" type="curve" smooth="yes"/>
      <point x="0" y="587" type="line" smooth="yes"/>
      <point x="-14" y="587"/>
      <point x="-32" y="582"/>
      <point x="-32" y="555" type="curve" smooth="yes"/>
      <point x="-32" y="530"/>
      <point x="-15" y="522"/>
      <point x="0" y="522" type="curve" smooth="yes"/>
      <point x="81" y="522" type="line" smooth="yes"/>
      <point x="148" y="522"/>
      <point x="173" y="474"/>
      <point x="173" y="435" type="curve" smooth="yes"/>
      <point x="173" y="342"/>
      <point x="29" y="298"/>
      <point x="29" y="167" type="curve" smooth="yes"/>
      <point x="29" y="69"/>
      <point x="109" y="-12"/>
      <point x="214" y="-12" type="curve" smooth="yes"/>
    </contour>
    <contour>
      <point x="168" y="64"/>
      <point x="105" y="88"/>
      <point x="105" y="164" type="curve" smooth="yes"/>
      <point x="105" y="274"/>
      <point x="244" y="287"/>
      <point x="244" y="462" type="curve"/>
      <point x="213" y="455" type="line"/>
      <point x="285" y="374"/>
      <point x="318" y="308"/>
      <point x="318" y="218" type="curve" smooth="yes"/>
      <point x="318" y="132"/>
      <point x="278" y="64"/>
      <point x="211" y="64" type="curve" smooth="yes"/>
    </contour>
  </outline>
</glyph>
<glyph name="uni09A3" format="1">
  <advance width="522"/>
  <unicode hex="09A3"/>
  <note>
	uni09A3
  </note>
  <outline>
    <contour>
      <point x="429" y="-12"/>
      <point x="435" y="17"/>
      <point x="435" y="64" type="curve" smooth="yes"/>
      <point x="435" y="414"/>
      <point x="437" y="492"/>
      <point x="445" y="583" type="curve" smooth="yes"/>
      <point x="446" y="597"/>
      <point x="441" y="609"/>
      <point x="425" y="609" type="curve" smooth="yes"/>
      <point x="359" y="609"/>
      <point x="357" y="414"/>
      <point x="357" y="64" type="curve" smooth="yes"/>
      <point x="357" y="12"/>
      <point x="376" y="-12"/>
      <point x="401" y="-12" type="curve" smooth="yes"/>
    </contour>
    <contour>
      <point x="561" y="577"/>
      <point x="552" y="587"/>
      <point x="522" y="587" type="curve" smooth="yes"/>
      <point x="496" y="587" type="line" smooth="yes"/>
      <point x="460" y="587"/>
      <point x="447" y="585"/>
      <point x="444" y="595" type="curve"/>
      <point x="435" y="592" type="line"/>
      <point x="435" y="576"/>
      <point x="439" y="522"/>
      <point x="496" y="522" type="curve" smooth="yes"/>
      <point x="522" y="522" type="line" smooth="yes"/>
      <point x="552" y="522"/>
      <point x="561" y="539"/>
      <point x="561" y="554" type="curve" smooth="yes"/>
    </contour>
    <contour>
      <point x="94" y="590"/>
      <point x="25" y="527"/>
      <point x="25" y="429" type="curve" smooth="yes"/>
      <point x="25" y="316"/>
      <point x="117" y="256"/>
      <point x="188" y="256" type="curve" smooth="yes"/>
      <point x="255" y="256"/>
      <point x="285" y="310"/>
      <point x="285" y="348" type="curve" smooth="yes"/>
      <point x="285" y="389"/>
      <point x="262" y="442"/>
      <point x="197" y="442" type="curve" smooth="yes"/>
      <point x="143" y="442"/>
      <point x="110" y="400"/>
      <point x="110" y="361" type="curve" smooth="yes"/>
      <point x="110" y="344"/>
      <point x="116" y="323"/>
      <point x="121" y="315" type="curve"/>
      <point x="134" y="348" type="line"/>
      <point x="114" y="366"/>
      <point x="101" y="393"/>
      <point x="101" y="422" type="curve" smooth="yes"/>
      <point x="101" y="470"/>
      <point x="138" y="513"/>
      <point x="194" y="513" type="curve" smooth="yes"/>
      <point x="302" y="513"/>
      <point x="358" y="408"/>
      <point x="358" y="267" type="curve"/>
      <point x="416" y="324" type="line"/>
      <point x="416" y="461"/>
      <point x="343" y="590"/>
      <point x="189" y="590" type="curve" smooth="yes"/>
    </contour>
    <contour>
      <point x="213" y="380"/>
      <point x="226" y="367"/>
      <point x="226" y="349" type="curve" smooth="yes"/>
      <point x="226" y="328"/>
      <point x="210" y="318"/>
      <point x="195" y="318" type="curve" smooth="yes"/>
      <point x="179" y="318"/>
      <point x="163" y="330"/>
      <point x="163" y="348" type="curve" smooth="yes"/>
      <point x="163" y="368"/>
      <point x="181" y="380"/>
      <point x="197" y="380" type="curve" smooth="yes"/>
    </contour>
  </outline>
</glyph>
<glyph name="uni09A4" format="1">
  <advance width="567"/>
  <unicode hex="09A4"/>
  <note>
	uni09A4
  </note>
  <outline>
    <contour>
      <point x="567" y="522" type="line" smooth="yes"/>
      <point x="578" y="522"/>
      <point x="598" y="529"/>
      <point x="598" y="554" type="curve" smooth="yes"/>
      <point x="598" y="578"/>
      <point x="580" y="587"/>
      <point x="567" y="587" type="curve" smooth="yes"/>
      <point x="0" y="587" type="line" smooth="yes"/>
      <point x="-18" y="587"/>
      <point x="-35" y="578"/>
      <point x="-35" y="554" type="curve" smooth="yes"/>
      <point x="-35" y="529"/>
      <point x="-18" y="522"/>
      <point x="0" y="522" type="curve" smooth="yes"/>
    </contour>
    <contour>
      <point x="250" y="466"/>
      <point x="195" y="414"/>
      <point x="195" y="348" type="curve" smooth="yes"/>
      <point x="195" y="290"/>
      <point x="244" y="245"/>
      <point x="302" y="245" type="curve" smooth="yes"/>
      <point x="368" y="245"/>
      <point x="403" y="293"/>
      <point x="403" y="340" type="curve" smooth="yes"/>
      <point x="403" y="381"/>
      <point x="385" y="405"/>
      <point x="370" y="419" type="curve"/>
      <point x="356" y="386" type="line"/>
      <point x="388" y="386"/>
      <point x="457" y="341"/>
      <point x="457" y="257" type="curve" smooth="yes"/>
      <point x="457" y="181"/>
      <point x="407" y="108"/>
      <point x="321" y="108" type="curve" smooth="yes"/>
      <point x="195" y="108"/>
      <point x="109" y="266"/>
      <point x="99" y="393" type="curve" smooth="yes"/>
      <point x="97" y="421"/>
      <point x="82" y="440"/>
      <point x="60" y="440" type="curve" smooth="yes"/>
      <point x="29" y="440"/>
      <point x="25" y="414"/>
      <point x="25" y="393" type="curve" smooth="yes"/>
      <point x="25" y="282"/>
      <point x="123" y="31"/>
      <point x="324" y="31" type="curve" smooth="yes"/>
      <point x="450" y="31"/>
      <point x="533" y="138"/>
      <point x="533" y="244" type="curve" smooth="yes"/>
      <point x="533" y="370"/>
      <point x="442" y="466"/>
      <point x="329" y="466" type="curve" smooth="yes"/>
    </contour>
    <contour>
      <point x="275" y="310"/>
      <point x="259" y="330"/>
      <point x="259" y="352" type="curve" smooth="yes"/>
      <point x="259" y="374"/>
      <point x="277" y="393"/>
      <point x="299" y="393" type="curve" smooth="yes"/>
      <point x="321" y="393"/>
      <point x="342" y="375"/>
      <point x="342" y="351" type="curve" smooth="yes"/>
      <point x="342" y="331"/>
      <point x="326" y="310"/>
      <point x="302" y="310" type="curve" smooth="yes"/>
    </contour>
  </outline>
</glyph>
<glyph name="uni09A5" format="1">
  <advance width="522"/>
  <unicode hex="09A5"/>
  <note>
	uni09A5
  </note>
  <outline>
    <contour>
      <point x="429" y="-12"/>
      <point x="435" y="17"/>
      <point x="435" y="64" type="curve" smooth="yes"/>
      <point x="435" y="414"/>
      <point x="437" y="492"/>
      <point x="445" y="583" type="curve" smooth="yes"/>
      <point x="446" y="597"/>
      <point x="441" y="609"/>
      <point x="425" y="609" type="curve" smooth="yes"/>
      <point x="359" y="609"/>
      <point x="357" y="414"/>
      <point x="357" y="64" type="curve" smooth="yes"/>
      <point x="357" y="12"/>
      <point x="376" y="-12"/>
      <point x="401" y="-12" type="curve" smooth="yes"/>
    </contour>
    <contour>
      <point x="561" y="577"/>
      <point x="552" y="587"/>
      <point x="522" y="587" type="curve" smooth="yes"/>
      <point x="496" y="587" type="line" smooth="yes"/>
      <point x="460" y="587"/>
      <point x="447" y="585"/>
      <point x="444" y="595" type="curve"/>
      <point x="435" y="592" type="line"/>
      <point x="435" y="576"/>
      <point x="439" y="522"/>
      <point x="496" y="522" type="curve" smooth="yes"/>
      <point x="522" y="522" type="line" smooth="yes"/>
      <point x="552" y="522"/>
      <point x="561" y="539"/>
      <point x="561" y="554" type="curve" smooth="yes"/>
    </contour>
    <contour>
      <point x="239" y="260"/>
      <point x="322" y="340"/>
      <point x="322" y="437" type="curve" smooth="yes"/>
      <point x="322" y="540"/>
      <point x="236" y="589"/>
      <point x="162" y="589" type="curve" smooth="yes"/>
      <point x="72" y="589"/>
      <point x="7" y="523"/>
      <point x="7" y="461" type="curve" smooth="yes"/>
      <point x="7" y="407"/>
      <point x="44" y="366"/>
      <point x="105" y="366" type="curve" smooth="yes"/>
      <point x="158" y="366"/>
      <point x="192" y="412"/>
      <point x="192" y="452" type="curve" smooth="yes"/>
      <point x="192" y="492"/>
      <point x="169" y="538"/>
      <point x="110" y="538" type="curve"/>
      <point x="85" y="502" type="line"/>
      <point x="107" y="517"/>
      <point x="135" y="522"/>
      <point x="161" y="522" type="curve" smooth="yes"/>
      <point x="212" y="522"/>
      <point x="248" y="492"/>
      <point x="248" y="435" type="curve" smooth="yes"/>
      <point x="248" y="336"/>
      <point x="130" y="315"/>
      <point x="91" y="315" type="curve" smooth="yes"/>
      <point x="65" y="315"/>
      <point x="42" y="304"/>
      <point x="42" y="278" type="curve" smooth="yes"/>
      <point x="42" y="260"/>
      <point x="49" y="239"/>
      <point x="85" y="232" type="curve" smooth="yes"/>
      <point x="136" y="222"/>
      <point x="357" y="166"/>
      <point x="357" y="64" type="curve"/>
      <point x="426" y="30" type="line"/>
      <point x="426" y="235"/>
      <point x="211" y="275"/>
      <point x="177" y="275" type="curve"/>
      <point x="156" y="260" type="line"/>
    </contour>
    <contour>
      <point x="88" y="424"/>
      <point x="67" y="433"/>
      <point x="66" y="457" type="curve" smooth="yes"/>
      <point x="67" y="475"/>
      <point x="80" y="490"/>
      <point x="100" y="490" type="curve" smooth="yes"/>
      <point x="118" y="490"/>
      <point x="133" y="478"/>
      <point x="133" y="458" type="curve" smooth="yes"/>
      <point x="133" y="436"/>
      <point x="117" y="424"/>
      <point x="101" y="424" type="curve" smooth="yes"/>
    </contour>
  </outline>
</glyph>
<glyph name="uni09A6" format="1">
  <advance width="528"/>
  <unicode hex="09A6"/>
  <note>
	uni09A6
  </note>
  <outline>
    <contour>
      <point x="439" y="-12"/>
      <point x="441" y="34"/>
      <point x="441" y="64" type="curve" smooth="yes"/>
      <point x="441" y="116"/>
      <point x="435" y="165"/>
      <point x="435" y="223" type="curve" smooth="yes"/>
      <point x="435" y="313"/>
      <point x="464" y="380"/>
      <point x="464" y="420" type="curve" smooth="yes"/>
      <point x="464" y="438"/>
      <point x="456" y="453"/>
      <point x="434" y="453" type="curve" smooth="yes"/>
      <point x="375" y="453"/>
      <point x="231" y="341"/>
      <point x="128" y="211" type="curve"/>
      <point x="167" y="190" type="line"/>
      <point x="169" y="211"/>
      <point x="170" y="278"/>
      <point x="170" y="332" type="curve" smooth="yes"/>
      <point x="170" y="455"/>
      <point x="164" y="522"/>
      <point x="214" y="522" type="curve" smooth="yes"/>
      <point x="528" y="522" type="line" smooth="yes"/>
      <point x="537" y="522"/>
      <point x="554" y="530"/>
      <point x="554" y="554" type="curve" smooth="yes"/>
      <point x="554" y="581"/>
      <point x="536" y="587"/>
      <point x="528" y="587" type="curve" smooth="yes"/>
      <point x="188" y="587" type="line" smooth="yes"/>
      <point x="148" y="587"/>
      <point x="122" y="575"/>
      <point x="122" y="532" type="curve"/>
      <point x="133" y="532" type="line"/>
      <point x="133" y="575"/>
      <point x="95" y="587"/>
      <point x="47" y="587" type="curve" smooth="yes"/>
      <point x="0" y="587" type="line" smooth="yes"/>
      <point x="-12" y="587"/>
      <point x="-30" y="580"/>
      <point x="-30" y="554" type="curve" smooth="yes"/>
      <point x="-30" y="530"/>
      <point x="-12" y="522"/>
      <point x="0" y="522" type="curve" smooth="yes"/>
      <point x="49" y="522" type="line" smooth="yes"/>
      <point x="96" y="522"/>
      <point x="97" y="483"/>
      <point x="94" y="361" type="curve" smooth="yes"/>
      <point x="89" y="168"/>
      <point x="88" y="156"/>
      <point x="88" y="147" type="curve" smooth="yes"/>
      <point x="88" y="128"/>
      <point x="98" y="109"/>
      <point x="116" y="109" type="curve" smooth="yes"/>
      <point x="130" y="109"/>
      <point x="141" y="120"/>
      <point x="181" y="162" type="curve" smooth="yes"/>
      <point x="241" y="226"/>
      <point x="279" y="296"/>
      <point x="410" y="386" type="curve"/>
      <point x="395" y="399" type="line"/>
      <point x="372" y="348"/>
      <point x="363" y="297"/>
      <point x="363" y="223" type="curve" smooth="yes"/>
      <point x="363" y="172"/>
      <point x="363" y="116"/>
      <point x="363" y="64" type="curve" smooth="yes"/>
      <point x="363" y="15"/>
      <point x="380" y="-12"/>
      <point x="406" y="-12" type="curve" smooth="yes"/>
    </contour>
  </outline>
</glyph>
<glyph name="uni09A7" format="1">
  <advance width="489"/>
  <unicode hex="09A7"/>
  <note>
	uni09A7
  </note>
  <outline>
    <contour>
      <point x="93" y="467"/>
      <point x="135" y="435"/>
      <point x="172" y="435" type="curve" smooth="yes"/>
      <point x="227" y="435"/>
      <point x="265" y="472"/>
      <point x="265" y="522" type="curve" smooth="yes"/>
      <point x="265" y="582"/>
      <point x="210" y="611"/>
      <point x="163" y="611" type="curve" smooth="yes"/>
      <point x="115" y="611"/>
      <point x="49" y="575"/>
      <point x="49" y="498" type="curve" smooth="yes"/>
      <point x="49" y="402"/>
      <point x="122" y="364"/>
      <point x="172" y="352" type="curve"/>
      <point x="254" y="409" type="line"/>
      <point x="192" y="378"/>
      <point x="114" y="437"/>
      <point x="114" y="498" type="curve"/>
      <point x="93" y="492" type="line"/>
    </contour>
    <contour>
      <point x="201" y="506"/>
      <point x="188" y="488"/>
      <point x="167" y="488" type="curve" smooth="yes"/>
      <point x="143" y="488"/>
      <point x="132" y="505"/>
      <point x="132" y="522" type="curve" smooth="yes"/>
      <point x="132" y="540"/>
      <point x="145" y="557"/>
      <point x="167" y="557" type="curve" smooth="yes"/>
      <point x="189" y="557"/>
      <point x="201" y="539"/>
      <point x="201" y="524" type="curve" smooth="yes"/>
    </contour>
    <contour>
      <point x="396" y="-12"/>
      <point x="402" y="17"/>
      <point x="402" y="64" type="curve" smooth="yes"/>
      <point x="402" y="414"/>
      <point x="404" y="492"/>
      <point x="412" y="583" type="curve" smooth="yes"/>
      <point x="413" y="597"/>
      <point x="408" y="609"/>
      <point x="392" y="609" type="curve" smooth="yes"/>
      <point x="326" y="609"/>
      <point x="324" y="414"/>
      <point x="324" y="64" type="curve" smooth="yes"/>
      <point x="324" y="12"/>
      <point x="343" y="-12"/>
      <point x="368" y="-12" type="curve" smooth="yes"/>
    </contour>
    <contour>
      <point x="528" y="577"/>
      <point x="519" y="587"/>
      <point x="489" y="587" type="curve" smooth="yes"/>
      <point x="463" y="587" type="line" smooth="yes"/>
      <point x="427" y="587"/>
      <point x="414" y="585"/>
      <point x="411" y="595" type="curve"/>
      <point x="402" y="592" type="line"/>
      <point x="402" y="576"/>
      <point x="406" y="522"/>
      <point x="463" y="522" type="curve" smooth="yes"/>
      <point x="489" y="522" type="line" smooth="yes"/>
      <point x="519" y="522"/>
      <point x="528" y="539"/>
      <point x="528" y="554" type="curve" smooth="yes"/>
    </contour>
    <contour>
      <point x="336" y="494" type="line"/>
      <point x="336" y="417"/>
      <point x="141" y="363"/>
      <point x="61" y="343" type="curve" smooth="yes"/>
      <point x="26" y="334"/>
      <point x="14" y="317"/>
      <point x="14" y="294" type="curve" smooth="yes"/>
      <point x="14" y="260"/>
      <point x="39" y="242"/>
      <point x="78" y="231" type="curve" smooth="yes"/>
      <point x="124" y="218"/>
      <point x="324" y="164"/>
      <point x="324" y="64" type="curve" smooth="yes"/>
      <point x="324" y="22"/>
      <point x="337" y="-12"/>
      <point x="368" y="-12" type="curve" smooth="yes"/>
      <point x="392" y="-12"/>
      <point x="400" y="24"/>
      <point x="400" y="46" type="curve" smooth="yes"/>
      <point x="400" y="183"/>
      <point x="193" y="299"/>
      <point x="62" y="299" type="curve"/>
      <point x="62" y="278" type="line"/>
      <point x="114" y="278"/>
      <point x="389" y="340"/>
      <point x="389" y="476" type="curve"/>
    </contour>
  </outline>
</glyph>
<glyph name="uni09A8" format="1">
  <advance width="506"/>
  <unicode hex="09A8"/>
  <note>
	uni09A8
  </note>
  <outline>
    <contour>
      <point x="376" y="504" type="line"/>
      <point x="364" y="550"/>
      <point x="333" y="587"/>
      <point x="261" y="587" type="curve" smooth="yes"/>
      <point x="0" y="587" type="line" smooth="yes"/>
      <point x="-16" y="587"/>
      <point x="-35" y="582"/>
      <point x="-35" y="556" type="curve" smooth="yes"/>
      <point x="-35" y="531"/>
      <point x="-18" y="522"/>
      <point x="0" y="522" type="curve" smooth="yes"/>
      <point x="267" y="522" type="line" smooth="yes"/>
      <point x="331" y="522"/>
      <point x="352" y="479"/>
      <point x="348" y="438" type="curve"/>
    </contour>
    <contour>
      <point x="63" y="389"/>
      <point x="12" y="332"/>
      <point x="12" y="268" type="curve" smooth="yes"/>
      <point x="12" y="196"/>
      <point x="64" y="150"/>
      <point x="133" y="150" type="curve" smooth="yes"/>
      <point x="191" y="150"/>
      <point x="240" y="190"/>
      <point x="240" y="253" type="curve" smooth="yes"/>
      <point x="240" y="305"/>
      <point x="201" y="330"/>
      <point x="186" y="332" type="curve"/>
      <point x="169" y="312" type="line"/>
      <point x="213" y="312"/>
      <point x="341" y="251"/>
      <point x="341" y="64" type="curve" smooth="yes"/>
      <point x="341" y="20"/>
      <point x="358" y="-12"/>
      <point x="385" y="-12" type="curve" smooth="yes"/>
      <point x="400" y="-12"/>
      <point x="416" y="-3"/>
      <point x="416" y="56" type="curve" smooth="yes"/>
      <point x="416" y="192"/>
      <point x="329" y="389"/>
      <point x="153" y="389" type="curve" smooth="yes"/>
    </contour>
    <contour>
      <point x="108" y="215"/>
      <point x="82" y="230"/>
      <point x="82" y="261" type="curve" smooth="yes"/>
      <point x="82" y="289"/>
      <point x="102" y="311"/>
      <point x="128" y="311" type="curve" smooth="yes"/>
      <point x="150" y="311"/>
      <point x="174" y="294"/>
      <point x="174" y="263" type="curve" smooth="yes"/>
      <point x="174" y="233"/>
      <point x="152" y="215"/>
      <point x="129" y="215" type="curve" smooth="yes"/>
    </contour>
    <contour>
      <point x="413" y="-12"/>
      <point x="419" y="17"/>
      <point x="419" y="64" type="curve" smooth="yes"/>
      <point x="419" y="414"/>
      <point x="421" y="492"/>
      <point x="429" y="583" type="curve" smooth="yes"/>
      <point x="430" y="597"/>
      <point x="425" y="609"/>
      <point x="409" y="609" type="curve" smooth="yes"/>
      <point x="343" y="609"/>
      <point x="341" y="414"/>
      <point x="341" y="64" type="curve" smooth="yes"/>
      <point x="341" y="12"/>
      <point x="360" y="-12"/>
      <point x="385" y="-12" type="curve" smooth="yes"/>
    </contour>
    <contour>
      <point x="545" y="577"/>
      <point x="536" y="587"/>
      <point x="506" y="587" type="curve" smooth="yes"/>
      <point x="472" y="587" type="line" smooth="yes"/>
      <point x="444" y="587"/>
      <point x="431" y="585"/>
      <point x="428" y="595" type="curve"/>
      <point x="419" y="592" type="line"/>
      <point x="419" y="576"/>
      <point x="423" y="522"/>
      <point x="472" y="522" type="curve" smooth="yes"/>
      <point x="506" y="522" type="line" smooth="yes"/>
      <point x="536" y="522"/>
      <point x="545" y="539"/>
      <point x="545" y="554" type="curve" smooth="yes"/>
    </contour>
  </outline>
</glyph>
<glyph name="uni09AA" format="1">
  <advance width="580"/>
  <unicode hex="09AA"/>
  <note>
	uni09AA
  </note>
  <outline>
    <contour>
      <point x="258" y="387" type="line"/>
      <point x="238" y="371"/>
      <point x="210" y="361"/>
      <point x="179" y="361" type="curve" smooth="yes"/>
      <point x="147" y="361"/>
      <point x="106" y="374"/>
      <point x="106" y="415" type="curve" smooth="yes"/>
      <point x="106" y="459"/>
      <point x="153" y="499"/>
      <point x="233" y="499" type="curve" smooth="yes"/>
      <point x="332" y="499"/>
      <point x="416" y="438"/>
      <point x="416" y="275" type="curve"/>
      <point x="462" y="361" type="line"/>
      <point x="462" y="500"/>
      <point x="345" y="575"/>
      <point x="232" y="575" type="curve" smooth="yes"/>
      <point x="126" y="575"/>
      <point x="31" y="509"/>
      <point x="31" y="414" type="curve" smooth="yes"/>
      <point x="31" y="353"/>
      <point x="81" y="295"/>
      <point x="164" y="295" type="curve" smooth="yes"/>
      <point x="217" y="295"/>
      <point x="245" y="311"/>
      <point x="260" y="317" type="curve"/>
    </contour>
    <contour>
      <point x="367" y="457"/>
      <point x="295" y="420"/>
      <point x="238" y="371" type="curve" smooth="yes"/>
      <point x="179" y="320"/>
      <point x="140" y="269"/>
      <point x="140" y="234" type="curve" smooth="yes"/>
      <point x="140" y="211"/>
      <point x="157" y="199"/>
      <point x="173" y="199" type="curve" smooth="yes"/>
      <point x="205" y="199"/>
      <point x="219" y="247"/>
      <point x="288" y="312" type="curve" smooth="yes"/>
      <point x="334" y="356"/>
      <point x="392" y="395"/>
      <point x="413" y="395" type="curve"/>
      <point x="391" y="457" type="line"/>
    </contour>
    <contour>
      <point x="487" y="-12"/>
      <point x="493" y="17"/>
      <point x="493" y="64" type="curve" smooth="yes"/>
      <point x="493" y="414"/>
      <point x="495" y="492"/>
      <point x="503" y="583" type="curve" smooth="yes"/>
      <point x="504" y="597"/>
      <point x="499" y="609"/>
      <point x="483" y="609" type="curve" smooth="yes"/>
      <point x="417" y="609"/>
      <point x="415" y="414"/>
      <point x="415" y="64" type="curve" smooth="yes"/>
      <point x="415" y="12"/>
      <point x="434" y="-12"/>
      <point x="459" y="-12" type="curve" smooth="yes"/>
    </contour>
    <contour>
      <point x="619" y="577"/>
      <point x="610" y="587"/>
      <point x="580" y="587" type="curve" smooth="yes"/>
      <point x="546" y="587" type="line" smooth="yes"/>
      <point x="518" y="587"/>
      <point x="505" y="585"/>
      <point x="502" y="595" type="curve"/>
      <point x="493" y="592" type="line"/>
      <point x="493" y="576"/>
      <point x="497" y="522"/>
      <point x="546" y="522" type="curve" smooth="yes"/>
      <point x="580" y="522" type="line" smooth="yes"/>
      <point x="610" y="522"/>
      <point x="619" y="539"/>
      <point x="619" y="554" type="curve" smooth="yes"/>
    </contour>
  </outline>
</glyph>
<glyph name="uni09AB" format="1">
  <advance width="698"/>
  <unicode hex="09AB"/>
  <note>
	uni09AB
  </note>
  <outline>
    <contour>
      <point x="547" y="210"/>
      <point x="534" y="225"/>
      <point x="534" y="244" type="curve" smooth="yes"/>
      <point x="534" y="258"/>
      <point x="547" y="273"/>
      <point x="569" y="273" type="curve" smooth="yes"/>
      <point x="588" y="273"/>
      <point x="602" y="261"/>
      <point x="602" y="244" type="curve" smooth="yes"/>
      <point x="602" y="221"/>
      <point x="584" y="210"/>
      <point x="568" y="210" type="curve" smooth="yes"/>
    </contour>
    <contour>
      <point x="49" y="565" type="line"/>
      <point x="50" y="488"/>
      <point x="68" y="442"/>
      <point x="151" y="408" type="curve" smooth="yes"/>
      <point x="192" y="391"/>
      <point x="227" y="380"/>
      <point x="227" y="369" type="curve" smooth="yes"/>
      <point x="227" y="356"/>
      <point x="151" y="329"/>
      <point x="80" y="301" type="curve" smooth="yes"/>
      <point x="69" y="297"/>
      <point x="64" y="284"/>
      <point x="64" y="275" type="curve" smooth="yes"/>
      <point x="64" y="264"/>
      <point x="73" y="246"/>
      <point x="91" y="240" type="curve" smooth="yes"/>
      <point x="204" y="200"/>
      <point x="367" y="149"/>
      <point x="367" y="36" type="curve" smooth="yes"/>
      <point x="367" y="13"/>
      <point x="380" y="-11"/>
      <point x="411" y="-11" type="curve" smooth="yes"/>
      <point x="431" y="-11"/>
      <point x="445" y="5"/>
      <point x="445" y="33" type="curve" smooth="yes"/>
      <point x="445" y="88"/>
      <point x="441" y="359"/>
      <point x="437" y="432" type="curve"/>
      <point x="421" y="413" type="line"/>
      <point x="456" y="374"/>
      <point x="493" y="378"/>
      <point x="555" y="363" type="curve" smooth="yes"/>
      <point x="600" y="352"/>
      <point x="617" y="323"/>
      <point x="617" y="282" type="curve" smooth="yes"/>
      <point x="617" y="273"/>
      <point x="616" y="264"/>
      <point x="615" y="254" type="curve"/>
      <point x="639" y="275" type="line"/>
      <point x="625" y="301"/>
      <point x="603" y="327"/>
      <point x="556" y="327" type="curve" smooth="yes"/>
      <point x="514" y="327"/>
      <point x="474" y="293"/>
      <point x="474" y="245" type="curve" smooth="yes"/>
      <point x="474" y="195"/>
      <point x="517" y="155"/>
      <point x="565" y="155" type="curve" smooth="yes"/>
      <point x="636" y="155"/>
      <point x="674" y="221"/>
      <point x="674" y="275" type="curve" smooth="yes"/>
      <point x="674" y="314"/>
      <point x="667" y="399"/>
      <point x="566" y="430" type="curve" smooth="yes"/>
      <point x="508" y="448"/>
      <point x="441" y="426"/>
      <point x="441" y="482" type="curve" smooth="yes"/>
      <point x="441" y="491"/>
      <point x="438" y="503"/>
      <point x="423" y="503" type="curve" smooth="yes"/>
      <point x="374" y="503"/>
      <point x="368" y="389"/>
      <point x="368" y="266" type="curve" smooth="yes"/>
      <point x="368" y="207"/>
      <point x="369" y="146"/>
      <point x="369" y="95" type="curve"/>
      <point x="413" y="119" type="line"/>
      <point x="366" y="208"/>
      <point x="275" y="261"/>
      <point x="171" y="293" type="curve"/>
      <point x="160" y="260" type="line"/>
      <point x="275" y="314" type="line" smooth="yes"/>
      <point x="311" y="331"/>
      <point x="319" y="348"/>
      <point x="319" y="368" type="curve" smooth="yes"/>
      <point x="319" y="400"/>
      <point x="287" y="421"/>
      <point x="217" y="451" type="curve" smooth="yes"/>
      <point x="169" y="472"/>
      <point x="131" y="473"/>
      <point x="131" y="570" type="curve"/>
    </contour>
    <contour>
      <point x="697" y="522" type="line" smooth="yes"/>
      <point x="708" y="522"/>
      <point x="728" y="529"/>
      <point x="728" y="554" type="curve" smooth="yes"/>
      <point x="728" y="578"/>
      <point x="710" y="587"/>
      <point x="697" y="587" type="curve" smooth="yes"/>
      <point x="0" y="587" type="line" smooth="yes"/>
      <point x="-18" y="587"/>
      <point x="-35" y="578"/>
      <point x="-35" y="554" type="curve" smooth="yes"/>
      <point x="-35" y="529"/>
      <point x="-18" y="522"/>
      <point x="0" y="522" type="curve" smooth="yes"/>
    </contour>
  </outline>
</glyph>
<glyph name="uni09AD" format="1">
  <advance width="571"/>
  <unicode hex="09AD"/>
  <note>
	uni09AD
  </note>
  <outline>
    <contour>
      <point x="567" y="522" type="line" smooth="yes"/>
      <point x="578" y="522"/>
      <point x="598" y="529"/>
      <point x="598" y="554" type="curve" smooth="yes"/>
      <point x="598" y="578"/>
      <point x="580" y="587"/>
      <point x="567" y="587" type="curve" smooth="yes"/>
      <point x="0" y="587" type="line" smooth="yes"/>
      <point x="-18" y="587"/>
      <point x="-35" y="578"/>
      <point x="-35" y="554" type="curve" smooth="yes"/>
      <point x="-35" y="529"/>
      <point x="-18" y="522"/>
      <point x="0" y="522" type="curve" smooth="yes"/>
    </contour>
    <contour>
      <point x="449" y="409"/>
      <point x="437" y="392"/>
      <point x="431" y="368" type="curve" smooth="yes"/>
      <point x="423" y="337"/>
      <point x="389" y="285"/>
      <point x="342" y="285" type="curve" smooth="yes"/>
      <point x="302" y="285"/>
      <point x="284" y="303"/>
      <point x="264" y="320" type="curve"/>
      <point x="264" y="288" type="line"/>
      <point x="315" y="289"/>
      <point x="370" y="319"/>
      <point x="370" y="381" type="curve" smooth="yes"/>
      <point x="370" y="431"/>
      <point x="332" y="474"/>
      <point x="273" y="474" type="curve" smooth="yes"/>
      <point x="217" y="474"/>
      <point x="169" y="431"/>
      <point x="169" y="372" type="curve" smooth="yes"/>
      <point x="169" y="286"/>
      <point x="247" y="212"/>
      <point x="335" y="212" type="curve" smooth="yes"/>
      <point x="443" y="212"/>
      <point x="476" y="297"/>
      <point x="476" y="333" type="curve"/>
      <point x="449" y="327" type="line"/>
      <point x="461" y="303"/>
      <point x="467" y="283"/>
      <point x="467" y="257" type="curve" smooth="yes"/>
      <point x="467" y="181"/>
      <point x="417" y="107"/>
      <point x="331" y="107" type="curve" smooth="yes"/>
      <point x="199" y="107"/>
      <point x="106" y="275"/>
      <point x="89" y="393" type="curve" smooth="yes"/>
      <point x="85" y="421"/>
      <point x="72" y="440"/>
      <point x="50" y="440" type="curve" smooth="yes"/>
      <point x="19" y="440"/>
      <point x="15" y="414"/>
      <point x="15" y="393" type="curve" smooth="yes"/>
      <point x="15" y="288"/>
      <point x="138" y="31"/>
      <point x="334" y="31" type="curve" smooth="yes"/>
      <point x="460" y="31"/>
      <point x="543" y="138"/>
      <point x="543" y="244" type="curve" smooth="yes"/>
      <point x="543" y="319"/>
      <point x="519" y="409"/>
      <point x="467" y="409" type="curve" smooth="yes"/>
    </contour>
    <contour>
      <point x="236" y="401"/>
      <point x="255" y="412"/>
      <point x="271" y="412" type="curve" smooth="yes"/>
      <point x="288" y="412"/>
      <point x="306" y="400"/>
      <point x="306" y="377" type="curve" smooth="yes"/>
      <point x="306" y="353"/>
      <point x="284" y="343"/>
      <point x="271" y="343" type="curve" smooth="yes"/>
      <point x="254" y="343"/>
      <point x="236" y="358"/>
      <point x="236" y="379" type="curve" smooth="yes"/>
    </contour>
  </outline>
</glyph>
<glyph name="uni09AE" format="1">
  <advance width="522"/>
  <unicode hex="09AE"/>
  <note>
	uni09AE
  </note>
  <outline>
    <contour>
      <point x="44" y="556"/>
      <point x="36" y="533"/>
      <point x="36" y="505" type="curve" smooth="yes"/>
      <point x="36" y="346"/>
      <point x="220" y="391"/>
      <point x="220" y="264" type="curve" smooth="yes"/>
      <point x="220" y="225"/>
      <point x="201" y="185"/>
      <point x="167" y="185" type="curve" smooth="yes"/>
      <point x="148" y="185"/>
      <point x="135" y="196"/>
      <point x="135" y="210" type="curve" smooth="yes"/>
      <point x="135" y="227"/>
      <point x="150" y="239"/>
      <point x="168" y="239" type="curve" smooth="yes"/>
      <point x="230" y="239"/>
      <point x="356" y="170"/>
      <point x="356" y="64" type="curve"/>
      <point x="423" y="64" type="line"/>
      <point x="423" y="189"/>
      <point x="284" y="305"/>
      <point x="162" y="305" type="curve" smooth="yes"/>
      <point x="112" y="305"/>
      <point x="58" y="270"/>
      <point x="58" y="212" type="curve" smooth="yes"/>
      <point x="58" y="148"/>
      <point x="117" y="120"/>
      <point x="161" y="120" type="curve" smooth="yes"/>
      <point x="248" y="120"/>
      <point x="297" y="198"/>
      <point x="297" y="270" type="curve" smooth="yes"/>
      <point x="297" y="412"/>
      <point x="121" y="400"/>
      <point x="121" y="503" type="curve" smooth="yes"/>
      <point x="121" y="523"/>
      <point x="128" y="550"/>
      <point x="148" y="570" type="curve"/>
      <point x="60" y="578" type="line"/>
    </contour>
    <contour>
      <point x="391" y="504" type="line"/>
      <point x="379" y="550"/>
      <point x="348" y="587"/>
      <point x="276" y="587" type="curve" smooth="yes"/>
      <point x="0" y="587" type="line" smooth="yes"/>
      <point x="-16" y="587"/>
      <point x="-35" y="582"/>
      <point x="-35" y="556" type="curve" smooth="yes"/>
      <point x="-35" y="531"/>
      <point x="-18" y="522"/>
      <point x="0" y="522" type="curve" smooth="yes"/>
      <point x="282" y="522" type="line" smooth="yes"/>
      <point x="346" y="522"/>
      <point x="367" y="479"/>
      <point x="363" y="438" type="curve"/>
    </contour>
    <contour>
      <point x="428" y="-12"/>
      <point x="434" y="17"/>
      <point x="434" y="64" type="curve" smooth="yes"/>
      <point x="434" y="414"/>
      <point x="436" y="492"/>
      <point x="444" y="583" type="curve" smooth="yes"/>
      <point x="445" y="597"/>
      <point x="440" y="609"/>
      <point x="424" y="609" type="curve" smooth="yes"/>
      <point x="358" y="609"/>
      <point x="356" y="414"/>
      <point x="356" y="64" type="curve" smooth="yes"/>
      <point x="356" y="12"/>
      <point x="375" y="-12"/>
      <point x="400" y="-12" type="curve" smooth="yes"/>
    </contour>
    <contour>
      <point x="560" y="577"/>
      <point x="551" y="587"/>
      <point x="521" y="587" type="curve" smooth="yes"/>
      <point x="487" y="587" type="line" smooth="yes"/>
      <point x="459" y="587"/>
      <point x="446" y="585"/>
      <point x="443" y="595" type="curve"/>
      <point x="434" y="592" type="line"/>
      <point x="434" y="576"/>
      <point x="438" y="522"/>
      <point x="487" y="522" type="curve" smooth="yes"/>
      <point x="521" y="522" type="line" smooth="yes"/>
      <point x="551" y="522"/>
      <point x="560" y="539"/>
      <point x="560" y="554" type="curve" smooth="yes"/>
    </contour>
  </outline>
</glyph>
<glyph name="uni09AF" format="1">
  <advance width="511"/>
  <unicode hex="09AF"/>
  <note>
	uni09AF
  </note>
  <outline>
    <contour>
      <point x="416" y="87" type="line"/>
      <point x="416" y="161"/>
      <point x="213" y="272"/>
      <point x="113" y="282" type="curve"/>
      <point x="128" y="252" type="line"/>
      <point x="249" y="314" type="line" smooth="yes"/>
      <point x="265" y="322"/>
      <point x="284" y="336"/>
      <point x="284" y="360" type="curve" smooth="yes"/>
      <point x="284" y="375"/>
      <point x="275" y="387"/>
      <point x="260" y="397" type="curve" smooth="yes"/>
      <point x="138" y="474" type="line" smooth="yes"/>
      <point x="104" y="495"/>
      <point x="111" y="533"/>
      <point x="111" y="563" type="curve"/>
      <point x="26" y="563" type="line"/>
      <point x="26" y="481"/>
      <point x="44" y="443"/>
      <point x="101" y="413" type="curve" smooth="yes"/>
      <point x="210" y="354" type="line"/>
      <point x="208" y="373" type="line"/>
      <point x="67" y="301" type="line" smooth="yes"/>
      <point x="42" y="288"/>
      <point x="38" y="272"/>
      <point x="38" y="258" type="curve" smooth="yes"/>
      <point x="38" y="241"/>
      <point x="47" y="229"/>
      <point x="76" y="219" type="curve" smooth="yes"/>
      <point x="148" y="194"/>
      <point x="346" y="129"/>
      <point x="346" y="64" type="curve"/>
    </contour>
    <contour>
      <point x="381" y="504" type="line"/>
      <point x="369" y="550"/>
      <point x="338" y="587"/>
      <point x="266" y="587" type="curve" smooth="yes"/>
      <point x="0" y="587" type="line" smooth="yes"/>
      <point x="-16" y="587"/>
      <point x="-35" y="582"/>
      <point x="-35" y="556" type="curve" smooth="yes"/>
      <point x="-35" y="531"/>
      <point x="-18" y="522"/>
      <point x="0" y="522" type="curve" smooth="yes"/>
      <point x="272" y="522" type="line" smooth="yes"/>
      <point x="336" y="522"/>
      <point x="357" y="479"/>
      <point x="353" y="438" type="curve"/>
    </contour>
    <contour>
      <point x="418" y="-12"/>
      <point x="424" y="17"/>
      <point x="424" y="64" type="curve" smooth="yes"/>
      <point x="424" y="414"/>
      <point x="426" y="492"/>
      <point x="434" y="583" type="curve" smooth="yes"/>
      <point x="435" y="597"/>
      <point x="430" y="609"/>
      <point x="414" y="609" type="curve" smooth="yes"/>
      <point x="348" y="609"/>
      <point x="346" y="414"/>
      <point x="346" y="64" type="curve" smooth="yes"/>
      <point x="346" y="12"/>
      <point x="365" y="-12"/>
      <point x="390" y="-12" type="curve" smooth="yes"/>
    </contour>
    <contour>
      <point x="511" y="522" type="line" smooth="yes"/>
      <point x="541" y="522"/>
      <point x="550" y="539"/>
      <point x="550" y="554" type="curve" smooth="yes"/>
      <point x="550" y="577"/>
      <point x="541" y="587"/>
      <point x="511" y="587" type="curve" smooth="yes"/>
      <point x="477" y="587" type="line" smooth="yes"/>
      <point x="449" y="587"/>
      <point x="436" y="585"/>
      <point x="433" y="595" type="curve"/>
      <point x="424" y="592" type="line"/>
      <point x="424" y="576"/>
      <point x="428" y="522"/>
      <point x="477" y="522" type="curve" smooth="yes"/>
    </contour>
  </outline>
</glyph>
<glyph name="uni09B0" format="1">
  <advance width="485"/>
  <unicode hex="09B0"/>
  <note>
	uni09B0
  </note>
  <outline>
    <contour>
      <point x="194" y="25"/>
      <point x="234" y="46"/>
      <point x="234" y="94" type="curve" smooth="yes"/>
      <point x="234" y="132"/>
      <point x="205" y="170"/>
      <point x="159" y="170" type="curve" smooth="yes"/>
      <point x="121" y="170"/>
      <point x="89" y="142"/>
      <point x="89" y="100" type="curve" smooth="yes"/>
      <point x="89" y="55"/>
      <point x="125" y="25"/>
      <point x="163" y="25" type="curve" smooth="yes"/>
    </contour>
    <contour>
      <point x="187" y="79"/>
      <point x="174" y="72"/>
      <point x="163" y="72" type="curve" smooth="yes"/>
      <point x="151" y="72"/>
      <point x="137" y="82"/>
      <point x="137" y="99" type="curve" smooth="yes"/>
      <point x="137" y="117"/>
      <point x="150" y="126"/>
      <point x="162" y="126" type="curve" smooth="yes"/>
      <point x="175" y="126"/>
      <point x="187" y="113"/>
      <point x="187" y="97" type="curve" smooth="yes"/>
    </contour>
    <contour>
      <point x="392" y="-12"/>
      <point x="398" y="17"/>
      <point x="398" y="64" type="curve" smooth="yes"/>
      <point x="398" y="414"/>
      <point x="400" y="492"/>
      <point x="408" y="583" type="curve" smooth="yes"/>
      <point x="409" y="597"/>
      <point x="404" y="609"/>
      <point x="388" y="609" type="curve" smooth="yes"/>
      <point x="322" y="609"/>
      <point x="320" y="414"/>
      <point x="320" y="64" type="curve" smooth="yes"/>
      <point x="320" y="12"/>
      <point x="339" y="-12"/>
      <point x="364" y="-12" type="curve" smooth="yes"/>
    </contour>
    <contour>
      <point x="524" y="577"/>
      <point x="515" y="587"/>
      <point x="485" y="587" type="curve" smooth="yes"/>
      <point x="459" y="587" type="line" smooth="yes"/>
      <point x="423" y="587"/>
      <point x="410" y="585"/>
      <point x="407" y="595" type="curve"/>
      <point x="398" y="592" type="line"/>
      <point x="398" y="576"/>
      <point x="402" y="522"/>
      <point x="459" y="522" type="curve" smooth="yes"/>
      <point x="485" y="522" type="line" smooth="yes"/>
      <point x="515" y="522"/>
      <point x="524" y="539"/>
      <point x="524" y="554" type="curve" smooth="yes"/>
    </contour>
    <contour>
      <point x="388" y="-12"/>
      <point x="396" y="24"/>
      <point x="396" y="46" type="curve" smooth="yes"/>
      <point x="396" y="183"/>
      <point x="189" y="307"/>
      <point x="58" y="307" type="curve"/>
      <point x="66" y="290" type="line"/>
      <point x="211" y="370"/>
      <point x="356" y="428"/>
      <point x="356" y="515" type="curve" smooth="yes"/>
      <point x="356" y="560"/>
      <point x="327" y="587"/>
      <point x="250" y="587" type="curve" smooth="yes"/>
      <point x="0" y="587" type="line" smooth="yes"/>
      <point x="-17" y="587"/>
      <point x="-30" y="575"/>
      <point x="-30" y="554" type="curve" smooth="yes"/>
      <point x="-30" y="537"/>
      <point x="-19" y="522"/>
      <point x="0" y="522" type="curve" smooth="yes"/>
      <point x="246" y="522" type="line" smooth="yes"/>
      <point x="368" y="522"/>
      <point x="201" y="451"/>
      <point x="37" y="358" type="curve" smooth="yes"/>
      <point x="-26" y="323"/>
      <point x="-2" y="258"/>
      <point x="64" y="239" type="curve" smooth="yes"/>
      <point x="110" y="226"/>
      <point x="320" y="164"/>
      <point x="320" y="64" type="curve" smooth="yes"/>
      <point x="320" y="22"/>
      <point x="333" y="-12"/>
      <point x="364" y="-12" type="curve" smooth="yes"/>
    </contour>
  </outline>
</glyph>
<glyph name="uni09B2" format="1">
  <advance width="623"/>
  <unicode hex="09B2"/>
  <note>
	uni09B2
  </note>
  <outline>
    <contour>
      <point x="493" y="504" type="line"/>
      <point x="481" y="550"/>
      <point x="450" y="587"/>
      <point x="378" y="587" type="curve" smooth="yes"/>
      <point x="0" y="587" type="line" smooth="yes"/>
      <point x="-16" y="587"/>
      <point x="-35" y="582"/>
      <point x="-35" y="556" type="curve" smooth="yes"/>
      <point x="-35" y="531"/>
      <point x="-18" y="522"/>
      <point x="0" y="522" type="curve" smooth="yes"/>
      <point x="384" y="522" type="line" smooth="yes"/>
      <point x="448" y="522"/>
      <point x="469" y="479"/>
      <point x="465" y="438" type="curve"/>
    </contour>
    <contour>
      <point x="530" y="-12"/>
      <point x="536" y="17"/>
      <point x="536" y="64" type="curve" smooth="yes"/>
      <point x="536" y="414"/>
      <point x="538" y="492"/>
      <point x="546" y="583" type="curve" smooth="yes"/>
      <point x="547" y="597"/>
      <point x="542" y="609"/>
      <point x="526" y="609" type="curve" smooth="yes"/>
      <point x="460" y="609"/>
      <point x="458" y="414"/>
      <point x="458" y="64" type="curve" smooth="yes"/>
      <point x="458" y="12"/>
      <point x="477" y="-12"/>
      <point x="502" y="-12" type="curve" smooth="yes"/>
    </contour>
    <contour>
      <point x="662" y="577"/>
      <point x="653" y="587"/>
      <point x="623" y="587" type="curve" smooth="yes"/>
      <point x="589" y="587" type="line" smooth="yes"/>
      <point x="561" y="587"/>
      <point x="548" y="585"/>
      <point x="545" y="595" type="curve"/>
      <point x="536" y="592" type="line"/>
      <point x="536" y="576"/>
      <point x="540" y="522"/>
      <point x="589" y="522" type="curve" smooth="yes"/>
      <point x="623" y="522" type="line" smooth="yes"/>
      <point x="653" y="522"/>
      <point x="662" y="539"/>
      <point x="662" y="554" type="curve" smooth="yes"/>
    </contour>
    <contour>
      <point x="329" y="453"/>
      <point x="295" y="439"/>
      <point x="262" y="418" type="curve"/>
      <point x="314" y="417" type="line"/>
      <point x="278" y="441"/>
      <point x="215" y="466"/>
      <point x="148" y="451" type="curve" smooth="yes"/>
      <point x="66" y="433"/>
      <point x="5" y="363"/>
      <point x="5" y="270" type="curve" smooth="yes"/>
      <point x="5" y="165"/>
      <point x="85" y="79"/>
      <point x="178" y="79" type="curve" smooth="yes"/>
      <point x="240" y="79"/>
      <point x="265" y="130"/>
      <point x="265" y="165" type="curve" smooth="yes"/>
      <point x="265" y="222"/>
      <point x="222" y="249"/>
      <point x="181" y="249" type="curve" smooth="yes"/>
      <point x="126" y="249"/>
      <point x="95" y="191"/>
      <point x="115" y="151" type="curve"/>
      <point x="125" y="165" type="line"/>
      <point x="100" y="186"/>
      <point x="81" y="219"/>
      <point x="81" y="261" type="curve" smooth="yes"/>
      <point x="81" y="305"/>
      <point x="104" y="359"/>
      <point x="160" y="382" type="curve" smooth="yes"/>
      <point x="207" y="401"/>
      <point x="241" y="382"/>
      <point x="247" y="383" type="curve"/>
      <point x="248" y="407" type="line"/>
      <point x="223" y="386"/>
      <point x="206" y="358"/>
      <point x="206" y="326" type="curve" smooth="yes"/>
      <point x="206" y="270"/>
      <point x="252" y="240"/>
      <point x="288" y="240" type="curve" smooth="yes"/>
      <point x="337" y="240"/>
      <point x="369" y="273"/>
      <point x="369" y="322" type="curve" smooth="yes"/>
      <point x="369" y="355"/>
      <point x="350" y="384"/>
      <point x="325" y="406" type="curve"/>
      <point x="316" y="374" type="line"/>
      <point x="419" y="403"/>
      <point x="459" y="332"/>
      <point x="458" y="190" type="curve"/>
      <point x="523" y="211" type="line"/>
      <point x="523" y="305"/>
      <point x="490" y="453"/>
      <point x="369" y="453" type="curve" smooth="yes"/>
    </contour>
    <contour>
      <point x="304" y="305"/>
      <point x="295" y="295"/>
      <point x="286" y="295" type="curve" smooth="yes"/>
      <point x="276" y="295"/>
      <point x="267" y="305"/>
      <point x="267" y="320" type="curve" smooth="yes"/>
      <point x="267" y="341"/>
      <point x="290" y="364"/>
      <point x="317" y="375" type="curve"/>
      <point x="255" y="379" type="line"/>
      <point x="286" y="362"/>
      <point x="304" y="343"/>
      <point x="304" y="320" type="curve" smooth="yes"/>
    </contour>
    <contour>
      <point x="200" y="191"/>
      <point x="210" y="178"/>
      <point x="210" y="162" type="curve" smooth="yes"/>
      <point x="210" y="146"/>
      <point x="199" y="136"/>
      <point x="180" y="135" type="curve" smooth="yes"/>
      <point x="164" y="136"/>
      <point x="153" y="148"/>
      <point x="153" y="162" type="curve" smooth="yes"/>
      <point x="153" y="175"/>
      <point x="163" y="191"/>
      <point x="182" y="191" type="curve" smooth="yes"/>
    </contour>
  </outline>
</glyph>
<glyph name="uni09B6" format="1">
  <advance width="579"/>
  <unicode hex="09B6"/>
  <note>
	uni09B6
  </note>
  <outline>
    <contour>
      <point x="486" y="-12"/>
      <point x="492" y="17"/>
      <point x="492" y="64" type="curve" smooth="yes"/>
      <point x="492" y="414"/>
      <point x="494" y="492"/>
      <point x="502" y="583" type="curve" smooth="yes"/>
      <point x="503" y="597"/>
      <point x="498" y="609"/>
      <point x="482" y="609" type="curve" smooth="yes"/>
      <point x="416" y="609"/>
      <point x="414" y="414"/>
      <point x="414" y="64" type="curve" smooth="yes"/>
      <point x="414" y="12"/>
      <point x="433" y="-12"/>
      <point x="458" y="-12" type="curve" smooth="yes"/>
    </contour>
    <contour>
      <point x="618" y="577"/>
      <point x="609" y="587"/>
      <point x="579" y="587" type="curve" smooth="yes"/>
      <point x="545" y="587" type="line" smooth="yes"/>
      <point x="517" y="587"/>
      <point x="504" y="585"/>
      <point x="501" y="595" type="curve"/>
      <point x="492" y="592" type="line"/>
      <point x="492" y="576"/>
      <point x="496" y="522"/>
      <point x="545" y="522" type="curve" smooth="yes"/>
      <point x="579" y="522" type="line" smooth="yes"/>
      <point x="609" y="522"/>
      <point x="618" y="539"/>
      <point x="618" y="554" type="curve" smooth="yes"/>
    </contour>
    <contour>
      <point x="486" y="417" type="line"/>
      <point x="461" y="488"/>
      <point x="417" y="587"/>
      <point x="318" y="587" type="curve" smooth="yes"/>
      <point x="223" y="587"/>
      <point x="178" y="497"/>
      <point x="178" y="413" type="curve" smooth="yes"/>
      <point x="178" y="312"/>
      <point x="219" y="233"/>
      <point x="297" y="233" type="curve" smooth="yes"/>
      <point x="356" y="233"/>
      <point x="388" y="273"/>
      <point x="388" y="336" type="curve" smooth="yes"/>
      <point x="388" y="418"/>
      <point x="305" y="488"/>
      <point x="204" y="488" type="curve" smooth="yes"/>
      <point x="102" y="488"/>
      <point x="19" y="416"/>
      <point x="19" y="335" type="curve" smooth="yes"/>
      <point x="19" y="272"/>
      <point x="53" y="230"/>
      <point x="111" y="230" type="curve" smooth="yes"/>
      <point x="178" y="230"/>
      <point x="230" y="291"/>
      <point x="230" y="396" type="curve" smooth="yes"/>
      <point x="230" y="486"/>
      <point x="174" y="587"/>
      <point x="66" y="587" type="curve" smooth="yes"/>
      <point x="0" y="587" type="line" smooth="yes"/>
      <point x="-25" y="587"/>
      <point x="-38" y="575"/>
      <point x="-38" y="554" type="curve" smooth="yes"/>
      <point x="-38" y="534"/>
      <point x="-27" y="522"/>
      <point x="0" y="522" type="curve" smooth="yes"/>
      <point x="69" y="522" type="line" smooth="yes"/>
      <point x="138" y="522"/>
      <point x="170" y="448"/>
      <point x="170" y="388" type="curve" smooth="yes"/>
      <point x="170" y="332"/>
      <point x="145" y="309"/>
      <point x="122" y="309" type="curve" smooth="yes"/>
      <point x="73" y="309"/>
      <point x="83" y="422"/>
      <point x="201" y="422" type="curve" smooth="yes"/>
      <point x="318" y="422"/>
      <point x="340" y="309"/>
      <point x="286" y="309" type="curve" smooth="yes"/>
      <point x="255" y="309"/>
      <point x="239" y="348"/>
      <point x="239" y="394" type="curve" smooth="yes"/>
      <point x="239" y="465"/>
      <point x="272" y="522"/>
      <point x="322" y="522" type="curve" smooth="yes"/>
      <point x="369" y="522"/>
      <point x="418" y="455"/>
      <point x="418" y="367" type="curve"/>
    </contour>
  </outline>
</glyph>
<glyph name="uni09B8" format="1">
  <advance width="549"/>
  <unicode hex="09B8"/>
  <note>
	uni09B8
  </note>
  <outline>
    <contour>
      <point x="47" y="577" type="line"/>
      <point x="41" y="557"/>
      <point x="38" y="538"/>
      <point x="38" y="519" type="curve" smooth="yes"/>
      <point x="38" y="352"/>
      <point x="211" y="416"/>
      <point x="211" y="306" type="curve" smooth="yes"/>
      <point x="211" y="282"/>
      <point x="200" y="256"/>
      <point x="181" y="233" type="curve"/>
      <point x="257" y="261" type="line"/>
      <point x="265" y="279"/>
      <point x="277" y="307"/>
      <point x="277" y="336" type="curve" smooth="yes"/>
      <point x="277" y="454"/>
      <point x="121" y="405"/>
      <point x="121" y="518" type="curve" smooth="yes"/>
      <point x="121" y="533"/>
      <point x="125" y="551"/>
      <point x="132" y="570" type="curve"/>
    </contour>
    <contour>
      <point x="427" y="308"/>
      <point x="391" y="354"/>
      <point x="331" y="354" type="curve" smooth="yes"/>
      <point x="224" y="354"/>
      <point x="169" y="175"/>
      <point x="112" y="175" type="curve" smooth="yes"/>
      <point x="77" y="175"/>
      <point x="79" y="220"/>
      <point x="45" y="220" type="curve" smooth="yes"/>
      <point x="28" y="220"/>
      <point x="8" y="207"/>
      <point x="8" y="183" type="curve" smooth="yes"/>
      <point x="8" y="146"/>
      <point x="61" y="98"/>
      <point x="116" y="98" type="curve" smooth="yes"/>
      <point x="217" y="98"/>
      <point x="264" y="279"/>
      <point x="332" y="279" type="curve" smooth="yes"/>
      <point x="362" y="279"/>
      <point x="385" y="254"/>
      <point x="385" y="176" type="curve"/>
      <point x="427" y="203" type="line"/>
    </contour>
    <contour>
      <point x="419" y="504" type="line"/>
      <point x="407" y="550"/>
      <point x="376" y="587"/>
      <point x="304" y="587" type="curve" smooth="yes"/>
      <point x="0" y="587" type="line" smooth="yes"/>
      <point x="-16" y="587"/>
      <point x="-35" y="582"/>
      <point x="-35" y="556" type="curve" smooth="yes"/>
      <point x="-35" y="531"/>
      <point x="-18" y="522"/>
      <point x="0" y="522" type="curve" smooth="yes"/>
      <point x="310" y="522" type="line" smooth="yes"/>
      <point x="374" y="522"/>
      <point x="395" y="479"/>
      <point x="391" y="438" type="curve"/>
    </contour>
    <contour>
      <point x="456" y="-12"/>
      <point x="462" y="17"/>
      <point x="462" y="64" type="curve" smooth="yes"/>
      <point x="462" y="414"/>
      <point x="464" y="492"/>
      <point x="472" y="583" type="curve" smooth="yes"/>
      <point x="473" y="597"/>
      <point x="468" y="609"/>
      <point x="452" y="609" type="curve" smooth="yes"/>
      <point x="386" y="609"/>
      <point x="384" y="414"/>
      <point x="384" y="64" type="curve" smooth="yes"/>
      <point x="384" y="12"/>
      <point x="403" y="-12"/>
      <point x="428" y="-12" type="curve" smooth="yes"/>
    </contour>
    <contour>
      <point x="549" y="522" type="line" smooth="yes"/>
      <point x="579" y="522"/>
      <point x="588" y="539"/>
      <point x="588" y="554" type="curve" smooth="yes"/>
      <point x="588" y="577"/>
      <point x="579" y="587"/>
      <point x="549" y="587" type="curve" smooth="yes"/>
      <point x="515" y="587" type="line" smooth="yes"/>
      <point x="487" y="587"/>
      <point x="474" y="585"/>
      <point x="471" y="595" type="curve"/>
      <point x="462" y="592" type="line"/>
      <point x="462" y="576"/>
      <point x="466" y="522"/>
      <point x="515" y="522" type="curve" smooth="yes"/>
    </contour>
  </outline>
</glyph>
<glyph name="uni09BD" format="1">
  <advance width="502"/>
  <unicode hex="09BD"/>
  <note>
	uni09BD
  </note>
  <outline>
    <contour>
      <point x="447" y="40"/>
      <point x="463" y="57"/>
      <point x="463" y="74" type="curve" smooth="yes"/>
      <point x="463" y="88"/>
      <point x="451" y="111"/>
      <point x="424" y="111" type="curve" smooth="yes"/>
      <point x="315" y="111"/>
      <point x="281" y="314"/>
      <point x="151" y="314" type="curve" smooth="yes"/>
      <point x="112" y="314"/>
      <point x="76" y="285"/>
      <point x="76" y="249" type="curve" smooth="yes"/>
      <point x="76" y="213"/>
      <point x="113" y="170"/>
      <point x="181" y="170" type="curve" smooth="yes"/>
      <point x="306" y="170"/>
      <point x="416" y="269"/>
      <point x="416" y="386" type="curve" smooth="yes"/>
      <point x="416" y="488"/>
      <point x="346" y="570"/>
      <point x="232" y="570" type="curve" smooth="yes"/>
      <point x="150" y="570"/>
      <point x="72" y="528"/>
      <point x="72" y="456" type="curve" smooth="yes"/>
      <point x="72" y="406"/>
      <point x="110" y="365"/>
      <point x="165" y="365" type="curve" smooth="yes"/>
      <point x="216" y="365"/>
      <point x="247" y="400"/>
      <point x="247" y="446" type="curve" smooth="yes"/>
      <point x="247" y="487"/>
      <point x="217" y="519"/>
      <point x="177" y="519" type="curve"/>
      <point x="215" y="504" type="line"/>
      <point x="274" y="504"/>
      <point x="341" y="473"/>
      <point x="341" y="386" type="curve" smooth="yes"/>
      <point x="341" y="296"/>
      <point x="260" y="234"/>
      <point x="168" y="234" type="curve" smooth="yes"/>
      <point x="150" y="234"/>
      <point x="134" y="239"/>
      <point x="134" y="249" type="curve" smooth="yes"/>
      <point x="134" y="255"/>
      <point x="140" y="259"/>
      <point x="150" y="259" type="curve" smooth="yes"/>
      <point x="207" y="259"/>
      <point x="276" y="40"/>
      <point x="417" y="40" type="curve" smooth="yes"/>
    </contour>
    <contour>
      <point x="143" y="417"/>
      <point x="127" y="432"/>
      <point x="127" y="451" type="curve" smooth="yes"/>
      <point x="128" y="472"/>
      <point x="146" y="481"/>
      <point x="161" y="481" type="curve" smooth="yes"/>
      <point x="181" y="481"/>
      <point x="193" y="466"/>
      <point x="193" y="449" type="curve" smooth="yes"/>
      <point x="193" y="427"/>
      <point x="174" y="417"/>
      <point x="161" y="417" type="curve" smooth="yes"/>
    </contour>
  </outline>
</glyph>
<glyph name="uni09BE" format="1">
  <advance width="220"/>
  <unicode hex="09BE"/>
  <note>
	uni09BE
  </note>
  <outline>
    <contour>
      <point x="147" y="-12"/>
      <point x="153" y="17"/>
      <point x="153" y="64" type="curve" smooth="yes"/>
      <point x="153" y="414"/>
      <point x="155" y="492"/>
      <point x="163" y="583" type="curve" smooth="yes"/>
      <point x="164" y="597"/>
      <point x="159" y="609"/>
      <point x="143" y="609" type="curve" smooth="yes"/>
      <point x="77" y="609"/>
      <point x="75" y="414"/>
      <point x="75" y="64" type="curve" smooth="yes"/>
      <point x="75" y="12"/>
      <point x="94" y="-12"/>
      <point x="119" y="-12" type="curve" smooth="yes"/>
    </contour>
    <contour>
      <point x="110" y="504" type="line"/>
      <point x="98" y="550"/>
      <point x="89" y="587"/>
      <point x="17" y="587" type="curve" smooth="yes"/>
      <point x="0" y="587" type="line" smooth="yes"/>
      <point x="-18" y="587"/>
      <point x="-35" y="582"/>
      <point x="-35" y="554" type="curve" smooth="yes"/>
      <point x="-35" y="532"/>
      <point x="-18" y="522"/>
      <point x="0" y="522" type="curve" smooth="yes"/>
      <point x="23" y="522" type="line" smooth="yes"/>
      <point x="87" y="522"/>
      <point x="86" y="479"/>
      <point x="82" y="438" type="curve"/>
    </contour>
    <contour>
      <point x="259" y="577"/>
      <point x="250" y="587"/>
      <point x="220" y="587" type="curve" smooth="yes"/>
      <point x="206" y="587" type="line" smooth="yes"/>
      <point x="178" y="587"/>
      <point x="165" y="585"/>
      <point x="162" y="595" type="curve"/>
      <point x="153" y="592" type="line"/>
      <point x="153" y="576"/>
      <point x="157" y="522"/>
      <point x="206" y="522" type="curve" smooth="yes"/>
      <point x="220" y="522" type="line" smooth="yes"/>
      <point x="250" y="522"/>
      <point x="259" y="539"/>
      <point x="259" y="554" type="curve" smooth="yes"/>
    </contour>
  </outline>
</glyph>
<glyph name="uni09BF" format="1">
  <advance width="220"/>
  <unicode hex="09BF"/>
  <note>
	uni09BF
  </note>
  <outline>
    <contour>
      <point x="218" y="587" type="line"/>
      <point x="142" y="587"/>
      <point x="117" y="658"/>
      <point x="117" y="691" type="curve" smooth="yes"/>
      <point x="117" y="749"/>
      <point x="193" y="761"/>
      <point x="256" y="761" type="curve" smooth="yes"/>
      <point x="387" y="761"/>
      <point x="489" y="709"/>
      <point x="559" y="672" type="curve" smooth="yes"/>
      <point x="600" y="650"/>
      <point x="617" y="655"/>
      <point x="625" y="668" type="curve" smooth="yes"/>
      <point x="634" y="682"/>
      <point x="630" y="698"/>
      <point x="603" y="718" type="curve" smooth="yes"/>
      <point x="569" y="743"/>
      <point x="429" y="827"/>
      <point x="261" y="827" type="curve" smooth="yes"/>
      <point x="140" y="827"/>
      <point x="44" y="783"/>
      <point x="44" y="698" type="curve" smooth="yes"/>
      <point x="44" y="630"/>
      <point x="106" y="601"/>
      <point x="96" y="546" type="curve"/>
    </contour>
    <contour>
      <point x="147" y="-12"/>
      <point x="153" y="17"/>
      <point x="153" y="64" type="curve" smooth="yes"/>
      <point x="153" y="414"/>
      <point x="155" y="492"/>
      <point x="163" y="583" type="curve" smooth="yes"/>
      <point x="164" y="597"/>
      <point x="159" y="609"/>
      <point x="143" y="609" type="curve" smooth="yes"/>
      <point x="77" y="609"/>
      <point x="75" y="414"/>
      <point x="75" y="64" type="curve" smooth="yes"/>
      <point x="75" y="12"/>
      <point x="94" y="-12"/>
      <point x="119" y="-12" type="curve" smooth="yes"/>
    </contour>
    <contour>
      <point x="110" y="504" type="line"/>
      <point x="98" y="550"/>
      <point x="89" y="587"/>
      <point x="17" y="587" type="curve" smooth="yes"/>
      <point x="0" y="587" type="line" smooth="yes"/>
      <point x="-18" y="587"/>
      <point x="-35" y="582"/>
      <point x="-35" y="554" type="curve" smooth="yes"/>
      <point x="-35" y="532"/>
      <point x="-18" y="522"/>
      <point x="0" y="522" type="curve" smooth="yes"/>
      <point x="23" y="522" type="line" smooth="yes"/>
      <point x="87" y="522"/>
      <point x="86" y="479"/>
      <point x="82" y="438" type="curve"/>
    </contour>
    <contour>
      <point x="259" y="577"/>
      <point x="250" y="587"/>
      <point x="220" y="587" type="curve" smooth="yes"/>
      <point x="206" y="587" type="line" smooth="yes"/>
      <point x="178" y="587"/>
      <point x="165" y="585"/>
      <point x="162" y="595" type="curve"/>
      <point x="153" y="592" type="line"/>
      <point x="153" y="576"/>
      <point x="157" y="522"/>
      <point x="206" y="522" type="curve" smooth="yes"/>
      <point x="220" y="522" type="line" smooth="yes"/>
      <point x="250" y="522"/>
      <point x="259" y="539"/>
      <point x="259" y="554" type="curve" smooth="yes"/>
    </contour>
  </outline>
</glyph>
<glyph name="uni09C0" format="1">
  <advance width="220"/>
  <unicode hex="09C0"/>
  <note>
	uni09C0
  </note>
  <outline>
    <contour>
      <point x="163" y="559" type="line"/>
      <point x="163" y="769"/>
      <point x="29" y="894"/>
      <point x="-180" y="894" type="curve" smooth="yes"/>
      <point x="-286" y="894"/>
      <point x="-432" y="853"/>
      <point x="-432" y="755" type="curve" smooth="yes"/>
      <point x="-432" y="706"/>
      <point x="-397" y="655"/>
      <point x="-318" y="655" type="curve" smooth="yes"/>
      <point x="-286" y="655"/>
      <point x="-229" y="679"/>
      <point x="-183" y="679" type="curve" smooth="yes"/>
      <point x="-149" y="679"/>
      <point x="-134" y="661"/>
      <point x="-125" y="643" type="curve" smooth="yes"/>
      <point x="-117" y="628"/>
      <point x="-105" y="617"/>
      <point x="-88" y="617" type="curve" smooth="yes"/>
      <point x="-72" y="617"/>
      <point x="-62" y="627"/>
      <point x="-62" y="642" type="curve" smooth="yes"/>
      <point x="-62" y="668"/>
      <point x="-88" y="740"/>
      <point x="-180" y="740" type="curve" smooth="yes"/>
      <point x="-234" y="740"/>
      <point x="-286" y="713"/>
      <point x="-322" y="713" type="curve" smooth="yes"/>
      <point x="-346" y="713"/>
      <point x="-366" y="730"/>
      <point x="-366" y="755" type="curve" smooth="yes"/>
      <point x="-366" y="807"/>
      <point x="-257" y="827"/>
      <point x="-170" y="827" type="curve" smooth="yes"/>
      <point x="-29" y="827"/>
      <point x="92" y="746"/>
      <point x="92" y="525" type="curve"/>
    </contour>
    <contour>
      <point x="147" y="-12"/>
      <point x="153" y="17"/>
      <point x="153" y="64" type="curve" smooth="yes"/>
      <point x="153" y="414"/>
      <point x="155" y="492"/>
      <point x="163" y="583" type="curve" smooth="yes"/>
      <point x="164" y="597"/>
      <point x="159" y="609"/>
      <point x="143" y="609" type="curve" smooth="yes"/>
      <point x="77" y="609"/>
      <point x="75" y="414"/>
      <point x="75" y="64" type="curve" smooth="yes"/>
      <point x="75" y="12"/>
      <point x="94" y="-12"/>
      <point x="119" y="-12" type="curve" smooth="yes"/>
    </contour>
    <contour>
      <point x="110" y="504" type="line"/>
      <point x="98" y="550"/>
      <point x="89" y="587"/>
      <point x="17" y="587" type="curve" smooth="yes"/>
      <point x="0" y="587" type="line" smooth="yes"/>
      <point x="-18" y="587"/>
      <point x="-35" y="582"/>
      <point x="-35" y="554" type="curve" smooth="yes"/>
      <point x="-35" y="532"/>
      <point x="-18" y="522"/>
      <point x="0" y="522" type="curve" smooth="yes"/>
      <point x="23" y="522" type="line" smooth="yes"/>
      <point x="87" y="522"/>
      <point x="86" y="479"/>
      <point x="82" y="438" type="curve"/>
    </contour>
    <contour>
      <point x="259" y="577"/>
      <point x="250" y="587"/>
      <point x="220" y="587" type="curve" smooth="yes"/>
      <point x="206" y="587" type="line" smooth="yes"/>
      <point x="178" y="587"/>
      <point x="165" y="585"/>
      <point x="162" y="595" type="curve"/>
      <point x="153" y="592" type="line"/>
      <point x="153" y="576"/>
      <point x="157" y="522"/>
      <point x="206" y="522" type="curve" smooth="yes"/>
      <point x="220" y="522" type="line" smooth="yes"/>
      <point x="250" y="522"/>
      <point x="259" y="539"/>
      <point x="259" y="554" type="curve" smooth="yes"/>
    </contour>
  </outline>
</glyph>
<glyph name="uni09C1" format="1">
  <advance width="0"/>
  <unicode hex="09C1"/>
  <note>
	uni09C1
  </note>
  <outline>
    <contour>
      <point x="91" y="-142"/>
      <point x="58" y="-157"/>
      <point x="11" y="-119" type="curve" smooth="yes"/>
      <point x="-38" y="-79"/>
      <point x="-94" y="18"/>
      <point x="-214" y="18" type="curve" smooth="yes"/>
      <point x="-285" y="18"/>
      <point x="-340" y="-25"/>
      <point x="-340" y="-86" type="curve" smooth="yes"/>
      <point x="-340" y="-139"/>
      <point x="-303" y="-193"/>
      <point x="-214" y="-193" type="curve" smooth="yes"/>
      <point x="-134" y="-193"/>
      <point x="-87" y="-133"/>
      <point x="-87" y="-68" type="curve" smooth="yes"/>
      <point x="-87" y="-26"/>
      <point x="-87" y="17"/>
      <point x="-87" y="54" type="curve" smooth="yes"/>
      <point x="-87" y="74"/>
      <point x="-94" y="101"/>
      <point x="-125" y="101" type="curve" smooth="yes"/>
      <point x="-158" y="101"/>
      <point x="-165" y="74"/>
      <point x="-165" y="54" type="curve" smooth="yes"/>
      <point x="-165" y="12"/>
      <point x="-164" y="-37"/>
      <point x="-164" y="-67" type="curve" smooth="yes"/>
      <point x="-164" y="-108"/>
      <point x="-191" y="-130"/>
      <point x="-219" y="-130" type="curve" smooth="yes"/>
      <point x="-237" y="-130"/>
      <point x="-264" y="-116"/>
      <point x="-264" y="-87" type="curve" smooth="yes"/>
      <point x="-264" y="-62"/>
      <point x="-242" y="-42"/>
      <point x="-214" y="-42" type="curve" smooth="yes"/>
      <point x="-124" y="-42"/>
      <point x="-86" y="-130"/>
      <point x="-39" y="-170" type="curve" smooth="yes"/>
      <point x="23" y="-222"/>
      <point x="91" y="-214"/>
      <point x="91" y="-182" type="curve" smooth="yes"/>
    </contour>
  </outline>
</glyph>
<glyph name="uni09C2" format="1">
  <advance width="0"/>
  <unicode hex="09C2"/>
  <note>
	uni09C2
  </note>
  <outline>
    <contour>
      <point x="113" y="-249"/>
      <point x="118" y="-199"/>
      <point x="79" y="-183" type="curve" smooth="yes"/>
      <point x="4" y="-153"/>
      <point x="-30" y="-80"/>
      <point x="-101" y="-80" type="curve" smooth="yes"/>
      <point x="-149" y="-80"/>
      <point x="-183" y="-115"/>
      <point x="-221" y="-115" type="curve" smooth="yes"/>
      <point x="-246" y="-115"/>
      <point x="-269" y="-105"/>
      <point x="-269" y="-80" type="curve" smooth="yes"/>
      <point x="-269" y="-57"/>
      <point x="-247" y="-45"/>
      <point x="-215" y="-45" type="curve" smooth="yes"/>
      <point x="-193" y="-45"/>
      <point x="-153" y="-58"/>
      <point x="-121" y="-48" type="curve" smooth="yes"/>
      <point x="-79" y="-35"/>
      <point x="-87" y="27"/>
      <point x="-87" y="81" type="curve" smooth="yes"/>
      <point x="-87" y="104"/>
      <point x="-101" y="122"/>
      <point x="-125" y="122" type="curve" smooth="yes"/>
      <point x="-149" y="122"/>
      <point x="-165" y="104"/>
      <point x="-165" y="81" type="curve" smooth="yes"/>
      <point x="-165" y="35" type="line" smooth="yes"/>
      <point x="-165" y="7"/>
      <point x="-212" y="23"/>
      <point x="-244" y="23" type="curve" smooth="yes"/>
      <point x="-300" y="23"/>
      <point x="-341" y="-19"/>
      <point x="-341" y="-77" type="curve" smooth="yes"/>
      <point x="-341" y="-139"/>
      <point x="-284" y="-178"/>
      <point x="-226" y="-178" type="curve" smooth="yes"/>
      <point x="-150" y="-178"/>
      <point x="-131" y="-143"/>
      <point x="-98" y="-143" type="curve" smooth="yes"/>
      <point x="-50" y="-143"/>
      <point x="7" y="-249"/>
      <point x="68" y="-249" type="curve" smooth="yes"/>
    </contour>
  </outline>
</glyph>
<glyph name="uni09C7" format="1">
  <advance width="292"/>
  <unicode hex="09C7"/>
  <note>
	uni09C7
  </note>
  <outline>
    <contour>
      <point x="223" y="36"/>
      <point x="209" y="45"/>
      <point x="209" y="63" type="curve" smooth="yes"/>
      <point x="209" y="76"/>
      <point x="221" y="88"/>
      <point x="236" y="88" type="curve" smooth="yes"/>
      <point x="253" y="88"/>
      <point x="262" y="76"/>
      <point x="262" y="61" type="curve" smooth="yes"/>
      <point x="262" y="45"/>
      <point x="249" y="36"/>
      <point x="236" y="36" type="curve" smooth="yes"/>
    </contour>
    <contour>
      <point x="292" y="522" type="line" smooth="yes"/>
      <point x="304" y="522"/>
      <point x="320" y="529"/>
      <point x="320" y="553" type="curve" smooth="yes"/>
      <point x="320" y="579"/>
      <point x="304" y="587"/>
      <point x="292" y="587" type="curve" smooth="yes"/>
      <point x="228" y="587" type="line" smooth="yes"/>
      <point x="100" y="587"/>
      <point x="23" y="410"/>
      <point x="23" y="266" type="curve" smooth="yes"/>
      <point x="23" y="127"/>
      <point x="108" y="-12"/>
      <point x="233" y="-12" type="curve" smooth="yes"/>
      <point x="276" y="-12"/>
      <point x="311" y="20"/>
      <point x="311" y="66" type="curve" smooth="yes"/>
      <point x="311" y="100"/>
      <point x="285" y="136"/>
      <point x="235" y="136" type="curve" smooth="yes"/>
      <point x="181" y="136"/>
      <point x="158" y="94"/>
      <point x="158" y="71" type="curve" smooth="yes"/>
      <point x="158" y="51"/>
      <point x="168" y="20"/>
      <point x="181" y="12" type="curve"/>
      <point x="218" y="39" type="line"/>
      <point x="168" y="39"/>
      <point x="99" y="149"/>
      <point x="99" y="274" type="curve" smooth="yes"/>
      <point x="99" y="408"/>
      <point x="161" y="522"/>
      <point x="225" y="522" type="curve" smooth="yes"/>
    </contour>
  </outline>
</glyph>
<glyph name="uni09C8" format="1">
  <advance width="292"/>
  <unicode hex="09C8"/>
  <note>
	uni09C8
  </note>
  <outline>
    <contour>
      <point x="193" y="537"/>
      <point x="252" y="584"/>
      <point x="252" y="651" type="curve" smooth="yes"/>
      <point x="252" y="703"/>
      <point x="216" y="735"/>
      <point x="160" y="735" type="curve" smooth="yes"/>
      <point x="114" y="735"/>
      <point x="77" y="714"/>
      <point x="35" y="714" type="curve" smooth="yes"/>
      <point x="-12" y="714"/>
      <point x="-31" y="736"/>
      <point x="-31" y="763" type="curve" smooth="yes"/>
      <point x="-31" y="792"/>
      <point x="-49" y="798"/>
      <point x="-63" y="798" type="curve" smooth="yes"/>
      <point x="-80" y="798"/>
      <point x="-93" y="784"/>
      <point x="-93" y="756" type="curve" smooth="yes"/>
      <point x="-93" y="679"/>
      <point x="-12" y="660"/>
      <point x="44" y="660" type="curve" smooth="yes"/>
      <point x="109" y="660"/>
      <point x="181" y="694"/>
      <point x="181" y="642" type="curve" smooth="yes"/>
      <point x="181" y="595"/>
      <point x="121" y="544"/>
      <point x="92" y="504" type="curve"/>
      <point x="155" y="476" type="line"/>
    </contour>
    <contour>
      <point x="223" y="36"/>
      <point x="209" y="45"/>
      <point x="209" y="63" type="curve" smooth="yes"/>
      <point x="209" y="76"/>
      <point x="221" y="88"/>
      <point x="236" y="88" type="curve" smooth="yes"/>
      <point x="253" y="88"/>
      <point x="262" y="76"/>
      <point x="262" y="61" type="curve" smooth="yes"/>
      <point x="262" y="45"/>
      <point x="249" y="36"/>
      <point x="236" y="36" type="curve" smooth="yes"/>
    </contour>
    <contour>
      <point x="292" y="522" type="line" smooth="yes"/>
      <point x="304" y="522"/>
      <point x="320" y="529"/>
      <point x="320" y="553" type="curve" smooth="yes"/>
      <point x="320" y="579"/>
      <point x="304" y="587"/>
      <point x="292" y="587" type="curve" smooth="yes"/>
      <point x="228" y="587" type="line" smooth="yes"/>
      <point x="100" y="587"/>
      <point x="23" y="410"/>
      <point x="23" y="266" type="curve" smooth="yes"/>
      <point x="23" y="127"/>
      <point x="108" y="-12"/>
      <point x="233" y="-12" type="curve" smooth="yes"/>
      <point x="276" y="-12"/>
      <point x="311" y="20"/>
      <point x="311" y="66" type="curve" smooth="yes"/>
      <point x="311" y="100"/>
      <point x="285" y="136"/>
      <point x="235" y="136" type="curve" smooth="yes"/>
      <point x="181" y="136"/>
      <point x="158" y="94"/>
      <point x="158" y="71" type="curve" smooth="yes"/>
      <point x="158" y="51"/>
      <point x="168" y="20"/>
      <point x="181" y="12" type="curve"/>
      <point x="218" y="39" type="line"/>
      <point x="168" y="39"/>
      <point x="99" y="149"/>
      <point x="99" y="274" type="curve" smooth="yes"/>
      <point x="99" y="408"/>
      <point x="161" y="522"/>
      <point x="225" y="522" type="curve" smooth="yes"/>
    </contour>
  </outline>
</glyph>
<glyph name="uni09D7" format="1">
  <advance width="220"/>
  <unicode hex="09D7"/>
  <note>
	uni09D7
  </note>
  <outline>
    <contour>
      <point x="162" y="595" type="line"/>
      <point x="162" y="751"/>
      <point x="65" y="766"/>
      <point x="-84" y="787" type="curve" smooth="yes"/>
      <point x="-163" y="798"/>
      <point x="-198" y="828"/>
      <point x="-198" y="865" type="curve" smooth="yes"/>
      <point x="-198" y="893"/>
      <point x="-218" y="902"/>
      <point x="-228" y="902" type="curve" smooth="yes"/>
      <point x="-244" y="902"/>
      <point x="-260" y="889"/>
      <point x="-260" y="861" type="curve" smooth="yes"/>
      <point x="-260" y="784"/>
      <point x="-192" y="737"/>
      <point x="-88" y="718" type="curve" smooth="yes"/>
      <point x="11" y="700"/>
      <point x="94" y="719"/>
      <point x="94" y="591" type="curve" smooth="yes"/>
      <point x="94" y="565"/>
      <point x="91" y="534"/>
      <point x="91" y="500" type="curve"/>
    </contour>
    <contour>
      <point x="147" y="-12"/>
      <point x="153" y="17"/>
      <point x="153" y="64" type="curve" smooth="yes"/>
      <point x="153" y="414"/>
      <point x="155" y="492"/>
      <point x="163" y="583" type="curve" smooth="yes"/>
      <point x="164" y="597"/>
      <point x="159" y="609"/>
      <point x="143" y="609" type="curve" smooth="yes"/>
      <point x="77" y="609"/>
      <point x="75" y="414"/>
      <point x="75" y="64" type="curve" smooth="yes"/>
      <point x="75" y="12"/>
      <point x="94" y="-12"/>
      <point x="119" y="-12" type="curve" smooth="yes"/>
    </contour>
    <contour>
      <point x="110" y="504" type="line"/>
      <point x="98" y="550"/>
      <point x="89" y="587"/>
      <point x="17" y="587" type="curve" smooth="yes"/>
      <point x="0" y="587" type="line" smooth="yes"/>
      <point x="-18" y="587"/>
      <point x="-35" y="582"/>
      <point x="-35" y="554" type="curve" smooth="yes"/>
      <point x="-35" y="532"/>
      <point x="-18" y="522"/>
      <point x="0" y="522" type="curve" smooth="yes"/>
      <point x="23" y="522" type="line" smooth="yes"/>
      <point x="74" y="522"/>
      <point x="84" y="495"/>
      <point x="84" y="464" type="curve" smooth="yes"/>
      <point x="84" y="455"/>
      <point x="83" y="447"/>
      <point x="82" y="438" type="curve"/>
    </contour>
    <contour>
      <point x="259" y="577"/>
      <point x="250" y="587"/>
      <point x="220" y="587" type="curve" smooth="yes"/>
      <point x="206" y="587" type="line" smooth="yes"/>
      <point x="178" y="587"/>
      <point x="165" y="585"/>
      <point x="162" y="595" type="curve"/>
      <point x="153" y="592" type="line"/>
      <point x="153" y="576"/>
      <point x="157" y="522"/>
      <point x="206" y="522" type="curve" smooth="yes"/>
      <point x="220" y="522" type="line" smooth="yes"/>
      <point x="250" y="522"/>
      <point x="259" y="539"/>
      <point x="259" y="554" type="curve" smooth="yes"/>
    </contour>
  </outline>
</glyph>
<glyph name="uni09DC" format="1">
  <advance width="593"/>
  <unicode hex="09DC"/>
  <note>
	uni09DC
  </note>
  <outline>
    <contour>
      <point x="373" y="-160"/>
      <point x="413" y="-139"/>
      <point x="413" y="-91" type="curve" smooth="yes"/>
      <point x="413" y="-53"/>
      <point x="384" y="-15"/>
      <point x="338" y="-15" type="curve" smooth="yes"/>
      <point x="300" y="-15"/>
      <point x="268" y="-43"/>
      <point x="268" y="-85" type="curve" smooth="yes"/>
      <point x="268" y="-130"/>
      <point x="304" y="-160"/>
      <point x="342" y="-160" type="curve" smooth="yes"/>
    </contour>
    <contour>
      <point x="366" y="-106"/>
      <point x="353" y="-113"/>
      <point x="342" y="-113" type="curve" smooth="yes"/>
      <point x="330" y="-113"/>
      <point x="316" y="-103"/>
      <point x="316" y="-86" type="curve" smooth="yes"/>
      <point x="316" y="-68"/>
      <point x="329" y="-59"/>
      <point x="341" y="-59" type="curve" smooth="yes"/>
      <point x="354" y="-59"/>
      <point x="366" y="-72"/>
      <point x="366" y="-88" type="curve" smooth="yes"/>
    </contour>
    <contour>
      <point x="473" y="22"/>
      <point x="562" y="102"/>
      <point x="562" y="224" type="curve" smooth="yes"/>
      <point x="562" y="320"/>
      <point x="507" y="405"/>
      <point x="466" y="405" type="curve" smooth="yes"/>
      <point x="415" y="405"/>
      <point x="443" y="277"/>
      <point x="366" y="277" type="curve" smooth="yes"/>
      <point x="316" y="277"/>
      <point x="300" y="332"/>
      <point x="300" y="392" type="curve" smooth="yes"/>
      <point x="300" y="479"/>
      <point x="324" y="522"/>
      <point x="373" y="522" type="curve" smooth="yes"/>
      <point x="593" y="522" type="line" smooth="yes"/>
      <point x="603" y="522"/>
      <point x="620" y="528"/>
      <point x="620" y="555" type="curve" smooth="yes"/>
      <point x="620" y="581"/>
      <point x="600" y="587"/>
      <point x="593" y="587" type="curve" smooth="yes"/>
      <point x="367" y="587" type="line" smooth="yes"/>
      <point x="336" y="587"/>
      <point x="299" y="584"/>
      <point x="274" y="557" type="curve" smooth="yes"/>
      <point x="243" y="523"/>
      <point x="221" y="450"/>
      <point x="221" y="386" type="curve" smooth="yes"/>
      <point x="221" y="295"/>
      <point x="276" y="205"/>
      <point x="366" y="205" type="curve" smooth="yes"/>
      <point x="461" y="205"/>
      <point x="491" y="307"/>
      <point x="491" y="326" type="curve"/>
      <point x="466" y="326" type="line"/>
      <point x="476" y="310"/>
      <point x="497" y="266"/>
      <point x="497" y="231" type="curve" smooth="yes"/>
      <point x="497" y="156"/>
      <point x="448" y="98"/>
      <point x="353" y="98" type="curve" smooth="yes"/>
      <point x="227" y="98"/>
      <point x="118" y="242"/>
      <point x="94" y="422" type="curve" smooth="yes"/>
      <point x="91" y="444"/>
      <point x="83" y="468"/>
      <point x="56" y="468" type="curve" smooth="yes"/>
      <point x="29" y="468"/>
      <point x="25" y="447"/>
      <point x="25" y="424" type="curve" smooth="yes"/>
      <point x="25" y="289"/>
      <point x="140" y="22"/>
      <point x="357" y="22" type="curve" smooth="yes"/>
    </contour>
    <contour>
      <point x="278" y="525" type="line"/>
      <point x="278" y="567"/>
      <point x="230" y="587"/>
      <point x="173" y="587" type="curve" smooth="yes"/>
      <point x="0" y="587" type="line" smooth="yes"/>
      <point x="-7" y="587"/>
      <point x="-28" y="582"/>
      <point x="-28" y="555" type="curve" smooth="yes"/>
      <point x="-28" y="531"/>
      <point x="-9" y="522"/>
      <point x="0" y="522" type="curve" smooth="yes"/>
      <point x="195" y="522" type="line" smooth="yes"/>
      <point x="223" y="522"/>
      <point x="236" y="514"/>
      <point x="236" y="492" type="curve" smooth="yes"/>
      <point x="236" y="483"/>
      <point x="234" y="473"/>
      <point x="231" y="461" type="curve"/>
    </contour>
  </outline>
</glyph>
<glyph name="uni09F1" format="1">
  <advance width="485"/>
  <unicode hex="09F1"/>
  <note>
	uni09F1
  </note>
  <outline>
    <contour>
      <point x="262" y="16"/>
      <point x="301" y="63"/>
      <point x="256" y="102" type="curve" smooth="yes"/>
      <point x="201" y="150"/>
      <point x="130" y="181"/>
      <point x="78" y="193" type="curve" smooth="yes"/>
      <point x="31" y="204"/>
      <point x="8" y="148"/>
      <point x="58" y="134" type="curve" smooth="yes"/>
      <point x="102" y="121"/>
      <point x="173" y="96"/>
      <point x="229" y="46" type="curve" smooth="yes"/>
    </contour>
    <contour>
      <point x="392" y="-12"/>
      <point x="398" y="17"/>
      <point x="398" y="64" type="curve" smooth="yes"/>
      <point x="398" y="414"/>
      <point x="400" y="492"/>
      <point x="408" y="583" type="curve" smooth="yes"/>
      <point x="409" y="597"/>
      <point x="404" y="609"/>
      <point x="388" y="609" type="curve" smooth="yes"/>
      <point x="322" y="609"/>
      <point x="320" y="414"/>
      <point x="320" y="64" type="curve" smooth="yes"/>
      <point x="320" y="12"/>
      <point x="339" y="-12"/>
      <point x="364" y="-12" type="curve" smooth="yes"/>
    </contour>
    <contour>
      <point x="524" y="577"/>
      <point x="515" y="587"/>
      <point x="485" y="587" type="curve" smooth="yes"/>
      <point x="459" y="587" type="line" smooth="yes"/>
      <point x="423" y="587"/>
      <point x="410" y="585"/>
      <point x="407" y="595" type="curve"/>
      <point x="398" y="592" type="line"/>
      <point x="398" y="576"/>
      <point x="402" y="522"/>
      <point x="459" y="522" type="curve" smooth="yes"/>
      <point x="485" y="522" type="line" smooth="yes"/>
      <point x="515" y="522"/>
      <point x="524" y="539"/>
      <point x="524" y="554" type="curve" smooth="yes"/>
    </contour>
    <contour>
      <point x="388" y="-12"/>
      <point x="396" y="24"/>
      <point x="396" y="46" type="curve" smooth="yes"/>
      <point x="396" y="183"/>
      <point x="189" y="307"/>
      <point x="58" y="307" type="curve"/>
      <point x="66" y="290" type="line"/>
      <point x="211" y="370"/>
      <point x="356" y="428"/>
      <point x="356" y="515" type="curve" smooth="yes"/>
      <point x="356" y="560"/>
      <point x="327" y="587"/>
      <point x="250" y="587" type="curve" smooth="yes"/>
      <point x="0" y="587" type="line" smooth="yes"/>
      <point x="-17" y="587"/>
      <point x="-30" y="575"/>
      <point x="-30" y="554" type="curve" smooth="yes"/>
      <point x="-30" y="537"/>
      <point x="-19" y="522"/>
      <point x="0" y="522" type="curve" smooth="yes"/>
      <point x="246" y="522" type="line" smooth="yes"/>
      <point x="368" y="522"/>
      <point x="201" y="451"/>
      <point x="37" y="358" type="curve" smooth="yes"/>
      <point x="-26" y="323"/>
      <point x="-2" y="258"/>
      <point x="64" y="239" type="curve" smooth="yes"/>
      <point x="110" y="226"/>
      <point x="320" y="164"/>
      <point x="320" y="64" type="curve" smooth="yes"/>
      <point x="320" y="22"/>
      <point x="333" y="-12"/>
      <point x="364" y="-12" type="curve" smooth="yes"/>
    </contour>
  </outline>
</glyph>
<glyph name="g124" format="1">
  <advance width="658"/>
  <note>
	g124
  </note>
  <outline>
    <contour>
      <point x="533" y="238"/>
      <point x="522" y="250"/>
      <point x="522" y="265" type="curve" smooth="yes"/>
      <point x="522" y="280"/>
      <point x="533" y="292"/>
      <point x="549" y="292" type="curve" smooth="yes"/>
      <point x="561" y="292"/>
      <point x="576" y="283"/>
      <point x="576" y="264" type="curve" smooth="yes"/>
      <point x="576" y="250"/>
      <point x="565" y="238"/>
      <point x="551" y="238" type="curve" smooth="yes"/>
    </contour>
    <contour>
      <point x="436" y="-12"/>
      <point x="442" y="17"/>
      <point x="442" y="64" type="curve" smooth="yes"/>
      <point x="442" y="414"/>
      <point x="444" y="492"/>
      <point x="452" y="583" type="curve" smooth="yes"/>
      <point x="453" y="597"/>
      <point x="448" y="609"/>
      <point x="432" y="609" type="curve" smooth="yes"/>
      <point x="366" y="609"/>
      <point x="364" y="414"/>
      <point x="364" y="64" type="curve" smooth="yes"/>
      <point x="364" y="12"/>
      <point x="383" y="-12"/>
      <point x="408" y="-12" type="curve" smooth="yes"/>
    </contour>
    <contour>
      <point x="693" y="577"/>
      <point x="684" y="587"/>
      <point x="654" y="587" type="curve" smooth="yes"/>
      <point x="495" y="587" type="line" smooth="yes"/>
      <point x="467" y="587"/>
      <point x="454" y="585"/>
      <point x="451" y="595" type="curve"/>
      <point x="442" y="592" type="line"/>
      <point x="432" y="581"/>
      <point x="442" y="522"/>
      <point x="495" y="522" type="curve" smooth="yes"/>
      <point x="654" y="522" type="line" smooth="yes"/>
      <point x="684" y="522"/>
      <point x="693" y="539"/>
      <point x="693" y="554" type="curve" smooth="yes"/>
    </contour>
    <contour>
      <point x="419" y="491" type="line"/>
      <point x="419" y="556"/>
      <point x="375" y="587"/>
      <point x="331" y="587" type="curve" smooth="yes"/>
      <point x="284" y="587"/>
      <point x="234" y="550"/>
      <point x="234" y="477" type="curve" smooth="yes"/>
      <point x="234" y="398"/>
      <point x="338" y="354"/>
      <point x="397" y="354" type="curve" smooth="yes"/>
      <point x="434" y="354"/>
      <point x="491" y="362"/>
      <point x="526" y="362" type="curve" smooth="yes"/>
      <point x="571" y="362"/>
      <point x="582" y="333"/>
      <point x="582" y="299" type="curve"/>
      <point x="609" y="277" type="line"/>
      <point x="609" y="301"/>
      <point x="587" y="333"/>
      <point x="539" y="333" type="curve" smooth="yes"/>
      <point x="508" y="333"/>
      <point x="466" y="314"/>
      <point x="466" y="262" type="curve" smooth="yes"/>
      <point x="466" y="208"/>
      <point x="508" y="181"/>
      <point x="550" y="181" type="curve" smooth="yes"/>
      <point x="614" y="181"/>
      <point x="645" y="240"/>
      <point x="645" y="294" type="curve" smooth="yes"/>
      <point x="645" y="373"/>
      <point x="602" y="428"/>
      <point x="513" y="428" type="curve" smooth="yes"/>
      <point x="469" y="428"/>
      <point x="437" y="419"/>
      <point x="390" y="419" type="curve" smooth="yes"/>
      <point x="345" y="419"/>
      <point x="308" y="439"/>
      <point x="308" y="477" type="curve" smooth="yes"/>
      <point x="308" y="503"/>
      <point x="329" y="522"/>
      <point x="347" y="522" type="curve" smooth="yes"/>
      <point x="364" y="522"/>
      <point x="379" y="511"/>
      <point x="375" y="483" type="curve"/>
    </contour>
    <contour>
      <point x="426" y="64" type="line"/>
      <point x="426" y="210"/>
      <point x="298" y="309"/>
      <point x="196" y="309" type="curve" smooth="yes"/>
      <point x="126" y="309"/>
      <point x="88" y="259"/>
      <point x="88" y="210" type="curve" smooth="yes"/>
      <point x="88" y="154"/>
      <point x="140" y="116"/>
      <point x="193" y="116" type="curve" smooth="yes"/>
      <point x="260" y="116"/>
      <point x="323" y="171"/>
      <point x="323" y="294" type="curve" smooth="yes"/>
      <point x="323" y="388"/>
      <point x="246" y="486"/>
      <point x="133" y="486" type="curve" smooth="yes"/>
      <point x="45" y="486"/>
      <point x="16" y="433"/>
      <point x="16" y="386" type="curve" smooth="yes"/>
      <point x="16" y="336"/>
      <point x="57" y="299"/>
      <point x="108" y="301" type="curve" smooth="yes"/>
      <point x="183" y="304"/>
      <point x="218" y="377"/>
      <point x="218" y="433" type="curve" smooth="yes"/>
      <point x="218" y="554"/>
      <point x="130" y="587"/>
      <point x="62" y="587" type="curve" smooth="yes"/>
      <point x="0" y="587" type="line" smooth="yes"/>
      <point x="-12" y="587"/>
      <point x="-30" y="582"/>
      <point x="-30" y="557" type="curve" smooth="yes"/>
      <point x="-30" y="530"/>
      <point x="-14" y="522"/>
      <point x="0" y="522" type="curve" smooth="yes"/>
      <point x="57" y="522" type="line" smooth="yes"/>
      <point x="111" y="522"/>
      <point x="162" y="511"/>
      <point x="162" y="443" type="curve" smooth="yes"/>
      <point x="162" y="415"/>
      <point x="143" y="367"/>
      <point x="109" y="367" type="curve" smooth="yes"/>
      <point x="94" y="367"/>
      <point x="80" y="374"/>
      <point x="80" y="388" type="curve" smooth="yes"/>
      <point x="80" y="401"/>
      <point x="92" y="422"/>
      <point x="125" y="422" type="curve" smooth="yes"/>
      <point x="183" y="422"/>
      <point x="254" y="370"/>
      <point x="254" y="294" type="curve" smooth="yes"/>
      <point x="254" y="227"/>
      <point x="228" y="182"/>
      <point x="194" y="181" type="curve" smooth="yes"/>
      <point x="177" y="180"/>
      <point x="156" y="190"/>
      <point x="156" y="207" type="curve" smooth="yes"/>
      <point x="156" y="224"/>
      <point x="169" y="238"/>
      <point x="195" y="238" type="curve" smooth="yes"/>
      <point x="257" y="238"/>
      <point x="364" y="171"/>
      <point x="364" y="64" type="curve"/>
    </contour>
  </outline>
</glyph>
<glyph name="g148" format="1">
  <advance width="634"/>
  <note>
	g148
  </note>
  <outline>
    <contour>
      <point x="454" y="522" type="line" smooth="yes"/>
      <point x="492" y="522"/>
      <point x="513" y="505"/>
      <point x="513" y="483" type="curve" smooth="yes"/>
      <point x="513" y="467"/>
      <point x="504" y="452"/>
      <point x="479" y="451" type="curve" smooth="yes"/>
      <point x="443" y="450"/>
      <point x="400" y="495"/>
      <point x="400" y="566" type="curve"/>
      <point x="324" y="567" type="line"/>
      <point x="324" y="494"/>
      <point x="391" y="387"/>
      <point x="485" y="387" type="curve" smooth="yes"/>
      <point x="537" y="387"/>
      <point x="577" y="424"/>
      <point x="577" y="477" type="curve" smooth="yes"/>
      <point x="577" y="521"/>
      <point x="555" y="547"/>
      <point x="516" y="564" type="curve"/>
      <point x="529" y="522" type="line"/>
      <point x="634" y="522" type="line" smooth="yes"/>
      <point x="643" y="522"/>
      <point x="659" y="530"/>
      <point x="659" y="556" type="curve" smooth="yes"/>
      <point x="659" y="581"/>
      <point x="642" y="587"/>
      <point x="634" y="587" type="curve" smooth="yes"/>
      <point x="0" y="587" type="line" smooth="yes"/>
      <point x="-7" y="587"/>
      <point x="-25" y="583"/>
      <point x="-25" y="555" type="curve" smooth="yes"/>
      <point x="-25" y="531"/>
      <point x="-9" y="522"/>
      <point x="0" y="522" type="curve" smooth="yes"/>
    </contour>
    <contour>
      <point x="450" y="334"/>
      <point x="384" y="318"/>
      <point x="372" y="378" type="curve" smooth="yes"/>
      <point x="360" y="437"/>
      <point x="326" y="495"/>
      <point x="215" y="495" type="curve" smooth="yes"/>
      <point x="100" y="495"/>
      <point x="40" y="432"/>
      <point x="40" y="371" type="curve" smooth="yes"/>
      <point x="40" y="328"/>
      <point x="70" y="287"/>
      <point x="126" y="287" type="curve" smooth="yes"/>
      <point x="181" y="287"/>
      <point x="212" y="327"/>
      <point x="212" y="369" type="curve" smooth="yes"/>
      <point x="212" y="423"/>
      <point x="160" y="451"/>
      <point x="117" y="436" type="curve"/>
      <point x="148" y="410" type="line"/>
      <point x="167" y="423"/>
      <point x="195" y="436"/>
      <point x="224" y="436" type="curve" smooth="yes"/>
      <point x="254" y="436"/>
      <point x="301" y="421"/>
      <point x="301" y="375" type="curve" smooth="yes"/>
      <point x="301" y="318"/>
      <point x="205" y="281"/>
      <point x="98" y="232" type="curve" smooth="yes"/>
      <point x="73" y="220"/>
      <point x="68" y="207"/>
      <point x="68" y="193" type="curve" smooth="yes"/>
      <point x="68" y="170"/>
      <point x="83" y="161"/>
      <point x="101" y="156" type="curve" smooth="yes"/>
      <point x="151" y="141"/>
      <point x="295" y="104"/>
      <point x="295" y="16" type="curve" smooth="yes"/>
      <point x="295" y="-16"/>
      <point x="312" y="-35"/>
      <point x="337" y="-35" type="curve" smooth="yes"/>
      <point x="353" y="-35"/>
      <point x="372" y="-21"/>
      <point x="372" y="17" type="curve" smooth="yes"/>
      <point x="372" y="312" type="line"/>
      <point x="341" y="341" type="line"/>
      <point x="341" y="257"/>
      <point x="440" y="268"/>
      <point x="486" y="246" type="curve" smooth="yes"/>
      <point x="543" y="218"/>
      <point x="533" y="186"/>
      <point x="533" y="147" type="curve"/>
      <point x="545" y="147" type="line"/>
      <point x="545" y="202"/>
      <point x="497" y="215"/>
      <point x="467" y="215" type="curve" smooth="yes"/>
      <point x="422" y="215"/>
      <point x="387" y="186"/>
      <point x="387" y="139" type="curve" smooth="yes"/>
      <point x="387" y="86"/>
      <point x="435" y="54"/>
      <point x="478" y="54" type="curve" smooth="yes"/>
      <point x="528" y="54"/>
      <point x="589" y="95"/>
      <point x="589" y="183" type="curve" smooth="yes"/>
      <point x="589" y="208"/>
      <point x="584" y="267"/>
      <point x="522" y="298" type="curve" smooth="yes"/>
    </contour>
    <contour>
      <point x="154" y="357"/>
      <point x="145" y="341"/>
      <point x="126" y="341" type="curve" smooth="yes"/>
      <point x="110" y="341"/>
      <point x="97" y="352"/>
      <point x="96" y="369" type="curve" smooth="yes"/>
      <point x="97" y="390"/>
      <point x="111" y="399"/>
      <point x="125" y="399" type="curve" smooth="yes"/>
      <point x="140" y="399"/>
      <point x="154" y="390"/>
      <point x="154" y="371" type="curve" smooth="yes"/>
    </contour>
    <contour>
      <point x="198" y="209"/>
      <point x="319" y="251"/>
      <point x="358" y="320" type="curve"/>
      <point x="300" y="325" type="line"/>
      <point x="297" y="250"/>
      <point x="296" y="155"/>
      <point x="295" y="37" type="curve"/>
      <point x="350" y="59" type="line"/>
      <point x="319" y="138"/>
      <point x="206" y="204"/>
      <point x="137" y="204" type="curve"/>
      <point x="137" y="180" type="line"/>
    </contour>
    <contour>
      <point x="442" y="157"/>
      <point x="460" y="170"/>
      <point x="478" y="170" type="curve" smooth="yes"/>
      <point x="500" y="170"/>
      <point x="512" y="154"/>
      <point x="512" y="138" type="curve" smooth="yes"/>
      <point x="512" y="123"/>
      <point x="500" y="108"/>
      <point x="478" y="108" type="curve" smooth="yes"/>
      <point x="457" y="108"/>
      <point x="442" y="122"/>
      <point x="442" y="138" type="curve" smooth="yes"/>
    </contour>
  </outline>
</glyph>
<glyph name="g51" format="1">
  <advance width="0"/>
  <note>
	g51
  </note>
  <outline>
    <contour>
      <point x="31" y="-115"/>
      <point x="68" y="-96"/>
      <point x="68" y="-53" type="curve" smooth="yes"/>
      <point x="68" y="-17"/>
      <point x="41" y="16"/>
      <point x="0" y="16" type="curve" smooth="yes"/>
      <point x="-35" y="16"/>
      <point x="-64" y="-9"/>
      <point x="-64" y="-47" type="curve" smooth="yes"/>
      <point x="-64" y="-88"/>
      <point x="-31" y="-115"/>
      <point x="3" y="-115" type="curve" smooth="yes"/>
    </contour>
    <contour>
      <point x="26" y="-67"/>
      <point x="14" y="-74"/>
      <point x="3" y="-74" type="curve" smooth="yes"/>
      <point x="-8" y="-74"/>
      <point x="-21" y="-64"/>
      <point x="-21" y="-48" type="curve" smooth="yes"/>
      <point x="-21" y="-31"/>
      <point x="-9" y="-22"/>
      <point x="2" y="-22" type="curve" smooth="yes"/>
      <point x="15" y="-22"/>
      <point x="26" y="-36"/>
      <point x="26" y="-50" type="curve" smooth="yes"/>
    </contour>
  </outline>
</glyph>
